{
.appVersion = "3260";
.formatVersion = 3;
DisplayStrings = (
"ğ‘¤/ga-divesakuru.001/ga-divesakuru.001 
",
"ğ‘¤‚    /i-divesakuru.001 ğ‘¤šğ‘¤ğ‘¤¤",
"ğ‘¤„ğ‘¤†ğ‘¤Œğ‘¤ğ‘¤„ğ‘¤–ğ‘¤˜ğ‘¤šğ‘¤›ğ‘¤ğ‘¤Ÿğ‘¤ ğ‘¤¢ğ‘¤¤ğ‘¤¥ğ‘¤§ğ‘¤¨
ğ‘¤­ğ‘¤©ğ‘¤˜ğ‘¤¬ğ‘¤­ğ‘¤Ÿğ‘¤®/lla-divesakuru.alt/nna_iVowel-divesakuru.alt 





 
/ssa-divesakuru.004/ssa-divesakuru.001 ğ‘¤ğ‘¤«ğ‘¤Œ

ğ‘¤„/ssa-divesakuru.004 ğ‘¤†/ssa-divesakuru.004 ğ‘¤Œ/ssa-divesakuru.004 ğ‘¤/ssa-divesakuru.004 ğ‘¤–/ssa-divesakuru.004 ğ‘¤˜/ssa-divesakuru.004 ğ‘¤š/ssa-divesakuru.004 ğ‘¤›/ssa-divesakuru.004 ğ‘¤/ssa-divesakuru.004 ğ‘¤Ÿ/ssa-divesakuru.004 ğ‘¤ /ssa-divesakuru.004 ğ‘¤¢/ssa-divesakuru.004 ğ‘¤¤/ssa-divesakuru.004 ğ‘¤¥/ssa-divesakuru.004 ğ‘¤§/ssa-divesakuru.004 ğ‘¤¨/ssa-divesakuru.004 ğ‘¤©/ssa-divesakuru.004 ğ‘¤¬/ssa-divesakuru.004 ğ‘¤­/ssa-divesakuru.004 ğ‘¤®/ssa-divesakuru.004 


/ssa-divesakuru.001 
ğ‘¤„/ssa-divesakuru.001 ğ‘¤†/ssa-divesakuru.001 ğ‘¤Œ/ssa-divesakuru.001 ğ‘¤/ssa-divesakuru.001 ğ‘¤–/ssa-divesakuru.001 ğ‘¤˜/ssa-divesakuru.001 ğ‘¤š/ssa-divesakuru.001 ğ‘¤›/ssa-divesakuru.001 ğ‘¤/ssa-divesakuru.001 ğ‘¤Ÿ/ssa-divesakuru.001 ğ‘¤ /ssa-divesakuru.001 ğ‘¤¢/ssa-divesakuru.001 ğ‘¤¤/ssa-divesakuru.001 ğ‘¤¥/ssa-divesakuru.001 ğ‘¤§/ssa-divesakuru.001 ğ‘¤¨/ssa-divesakuru.001 ğ‘¤©/ssa-divesakuru.001 ğ‘¤¬/ssa-divesakuru.001 ğ‘¤­/ssa-divesakuru.001 ğ‘¤®/ssa-divesakuru.001 

ğ‘¤«
ğ‘¤„ğ‘¤«ğ‘¤†ğ‘¤«ğ‘¤Œğ‘¤«ğ‘¤ğ‘¤«ğ‘¤–ğ‘¤«ğ‘¤˜ğ‘¤«ğ‘¤šğ‘¤«ğ‘¤›ğ‘¤«ğ‘¤ğ‘¤«ğ‘¤Ÿğ‘¤«ğ‘¤ ğ‘¤«ğ‘¤¢ğ‘¤«ğ‘¤¤ğ‘¤«ğ‘¤¥ğ‘¤«ğ‘¤§ğ‘¤«ğ‘¤¨ğ‘¤«ğ‘¤©ğ‘¤«ğ‘¤¬ğ‘¤«ğ‘¤­ğ‘¤«ğ‘¤®ğ‘¤«
 


ğ‘¤¯ğ‘¤¯ğ‘¤˜ 
/za-divesakuru.001/za-divesakuru.001 
/za-divesakuru.002/za-divesakuru.002 ğ‘¤˜
ğ‘¤„ğ‘¤¯ğ‘¤†ğ‘¤¯ğ‘¤Œğ‘¤¯ğ‘¤ğ‘¤¯ğ‘¤–ğ‘¤¯ğ‘¤˜ğ‘¤¯ğ‘¤šğ‘¤¯ğ‘¤›ğ‘¤¯ğ‘¤ğ‘¤¯ğ‘¤Ÿğ‘¤¯ğ‘¤ ğ‘¤¯ğ‘¤¢ğ‘¤¯ğ‘¤¤ğ‘¤¯ğ‘¤¥ğ‘¤¯ğ‘¤§ğ‘¤§ğ‘¤¯ğ‘¤¨ğ‘¤¯ğ‘¤©ğ‘¤¯ğ‘¤¬ğ‘¤¯ğ‘¤­ğ‘¤¯ğ‘¤®ğ‘¤¯




 
ğ‘¤®/prefixedNasalSign-divesakuru.004 ğ‘¤¿/prefixedNasalSign-divesakuru.002 ğ‘¤‚

ğ‘¤ ğ‘¤/da-divesakuru.001/da-divesakuru.002/da-divesakuru.003   

/da-divesakuru.001/da-divesakuru.001/da-divesakuru.001 
ğ‘¤ğ‘¤     ğ‘¤

glyphs = (
{
category = Letter;
glyphname = A;
kernLeft = A;
kernRight = A;
lastChange = "2024-04-10 07:49:34 +0000";
layers = (
{
anchors = (
{
name = bottom;
pos = (582,0);
},
{
name = center;
pos = (352,357);
},
{
name = top;
pos = (353,714);
},
{
name = topright;
pos = (555,714);
}
);
layerId = "0C4B00F6-5348-41D6-8EE7-AA18FE59D1B1";
shapes = (
{
closed = 1;
nodes = (
(244,0,l),
(244,42,l),
(221,42,ls),
(177,42,o),
(155,57,o),
(155,91,cs),
(155,102,o),
(158,118,o),
(164,134,cs),
(202,239,l),
(465,239,l),
(505,127,ls),
(510,112,o),
(513,101,o),
(513,90,cs),
(513,57,o),
(493,42,o),
(453,42,cs),
(430,42,l),
(430,0,l),
(705,0,l),
(705,42,l),
(692,42,ls),
(653,42,o),
(636,53,o),
(621,95,cs),
(395,714,l),
(317,714,l),
(95,120,ls),
(71,56,o),
(58,42,o),
(19,42,cs),
(0,42,l),
(0,0,l)
);
},
{
closed = 1;
nodes = (
(289,473,ls),
(312,535,o),
(325,574,o),
(335,622,c),
(346,574,o),
(364,523,o),
(385,464,cs),
(447,289,l),
(221,289,l)
);
}
);
width = 705;
}
);
script = latin;
subCategory = Uppercase;
unicode = 65;
},
{
category = Letter;
glyphname = B;
kernLeft = B;
kernRight = B;
lastChange = "2024-04-10 07:49:34 +0000";
layers = (
{
anchors = (
{
name = bottom;
pos = (327,0);
},
{
name = center;
pos = (315,357);
},
{
name = top;
pos = (327,714);
},
{
name = topright;
pos = (634,714);
}
);
layerId = "0C4B00F6-5348-41D6-8EE7-AA18FE59D1B1";
shapes = (
{
closed = 1;
nodes = (
(336,0,ls),
(509,0,o),
(593,64,o),
(593,193,cs),
(593,299,o),
(530,358,o),
(439,374,c),
(439,378,l),
(510,401,o),
(563,446,o),
(563,535,cs),
(563,658,o),
(479,714,o),
(306,714,cs),
(38,714,l),
(38,672,l),
(51,672,ls),
(95,672,o),
(133,663,o),
(133,604,cs),
(133,114,ls),
(133,51,o),
(96,42,o),
(51,42,cs),
(38,42,l),
(38,0,l)
);
},
{
closed = 1;
nodes = (
(234,50,l),
(234,349,l),
(333,349,ls),
(450,349,o),
(486,300,o),
(486,196,cs),
(486,89,o),
(444,50,o),
(331,50,cs)
);
},
{
closed = 1;
nodes = (
(234,399,l),
(234,664,l),
(301,664,ls),
(414,664,o),
(456,633,o),
(456,535,cs),
(456,439,o),
(420,399,o),
(303,399,cs)
);
}
);
width = 654;
}
);
script = latin;
subCategory = Uppercase;
unicode = 66;
},
{
category = Letter;
glyphname = C;
kernLeft = O;
kernRight = C;
lastChange = "2024-04-10 07:49:34 +0000";
layers = (
{
anchors = (
{
name = bottom;
pos = (357,0);
},
{
name = center;
pos = (318,357);
},
{
name = top;
pos = (375,714);
},
{
name = topright;
pos = (594,714);
}
);
layerId = "0C4B00F6-5348-41D6-8EE7-AA18FE59D1B1";
shapes = (
{
closed = 1;
nodes = (
(509,-10,o),
(576,52,o),
(576,102,cs),
(576,122,o),
(568,134,o),
(557,141,c),
(523,96,o),
(473,56,o),
(376,56,cs),
(229,56,o),
(168,179,o),
(168,358,cs),
(168,558,o),
(225,671,o),
(376,671,cs),
(463,671,o),
(493,604,o),
(493,542,c),
(542,542,o),
(580,569,o),
(580,612,cs),
(580,676,o),
(514,724,o),
(378,724,cs),
(167,724,o),
(57,574,o),
(57,358,cs),
(57,137,o),
(162,-10,o),
(361,-10,cs)
);
}
);
width = 614;
}
);
script = latin;
subCategory = Uppercase;
unicode = 67;
},
{
category = Letter;
glyphname = D;
kernLeft = B;
kernRight = O;
lastChange = "2024-04-10 07:49:34 +0000";
layers = (
{
anchors = (
{
name = bottom;
pos = (353,0);
},
{
name = center;
pos = (364,357);
},
{
name = top;
pos = (364,714);
},
{
name = topright;
pos = (707,714);
}
);
layerId = "0C4B00F6-5348-41D6-8EE7-AA18FE59D1B1";
shapes = (
{
closed = 1;
nodes = (
(344,0,l),
(561,0,o),
(670,139,o),
(670,358,cs),
(670,585,o),
(550,714,o),
(344,714,cs),
(38,714,l),
(38,672,l),
(51,672,ls),
(95,672,o),
(133,663,o),
(133,604,c),
(133,114,ls),
(133,51,o),
(96,42,o),
(51,42,cs),
(38,42,l),
(38,0,l)
);
},
{
closed = 1;
nodes = (
(234,51,l),
(234,664,l),
(322,664,ls),
(480,664,o),
(559,556,o),
(559,358,cs),
(559,160,o),
(480,51,o),
(321,51,cs)
);
}
);
width = 727;
}
);
script = latin;
subCategory = Uppercase;
unicode = 68;
},
{
category = Letter;
glyphname = E;
kernLeft = B;
kernRight = E;
lastChange = "2024-04-10 07:49:34 +0000";
layers = (
{
anchors = (
{
name = bottom;
pos = (312,0);
},
{
name = center;
pos = (309,357);
},
{
name = top;
pos = (312,714);
},
{
name = topright;
pos = (603,714);
}
);
layerId = "0C4B00F6-5348-41D6-8EE7-AA18FE59D1B1";
shapes = (
{
closed = 1;
nodes = (
(574,0,l),
(581,175,l),
(529,175,l),
(522,132,ls),
(515,88,o),
(490,50,o),
(427,50,cs),
(234,50,l),
(234,349,l),
(475,349,l),
(475,398,l),
(234,398,l),
(234,664,l),
(402,664,ls),
(462,664,o),
(485,626,o),
(490,582,cs),
(495,539,l),
(547,539,l),
(542,714,l),
(38,714,l),
(38,672,l),
(51,672,ls),
(96,672,o),
(133,663,o),
(133,600,cs),
(133,109,ls),
(133,50,o),
(95,42,o),
(51,42,cs),
(38,42,l),
(38,0,l)
);
}
);
width = 623;
}
);
script = latin;
subCategory = Uppercase;
unicode = 69;
},
{
category = Letter;
glyphname = F;
kernLeft = B;
kernRight = F;
lastChange = "2024-04-10 07:49:34 +0000";
layers = (
{
anchors = (
{
name = bottom;
pos = (184,0);
},
{
name = center;
pos = (292,357);
},
{
name = top;
pos = (295,714);
},
{
name = topright;
pos = (570,714);
}
);
layerId = "0C4B00F6-5348-41D6-8EE7-AA18FE59D1B1";
shapes = (
{
closed = 1;
nodes = (
(349,0,l),
(349,42,l),
(316,42,ls),
(271,42,o),
(234,51,o),
(234,114,cs),
(234,326,l),
(475,326,l),
(475,375,l),
(234,375,l),
(234,664,l),
(398,664,l),
(461,664,o),
(485,627,o),
(490,582,cs),
(495,539,l),
(547,539,l),
(542,714,l),
(38,714,l),
(38,672,l),
(51,672,ls),
(95,672,o),
(133,663,o),
(133,604,cs),
(133,109,ls),
(133,50,o),
(95,42,o),
(51,42,cs),
(38,42,l),
(38,0,l)
);
}
);
width = 590;
}
);
script = latin;
subCategory = Uppercase;
unicode = 70;
},
{
category = Letter;
glyphname = G;
kernLeft = O;
kernRight = G;
lastChange = "2024-04-10 07:49:34 +0000";
layers = (
{
anchors = (
{
name = bottom;
pos = (401,0);
},
{
name = center;
pos = (376,357);
},
{
name = top;
pos = (407,714);
},
{
name = topright;
pos = (694,714);
}
);
layerId = "0C4B00F6-5348-41D6-8EE7-AA18FE59D1B1";
shapes = (
{
closed = 1;
nodes = (
(487,-10,o),
(555,5,o),
(622,36,c),
(622,216,l),
(622,279,o),
(653,288,o),
(691,288,cs),
(695,288,l),
(695,330,l),
(435,330,l),
(435,288,l),
(439,288,ls),
(483,288,o),
(521,279,o),
(521,220,cs),
(521,59,l),
(493,51,o),
(455,47,o),
(417,47,cs),
(235,47,o),
(168,158,o),
(168,358,cs),
(168,558,o),
(233,671,o),
(403,671,cs),
(501,671,o),
(535,604,o),
(535,542,c),
(587,542,o),
(628,569,o),
(628,612,cs),
(628,676,o),
(555,724,o),
(407,724,cs),
(177,724,o),
(57,574,o),
(57,358,cs),
(57,137,o),
(169,-10,o),
(401,-10,cs)
);
}
);
width = 714;
}
);
script = latin;
subCategory = Uppercase;
unicode = 71;
},
{
category = Letter;
glyphname = H;
kernLeft = B;
kernRight = H;
lastChange = "2024-04-10 07:49:34 +0000";
layers = (
{
anchors = (
{
name = bottom;
pos = (397,0);
},
{
name = center;
pos = (397,371);
},
{
name = top;
pos = (397,714);
},
{
name = topright;
pos = (773,714);
}
);
layerId = "0C4B00F6-5348-41D6-8EE7-AA18FE59D1B1";
shapes = (
{
closed = 1;
nodes = (
(329,0,l),
(329,42,l),
(316,42,ls),
(271,42,o),
(234,51,o),
(234,114,cs),
(234,348,l),
(559,348,l),
(559,114,ls),
(559,51,o),
(522,42,o),
(477,42,cs),
(464,42,l),
(464,0,l),
(755,0,l),
(755,42,l),
(742,42,ls),
(698,42,o),
(660,50,o),
(660,109,cs),
(660,600,ls),
(660,663,o),
(697,672,o),
(742,672,cs),
(755,672,l),
(755,714,l),
(464,714,l),
(464,672,l),
(477,672,ls),
(522,672,o),
(559,663,o),
(559,600,cs),
(559,398,l),
(234,398,l),
(234,600,l),
(234,663,o),
(271,672,o),
(316,672,cs),
(329,672,l),
(329,714,l),
(38,714,l),
(38,672,l),
(51,672,ls),
(95,672,o),
(133,663,o),
(133,604,cs),
(133,114,ls),
(133,51,o),
(96,42,o),
(51,42,cs),
(38,42,l),
(38,0,l)
);
}
);
width = 793;
}
);
script = latin;
subCategory = Uppercase;
unicode = 72;
},
{
category = Letter;
glyphname = I;
kernLeft = B;
kernRight = H;
lastChange = "2024-04-10 07:49:34 +0000";
layers = (
{
anchors = (
{
name = bottom;
pos = (184,0);
},
{
name = center;
pos = (183,357);
},
{
name = top;
pos = (184,714);
},
{
name = topright;
pos = (347,714);
}
);
layerId = "0C4B00F6-5348-41D6-8EE7-AA18FE59D1B1";
shapes = (
{
closed = 1;
nodes = (
(329,0,l),
(329,42,l),
(316,42,ls),
(271,42,o),
(234,51,o),
(234,114,cs),
(234,600,l),
(234,663,o),
(271,672,o),
(316,672,cs),
(329,672,l),
(329,714,l),
(38,714,l),
(38,672,l),
(51,672,ls),
(96,672,o),
(133,663,o),
(133,600,cs),
(133,114,ls),
(133,51,o),
(96,42,o),
(51,42,cs),
(38,42,l),
(38,0,l)
);
}
);
width = 367;
}
);
script = latin;
subCategory = Uppercase;
unicode = 73;
},
{
category = Letter;
glyphname = J;
kernLeft = J;
kernRight = J;
lastChange = "2024-04-10 07:49:34 +0000";
layers = (
{
anchors = (
{
name = bottom;
pos = (109,-240);
},
{
name = center;
pos = (159,237);
},
{
name = top;
pos = (182,714);
},
{
name = topright;
pos = (337,714);
}
);
layerId = "0C4B00F6-5348-41D6-8EE7-AA18FE59D1B1";
shapes = (
{
closed = 1;
nodes = (
(6,-240,ls),
(134,-240,o),
(234,-187,o),
(234,-8,cs),
(234,600,l),
(234,663,o),
(271,672,o),
(316,672,cs),
(329,672,l),
(329,714,l),
(38,714,l),
(38,672,l),
(51,672,ls),
(95,672,o),
(133,663,o),
(133,604,cs),
(133,-9,ls),
(133,-150,o),
(84,-193,o),
(-2,-193,cs),
(-11,-193,l),
(-11,-240,l)
);
}
);
width = 357;
}
);
script = latin;
subCategory = Uppercase;
unicode = 74;
},
{
category = Letter;
glyphname = K;
kernLeft = B;
kernRight = K;
lastChange = "2024-04-10 07:49:34 +0000";
layers = (
{
anchors = (
{
name = bottom;
pos = (399,0);
},
{
name = center;
pos = (375,357);
},
{
name = top;
pos = (370,714);
},
{
name = topright;
pos = (680,714);
}
);
layerId = "0C4B00F6-5348-41D6-8EE7-AA18FE59D1B1";
shapes = (
{
closed = 1;
nodes = (
(329,0,l),
(329,42,l),
(316,42,ls),
(271,42,o),
(234,51,o),
(234,114,cs),
(234,253,l),
(319,337,l),
(491,90,ls),
(541,18,o),
(567,0,o),
(701,0,cs),
(712,0,l),
(712,42,l),
(710,42,ls),
(673,42,o),
(638,70,o),
(600,122,cs),
(389,416,l),
(534,579,ls),
(586,637,o),
(622,673,o),
(668,673,c),
(668,714,l),
(447,714,l),
(447,673,l),
(480,673,o),
(496,668,o),
(496,651,cs),
(496,632,o),
(484,604,o),
(441,555,cs),
(234,318,l),
(234,600,ls),
(234,663,o),
(271,672,o),
(316,672,cs),
(329,672,l),
(329,714,l),
(38,714,l),
(38,672,l),
(51,672,ls),
(95,672,o),
(133,663,o),
(133,604,cs),
(133,109,ls),
(133,50,o),
(95,42,o),
(51,42,cs),
(38,42,l),
(38,0,l)
);
}
);
width = 700;
}
);
script = latin;
subCategory = Uppercase;
unicode = 75;
},
{
category = Letter;
glyphname = L;
kernLeft = B;
kernRight = L;
lastChange = "2024-04-10 07:49:34 +0000";
layers = (
{
anchors = (
{
name = bottom;
pos = (312,0);
},
{
name = center;
pos = (184,357);
},
{
name = top;
pos = (180,714);
},
{
name = topright;
pos = (603,714);
}
);
layerId = "0C4B00F6-5348-41D6-8EE7-AA18FE59D1B1";
shapes = (
{
closed = 1;
nodes = (
(574,0,l),
(581,215,l),
(529,215,l),
(519,140,ls),
(513,97,o),
(491,50,o),
(431,50,cs),
(234,50,l),
(234,604,ls),
(234,663,o),
(272,672,o),
(316,672,cs),
(329,672,l),
(329,714,l),
(38,714,l),
(38,672,l),
(51,672,ls),
(96,672,o),
(133,663,o),
(133,600,cs),
(133,114,l),
(133,51,o),
(96,42,o),
(51,42,cs),
(38,42,l),
(38,0,l)
);
}
);
width = 623;
}
);
script = latin;
subCategory = Uppercase;
unicode = 76;
},
{
category = Letter;
glyphname = M;
kernLeft = B;
kernRight = H;
lastChange = "2024-04-10 07:49:34 +0000";
layers = (
{
anchors = (
{
name = bottom;
pos = (462,0);
},
{
name = center;
pos = (469,357);
},
{
name = top;
pos = (469,714);
},
{
name = topright;
pos = (918,714);
}
);
layerId = "0C4B00F6-5348-41D6-8EE7-AA18FE59D1B1";
shapes = (
{
closed = 1;
nodes = (
(269,0,l),
(269,42,l),
(266,42,ls),
(221,42,o),
(194,51,o),
(194,114,cs),
(194,637,l),
(426,0,l),
(480,0,l),
(709,639,l),
(709,105,l),
(706,50,o),
(680,42,o),
(637,42,cs),
(634,42,l),
(634,0,l),
(900,0,l),
(900,42,l),
(887,42,ls),
(842,42,o),
(805,51,o),
(805,114,cs),
(805,600,l),
(805,663,o),
(842,672,o),
(887,672,cs),
(900,672,l),
(900,714,l),
(678,714,l),
(473,142,l),
(266,714,l),
(38,714,l),
(38,672,l),
(51,672,ls),
(95,672,o),
(133,663,o),
(133,604,cs),
(133,109,ls),
(133,50,o),
(95,42,o),
(51,42,cs),
(38,42,l),
(38,0,l)
);
}
);
width = 938;
}
);
script = latin;
subCategory = Uppercase;
unicode = 77;
},
{
category = Letter;
glyphname = N;
kernLeft = B;
kernRight = N;
lastChange = "2024-04-10 07:49:34 +0000";
layers = (
{
anchors = (
{
name = bottom;
pos = (382,0);
},
{
name = center;
pos = (386,357);
},
{
name = top;
pos = (382,714);
},
{
name = topright;
pos = (743,714);
}
);
layerId = "0C4B00F6-5348-41D6-8EE7-AA18FE59D1B1";
shapes = (
{
closed = 1;
nodes = (
(289,0,l),
(289,42,l),
(276,42,ls),
(231,42,o),
(194,51,o),
(194,114,cs),
(194,576,l),
(569,0,l),
(640,0,l),
(640,600,ls),
(640,663,o),
(677,672,o),
(722,672,cs),
(735,672,l),
(735,714,l),
(484,714,l),
(484,672,l),
(497,672,ls),
(541,672,o),
(579,663,o),
(579,604,c),
(579,161,l),
(221,714,l),
(38,714,l),
(38,672,l),
(51,672,ls),
(95,672,o),
(133,663,o),
(133,604,c),
(133,114,ls),
(133,51,o),
(96,42,o),
(51,42,cs),
(38,42,l),
(38,0,l)
);
}
);
width = 763;
}
);
script = latin;
subCategory = Uppercase;
unicode = 78;
},
{
category = Letter;
glyphname = O;
kernLeft = O;
kernRight = O;
lastChange = "2024-04-10 07:49:34 +0000";
layers = (
{
anchors = (
{
name = bottom;
pos = (371,0);
},
{
name = center;
pos = (371,357);
},
{
name = top;
pos = (371,714);
},
{
name = topright;
pos = (722,714);
}
);
layerId = "0C4B00F6-5348-41D6-8EE7-AA18FE59D1B1";
shapes = (
{
closed = 1;
nodes = (
(573,-10,o),
(685,137,o),
(685,358,cs),
(685,580,o),
(573,725,o),
(372,725,cs),
(159,725,o),
(56,580,o),
(56,359,cs),
(56,137,o),
(159,-10,o),
(371,-10,cs)
);
},
{
closed = 1;
nodes = (
(223,44,o),
(167,160,o),
(167,358,cs),
(167,556,o),
(223,671,o),
(372,671,cs),
(520,671,o),
(574,556,o),
(574,358,cs),
(574,160,o),
(520,44,o),
(371,44,cs)
);
}
);
width = 742;
}
);
script = latin;
subCategory = Uppercase;
unicode = 79;
},
{
category = Letter;
glyphname = P;
kernLeft = B;
kernRight = P;
lastChange = "2024-04-10 07:49:34 +0000";
layers = (
{
anchors = (
{
name = bottom;
pos = (184,0);
},
{
name = center;
pos = (301,357);
},
{
name = top;
pos = (302,714);
},
{
name = topright;
pos = (589,714);
}
);
layerId = "0C4B00F6-5348-41D6-8EE7-AA18FE59D1B1";
shapes = (
{
closed = 1;
nodes = (
(349,0,l),
(349,42,l),
(316,42,ls),
(272,42,o),
(234,50,o),
(234,109,cs),
(234,278,l),
(297,278,ls),
(495,278,o),
(565,386,o),
(565,505,cs),
(565,635,o),
(487,714,o),
(319,714,c),
(38,714,l),
(38,672,l),
(51,672,ls),
(95,672,o),
(133,663,o),
(133,604,cs),
(133,114,l),
(133,51,o),
(96,42,o),
(51,42,cs),
(38,42,l),
(38,0,l)
);
},
{
closed = 1;
nodes = (
(234,325,l),
(234,666,l),
(302,666,ls),
(415,666,o),
(457,613,o),
(457,501,cs),
(457,374,o),
(408,325,o),
(287,325,cs)
);
}
);
width = 604;
}
);
script = latin;
subCategory = Uppercase;
unicode = 80;
},
{
category = Letter;
glyphname = Q;
kernLeft = O;
kernRight = O;
lastChange = "2024-04-10 07:49:34 +0000";
layers = (
{
anchors = (
{
name = bottom;
pos = (371,-230);
},
{
name = center;
pos = (370,247);
},
{
name = top;
pos = (371,714);
},
{
name = topright;
pos = (722,714);
}
);
layerId = "0C4B00F6-5348-41D6-8EE7-AA18FE59D1B1";
shapes = (
{
closed = 1;
nodes = (
(602,-230,l),
(602,-183,l),
(586,-183,ls),
(505,-183,o),
(449,-141,o),
(438,-4,c),
(597,25,o),
(685,163,o),
(685,358,cs),
(685,580,o),
(573,725,o),
(372,725,cs),
(159,725,o),
(56,580,o),
(56,359,cs),
(56,152,o),
(145,11,o),
(328,-8,c),
(341,-179,o),
(453,-230,o),
(559,-230,cs)
);
},
{
closed = 1;
nodes = (
(223,44,o),
(167,160,o),
(167,358,cs),
(167,556,o),
(223,671,o),
(372,671,cs),
(520,671,o),
(574,556,o),
(574,358,cs),
(574,160,o),
(520,44,o),
(371,44,cs)
);
}
);
width = 742;
}
);
script = latin;
subCategory = Uppercase;
unicode = 81;
},
{
category = Letter;
glyphname = R;
kernLeft = B;
kernRight = R;
lastChange = "2024-04-10 07:49:34 +0000";
layers = (
{
anchors = (
{
name = bottom;
pos = (368,0);
},
{
name = center;
pos = (350,357);
},
{
name = top;
pos = (328,714);
},
{
name = topright;
pos = (636,714);
}
);
layerId = "0C4B00F6-5348-41D6-8EE7-AA18FE59D1B1";
shapes = (
{
closed = 1;
nodes = (
(329,0,l),
(329,42,l),
(316,42,ls),
(272,42,o),
(234,50,o),
(234,109,cs),
(234,315,l),
(317,315,l),
(452,90,ls),
(497,14,o),
(523,0,o),
(648,0,cs),
(662,0,l),
(662,42,l),
(659,42,ls),
(617,42,o),
(588,69,o),
(554,122,c),
(417,339,l),
(488,363,o),
(564,414,o),
(564,521,cs),
(564,650,o),
(480,714,o),
(307,714,cs),
(38,714,l),
(38,672,l),
(51,672,ls),
(95,672,o),
(133,663,o),
(133,604,cs),
(133,109,ls),
(133,50,o),
(95,42,o),
(51,42,cs),
(38,42,l),
(38,0,l)
);
},
{
closed = 1;
nodes = (
(234,362,l),
(234,666,l),
(302,666,ls),
(415,666,o),
(457,625,o),
(457,518,cs),
(457,414,o),
(421,362,o),
(304,362,cs)
);
}
);
width = 656;
}
);
script = latin;
subCategory = Uppercase;
unicode = 82;
},
{
category = Letter;
glyphname = S;
kernLeft = S;
kernRight = S;
lastChange = "2024-04-10 07:49:34 +0000";
layers = (
{
anchors = (
{
name = bottom;
pos = (272,0);
},
{
name = center;
pos = (270,357);
},
{
name = top;
pos = (272,714);
},
{
name = topright;
pos = (524,714);
}
);
layerId = "0C4B00F6-5348-41D6-8EE7-AA18FE59D1B1";
shapes = (
{
closed = 1;
nodes = (
(397,-10,o),
(493,64,o),
(493,191,cs),
(493,294,o),
(424,350,o),
(307,398,cs),
(191,445,o),
(152,480,o),
(152,560,cs),
(152,629,o),
(197,674,o),
(274,674,c),
(358,674,o),
(386,609,o),
(386,547,c),
(434,547,o),
(465,569,o),
(465,612,cs),
(465,670,o),
(397,724,o),
(278,724,cs),
(152,724,o),
(59,657,o),
(59,543,cs),
(59,433,o),
(119,372,o),
(243,321,cs),
(360,273,o),
(398,238,o),
(398,165,cs),
(398,84,o),
(344,39,o),
(255,39,cs),
(161,39,o),
(124,115,o),
(120,198,c),
(74,198,o),
(48,171,o),
(48,131,cs),
(48,47,o),
(116,-10,o),
(247,-10,cs)
);
}
);
width = 544;
}
);
script = latin;
subCategory = Uppercase;
unicode = 83;
},
{
category = Letter;
glyphname = T;
kernLeft = T;
kernRight = T;
lastChange = "2024-04-10 07:49:34 +0000";
layers = (
{
anchors = (
{
name = bottom;
pos = (307,0);
},
{
name = center;
pos = (307,357);
},
{
name = top;
pos = (307,714);
},
{
name = topright;
pos = (593,714);
}
);
layerId = "0C4B00F6-5348-41D6-8EE7-AA18FE59D1B1";
shapes = (
{
closed = 1;
nodes = (
(461,0,l),
(461,42,l),
(438,42,ls),
(393,42,o),
(356,51,o),
(356,114,cs),
(356,664,l),
(453,664,ls),
(513,664,o),
(531,626,o),
(536,582,cs),
(541,539,l),
(593,539,l),
(588,714,l),
(25,714,l),
(20,539,l),
(72,539,l),
(77,582,ls),
(82,626,o),
(100,664,o),
(159,664,cs),
(255,664,l),
(255,109,l),
(255,50,o),
(217,42,o),
(173,42,cs),
(150,42,l),
(150,0,l)
);
}
);
width = 613;
}
);
script = latin;
subCategory = Uppercase;
unicode = 84;
},
{
category = Letter;
glyphname = U;
kernLeft = U;
kernRight = U;
lastChange = "2024-04-10 07:49:34 +0000";
layers = (
{
anchors = (
{
name = bottom;
pos = (359,0);
},
{
name = center;
pos = (358,352);
},
{
name = top;
pos = (379,714);
},
{
name = topright;
pos = (703,714);
}
);
layerId = "0C4B00F6-5348-41D6-8EE7-AA18FE59D1B1";
shapes = (
{
closed = 1;
nodes = (
(521,-10,o),
(607,71,o),
(607,204,cs),
(607,600,ls),
(607,663,o),
(644,672,o),
(689,672,cs),
(702,672,l),
(702,714,l),
(451,714,l),
(451,672,l),
(464,672,ls),
(508,672,o),
(546,663,o),
(546,604,cs),
(546,206,ls),
(546,115,o),
(493,50,o),
(378,50,cs),
(281,50,o),
(211,94,o),
(211,210,cs),
(211,600,l),
(211,663,o),
(248,672,o),
(293,672,cs),
(306,672,l),
(306,714,l),
(15,714,l),
(15,672,l),
(28,672,ls),
(72,672,o),
(110,663,o),
(110,604,cs),
(110,216,ls),
(110,53,o),
(204,-10,o),
(362,-10,cs)
);
}
);
width = 717;
}
);
script = latin;
subCategory = Uppercase;
unicode = 85;
},
{
category = Letter;
glyphname = V;
kernLeft = V;
kernRight = V;
lastChange = "2024-04-10 07:49:34 +0000";
layers = (
{
anchors = (
{
name = bottom;
pos = (338,0);
},
{
name = center;
pos = (337,357);
},
{
name = top;
pos = (348,714);
},
{
name = topright;
pos = (655,714);
}
);
layerId = "0C4B00F6-5348-41D6-8EE7-AA18FE59D1B1";
shapes = (
{
closed = 1;
nodes = (
(300,0,l),
(373,0,l),
(580,594,l),
(602,659,o),
(617,672,o),
(656,672,cs),
(675,672,l),
(675,714,l),
(431,714,l),
(431,672,l),
(454,672,ls),
(498,672,o),
(520,657,o),
(520,623,cs),
(520,612,o),
(516,596,o),
(511,580,cs),
(401,262,ls),
(379,200,o),
(365,146,o),
(355,98,c),
(344,146,o),
(330,203,o),
(310,262,cs),
(200,587,l),
(195,602,o),
(192,613,o),
(192,624,cs),
(192,657,o),
(212,672,o),
(252,672,cs),
(275,672,l),
(275,714,l),
(0,714,l),
(0,672,l),
(13,672,ls),
(52,672,o),
(70,661,o),
(84,619,c)
);
}
);
width = 675;
}
);
script = latin;
subCategory = Uppercase;
unicode = 86;
},
{
category = Letter;
glyphname = W;
kernLeft = W;
kernRight = W;
lastChange = "2024-04-10 07:49:34 +0000";
layers = (
{
anchors = (
{
name = bottom;
pos = (524,0);
},
{
name = center;
pos = (523,357);
},
{
name = top;
pos = (540,714);
},
{
name = topright;
pos = (1027,714);
}
);
layerId = "0C4B00F6-5348-41D6-8EE7-AA18FE59D1B1";
shapes = (
{
closed = 1;
nodes = (
(276,0,l),
(368,0,l),
(521,560,l),
(684,0,l),
(774,0,l),
(943,594,ls),
(962,660,o),
(980,672,o),
(1019,672,cs),
(1038,672,l),
(1038,714,l),
(794,714,l),
(794,672,l),
(817,672,ls),
(861,672,o),
(883,657,o),
(883,623,cs),
(883,612,o),
(876,587,o),
(872,571,cs),
(784,262,ls),
(766,198,o),
(754,146,o),
(744,98,c),
(735,144,o),
(720,208,o),
(701,274,cs),
(576,707,l),
(504,707,l),
(385,278,ls),
(367,214,o),
(354,150,o),
(344,98,c),
(333,146,o),
(318,207,o),
(301,267,cs),
(209,587,ls),
(205,602,o),
(201,613,o),
(201,624,cs),
(201,657,o),
(221,672,o),
(261,672,cs),
(284,672,l),
(284,714,l),
(9,714,l),
(9,672,l),
(22,672,ls),
(61,672,o),
(80,661,o),
(93,619,cs)
);
}
);
width = 1047;
}
);
script = latin;
subCategory = Uppercase;
unicode = 87;
},
{
category = Letter;
glyphname = X;
kernLeft = X;
kernRight = X;
lastChange = "2024-04-10 07:49:34 +0000";
layers = (
{
anchors = (
{
name = bottom;
pos = (330,0);
},
{
name = center;
pos = (330,357);
},
{
name = top;
pos = (330,714);
},
{
name = topright;
pos = (640,714);
}
);
layerId = "0C4B00F6-5348-41D6-8EE7-AA18FE59D1B1";
shapes = (
{
closed = 1;
nodes = (
(246,0,l),
(246,42,l),
(243,42,ls),
(199,42,o),
(178,51,o),
(178,73,cs),
(178,94,o),
(193,122,o),
(204,139,cs),
(315,303,l),
(414,144,ls),
(442,100,o),
(447,90,o),
(447,75,cs),
(447,53,o),
(427,42,o),
(387,42,cs),
(382,42,l),
(382,0,l),
(652,0,l),
(652,42,l),
(639,42,ls),
(614,42,o),
(588,56,o),
(559,95,c),
(375,391,l),
(520,600,ls),
(558,655,o),
(580,672,o),
(619,672,cs),
(628,672,l),
(628,714,l),
(409,714,l),
(409,672,l),
(412,672,ls),
(443,672,o),
(466,667,o),
(466,643,cs),
(466,625,o),
(456,605,o),
(441,582,cs),
(346,438,l),
(256,584,ls),
(234,619,o),
(232,629,o),
(232,643,cs),
(232,659,o),
(243,672,o),
(289,672,cs),
(292,672,l),
(292,714,l),
(21,714,l),
(21,672,l),
(34,672,ls),
(64,672,o),
(96,657,o),
(120,619,cs),
(285,351,l),
(118,112,ls),
(82,60,o),
(62,42,o),
(14,42,cs),
(8,42,l),
(8,0,l)
);
}
);
width = 660;
}
);
script = latin;
subCategory = Uppercase;
unicode = 88;
},
{
category = Letter;
glyphname = Y;
kernLeft = Y;
kernRight = Y;
lastChange = "2024-04-10 07:49:34 +0000";
layers = (
{
anchors = (
{
name = bottom;
pos = (313,0);
},
{
name = center;
pos = (311,357);
},
{
name = top;
pos = (313,714);
},
{
name = topright;
pos = (605,714);
}
);
layerId = "0C4B00F6-5348-41D6-8EE7-AA18FE59D1B1";
shapes = (
{
closed = 1;
nodes = (
(470,0,l),
(470,42,l),
(447,42,ls),
(402,42,o),
(365,51,o),
(365,114,cs),
(365,298,l),
(533,594,ls),
(567,654,o),
(588,672,o),
(616,672,cs),
(628,672,l),
(628,714,l),
(384,714,l),
(384,672,l),
(413,672,ls),
(451,672,o),
(473,657,o),
(473,628,cs),
(473,612,o),
(468,591,o),
(455,568,cs),
(391,453,ls),
(368,411,o),
(343,367,o),
(331,339,c),
(320,370,o),
(304,412,o),
(281,453,cs),
(207,587,ls),
(199,601,o),
(189,621,o),
(189,640,cs),
(189,657,o),
(197,672,o),
(233,672,cs),
(270,672,l),
(270,714,l),
(-5,714,l),
(-5,672,l),
(8,672,ls),
(42,672,o),
(57,657,o),
(79,619,cs),
(264,298,l),
(264,109,ls),
(264,50,o),
(226,42,o),
(182,42,cs),
(159,42,l),
(159,0,l)
);
}
);
width = 625;
}
);
script = latin;
subCategory = Uppercase;
unicode = 89;
},
{
category = Letter;
glyphname = Z;
kernLeft = Z;
kernRight = Z;
lastChange = "2024-04-10 07:49:34 +0000";
layers = (
{
anchors = (
{
name = bottom;
pos = (296,0);
},
{
name = center;
pos = (293,357);
},
{
name = top;
pos = (296,714);
},
{
name = topright;
pos = (572,714);
}
);
layerId = "0C4B00F6-5348-41D6-8EE7-AA18FE59D1B1";
shapes = (
{
closed = 1;
nodes = (
(545,0,l),
(550,175,l),
(498,175,l),
(493,132,ls),
(488,88,o),
(470,50,o),
(410,50,cs),
(158,50,l),
(534,673,l),
(534,714,l),
(60,714,l),
(55,539,l),
(107,539,l),
(112,582,ls),
(117,626,o),
(135,664,o),
(194,664,cs),
(411,664,l),
(36,40,l),
(36,0,l)
);
}
);
width = 592;
}
);
script = latin;
subCategory = Uppercase;
unicode = 90;
},
{
category = Letter;
glyphname = a;
kernLeft = a;
kernRight = n;
lastChange = "2024-04-10 07:49:34 +0000";
layers = (
{
anchors = (
{
name = bottom;
pos = (438,0);
},
{
name = center;
pos = (285,268);
},
{
name = top;
pos = (282,536);
},
{
name = topright;
pos = (543,536);
}
);
layerId = "0C4B00F6-5348-41D6-8EE7-AA18FE59D1B1";
shapes = (
{
closed = 1;
nodes = (
(288,-10,o),
(319,30,o),
(361,86,c),
(369,86,l),
(385,0,l),
(520,0,l),
(520,42,l),
(517,42,ls),
(472,42,o),
(455,58,o),
(455,114,cs),
(455,373,ls),
(455,500,o),
(394,546,o),
(272,546,cs),
(173,546,o),
(92,519,o),
(92,450,cs),
(92,404,o),
(121,387,o),
(177,387,c),
(177,450,o),
(191,496,o),
(268,496,cs),
(350,496,o),
(361,445,o),
(361,373,cs),
(361,313,l),
(278,310,ls),
(125,305,o),
(50,256,o),
(50,150,cs),
(50,41,o),
(116,-10,o),
(205,-10,cs)
);
},
{
closed = 1;
nodes = (
(173,52,o),
(147,83,o),
(147,145,cs),
(147,223,o),
(184,264,o),
(297,269,cs),
(361,272,l),
(361,191,l),
(361,106,o),
(309,52,o),
(228,52,cs)
);
}
);
width = 563;
}
);
script = latin;
subCategory = Lowercase;
unicode = 97;
},
{
category = Letter;
glyphname = b;
kernLeft = l;
kernRight = o;
lastChange = "2024-04-10 07:49:34 +0000";
layers = (
{
anchors = (
{
name = bottom;
pos = (307,0);
},
{
name = center;
pos = (288,375);
},
{
name = top;
pos = (153,760);
},
{
name = topright;
pos = (574,760);
}
);
layerId = "0C4B00F6-5348-41D6-8EE7-AA18FE59D1B1";
shapes = (
{
closed = 1;
nodes = (
(487,-10,o),
(559,76,o),
(559,269,c),
(559,461,o),
(487,546,o),
(355,546,cs),
(277,546,o),
(232,507,o),
(202,446,c),
(198,446,l),
(200,468,o),
(202,541,o),
(202,576,cs),
(202,760,l),
(18,760,l),
(18,718,l),
(26,718,ls),
(70,718,o),
(108,709,o),
(108,650,c),
(108,114,ls),
(108,51,o),
(71,42,o),
(26,42,c),
(18,42,l),
(18,0,l),
(178,0,l),
(196,78,l),
(202,78,l),
(231,26,o),
(278,-10,o),
(355,-10,cs)
);
},
{
closed = 1;
nodes = (
(234,54,o),
(202,130,o),
(202,269,cs),
(202,413,o),
(234,482,o),
(338,482,cs),
(427,482,o),
(462,412,o),
(462,270,cs),
(462,130,o),
(427,54,o),
(339,54,cs)
);
}
);
width = 614;
}
);
script = latin;
subCategory = Lowercase;
unicode = 98;
},
{
category = Letter;
glyphname = c;
kernLeft = o;
kernRight = c;
lastChange = "2024-04-10 07:49:34 +0000";
layers = (
{
anchors = (
{
name = bottom;
pos = (266,0);
},
{
name = center;
pos = (254,268);
},
{
name = top;
pos = (279,536);
},
{
name = topright;
pos = (472,536);
}
);
layerId = "0C4B00F6-5348-41D6-8EE7-AA18FE59D1B1";
shapes = (
{
closed = 1;
nodes = (
(396,-10,o),
(453,40,o),
(453,86,cs),
(453,104,o),
(446,117,o),
(436,125,c),
(413,84,o),
(365,55,o),
(303,55,cs),
(196,55,o),
(152,124,o),
(152,266,cs),
(152,445,o),
(201,496,o),
(278,496,cs),
(345,496,o),
(363,444,o),
(363,381,c),
(422,381,o),
(452,398,o),
(452,444,cs),
(452,513,o),
(361,546,o),
(278,546,cs),
(151,546,o),
(55,479,o),
(55,265,cs),
(55,69,o),
(150,-10,o),
(283,-10,cs)
);
}
);
width = 492;
}
);
script = latin;
subCategory = Lowercase;
unicode = 99;
},
{
category = Letter;
glyphname = d;
kernLeft = o;
kernRight = l;
lastChange = "2024-04-10 07:49:34 +0000";
layers = (
{
anchors = (
{
name = bottom;
pos = (307,0);
},
{
name = center;
pos = (307,268);
},
{
name = top;
pos = (447,760);
},
{
name = topright;
pos = (574,760);
}
);
layerId = "0C4B00F6-5348-41D6-8EE7-AA18FE59D1B1";
shapes = (
{
closed = 1;
nodes = (
(337,-10,o),
(382,29,o),
(412,90,c),
(416,90,l),
(427,0,l),
(596,0,l),
(596,42,l),
(588,42,ls),
(544,42,o),
(506,51,o),
(506,110,c),
(506,760,l),
(322,760,l),
(322,718,l),
(330,718,ls),
(374,718,o),
(412,709,o),
(412,650,cs),
(412,568,l),
(412,536,o),
(414,491,o),
(418,458,c),
(412,458,l),
(383,510,o),
(336,546,o),
(259,546,cs),
(127,546,o),
(55,460,o),
(55,267,cs),
(55,75,o),
(127,-10,o),
(259,-10,cs)
);
},
{
closed = 1;
nodes = (
(187,54,o),
(152,124,o),
(152,266,cs),
(152,406,o),
(187,482,o),
(275,482,cs),
(380,482,o),
(412,406,o),
(412,267,cs),
(412,123,o),
(380,54,o),
(276,54,cs)
);
}
);
width = 614;
}
);
script = latin;
subCategory = Lowercase;
unicode = 100;
},
{
category = Letter;
glyphname = e;
kernLeft = o;
kernRight = e;
lastChange = "2024-04-10 07:49:34 +0000";
layers = (
{
anchors = (
{
name = bottom;
pos = (278,0);
},
{
name = center;
pos = (270,268);
},
{
name = top;
pos = (278,536);
},
{
name = topright;
pos = (515,536);
}
);
layerId = "0C4B00F6-5348-41D6-8EE7-AA18FE59D1B1";
shapes = (
{
closed = 1;
nodes = (
(406,-10,o),
(463,49,o),
(463,89,cs),
(463,106,o),
(453,119,o),
(444,123,c),
(420,87,o),
(370,53,o),
(301,53,cs),
(205,53,o),
(155,115,o),
(152,261,c),
(485,261,l),
(485,307,ls),
(485,465,o),
(406,546,o),
(277,546,cs),
(135,546,o),
(55,451,o),
(55,264,cs),
(55,91,o),
(142,-10,o),
(287,-10,cs)
);
},
{
closed = 1;
nodes = (
(154,315,l),
(161,430,o),
(201,492,o),
(275,492,cs),
(355,492,o),
(384,421,o),
(384,315,c)
);
}
);
width = 535;
}
);
script = latin;
subCategory = Lowercase;
unicode = 101;
},
{
category = Letter;
glyphname = f;
kernLeft = f;
kernRight = f;
lastChange = "2024-04-10 07:49:34 +0000";
layers = (
{
anchors = (
{
name = bottom;
pos = (185,0);
},
{
name = center;
pos = (233,385);
},
{
name = top;
pos = (285,770);
},
{
name = topright;
pos = (439,770);
}
);
layerId = "0C4B00F6-5348-41D6-8EE7-AA18FE59D1B1";
shapes = (
{
closed = 1;
nodes = (
(336,0,l),
(336,42,l),
(298,42,l),
(253,42,o),
(216,51,o),
(216,114,cs),
(216,489,l),
(357,489,l),
(357,536,l),
(216,536,l),
(216,595,ls),
(216,679,o),
(234,724,o),
(291,724,cs),
(342,724,o),
(357,684,o),
(357,644,c),
(405,644,o),
(439,664,o),
(439,700,cs),
(439,741,o),
(403,770,o),
(299,770,cs),
(190,770,o),
(122,705,o),
(122,586,cs),
(122,536,l),
(31,536,l),
(31,489,l),
(122,489,l),
(122,114,ls),
(122,51,o),
(85,42,o),
(40,42,cs),
(27,42,l),
(27,0,l)
);
}
);
width = 369;
}
);
script = latin;
subCategory = Lowercase;
unicode = 102;
},
{
category = Letter;
glyphname = g;
kernLeft = o;
lastChange = "2024-04-10 07:49:34 +0000";
layers = (
{
anchors = (
{
name = bottom;
pos = (258,-240);
},
{
name = center;
pos = (274,163);
},
{
name = top;
pos = (258,536);
},
{
name = topright;
pos = (518,536);
}
);
layerId = "0C4B00F6-5348-41D6-8EE7-AA18FE59D1B1";
shapes = (
{
closed = 1;
nodes = (
(412,-240,o),
(496,-168,o),
(496,-53,cs),
(496,33,o),
(450,96,o),
(331,96,cs),
(218,96,ls),
(166,96,o),
(156,110,o),
(156,134,cs),
(156,164,o),
(177,184,o),
(203,197,c),
(216,194,o),
(240,192,o),
(256,192,cs),
(377,192,o),
(436,265,o),
(436,364,cs),
(436,421,o),
(420,457,o),
(397,485,c),
(410,493,o),
(423,497,o),
(440,497,cs),
(467,497,o),
(473,478,o),
(473,463,c),
(510,463,o),
(526,487,o),
(526,515,cs),
(526,543,o),
(507,567,o),
(467,567,cs),
(423,567,o),
(389,534,o),
(370,513,c),
(351,530,o),
(304,546,o),
(256,546,cs),
(130,546,o),
(68,476,o),
(68,361,cs),
(68,294,o),
(101,234,o),
(158,210,c),
(113,183,o),
(93,156,o),
(93,116,cs),
(93,73,o),
(121,46,o),
(148,34,c),
(82,22,o),
(23,-16,o),
(23,-94,cs),
(23,-186,o),
(92,-240,o),
(231,-240,cs)
);
},
{
closed = 1;
nodes = (
(131,-191,o),
(104,-147,o),
(104,-88,cs),
(104,-9,o),
(158,7,o),
(214,7,cs),
(312,7,ls),
(378,7,o),
(414,-9,o),
(414,-70,cs),
(414,-140,o),
(376,-191,o),
(233,-191,cs)
);
},
{
closed = 1;
nodes = (
(189,240,o),
(162,279,o),
(162,364,cs),
(162,453,o),
(188,497,o),
(252,497,cs),
(317,497,o),
(342,455,o),
(342,365,cs),
(342,278,o),
(318,240,o),
(253,240,cs)
);
}
);
width = 538;
}
);
script = latin;
subCategory = Lowercase;
unicode = 103;
},
{
category = Letter;
glyphname = h;
kernLeft = l;
kernRight = n;
lastChange = "2024-04-10 07:49:34 +0000";
layers = (
{
anchors = (
{
name = bottom;
pos = (318,0);
},
{
name = center;
pos = (318,268);
},
{
name = top;
pos = (152,760);
},
{
name = topright;
pos = (545,760);
}
);
layerId = "0C4B00F6-5348-41D6-8EE7-AA18FE59D1B1";
shapes = (
{
closed = 1;
nodes = (
(287,0,l),
(287,42,l),
(284,42,l),
(240,42,o),
(202,50,o),
(202,109,c),
(202,320,ls),
(202,418,o),
(240,482,o),
(323,482,cs),
(404,482,o),
(433,432,o),
(433,345,cs),
(433,0,l),
(607,0,l),
(607,42,l),
(604,42,ls),
(559,42,o),
(527,51,o),
(527,114,cs),
(527,350,ls),
(527,487,o),
(464,546,o),
(350,546,cs),
(282,546,o),
(233,515,o),
(203,455,c),
(198,455,l),
(198,455,o),
(202,504,o),
(202,540,cs),
(202,760,l),
(18,760,l),
(18,718,l),
(26,718,ls),
(70,718,o),
(108,709,o),
(108,650,cs),
(108,114,ls),
(108,51,o),
(71,42,o),
(26,42,cs),
(18,42,l),
(18,0,l)
);
}
);
width = 635;
}
);
script = latin;
subCategory = Lowercase;
unicode = 104;
},
{
category = Letter;
glyphname = i;
kernLeft = i;
kernRight = i;
lastChange = "2024-04-10 07:49:34 +0000";
layers = (
{
anchors = (
{
name = bottom;
pos = (160,0);
},
{
name = center;
pos = (165,380);
},
{
name = top;
pos = (160,760);
},
{
name = topright;
pos = (250,760);
}
);
layerId = "0C4B00F6-5348-41D6-8EE7-AA18FE59D1B1";
shapes = (
{
closed = 1;
nodes = (
(307,0,l),
(307,42,l),
(294,42,ls),
(249,42,o),
(212,51,o),
(212,114,cs),
(212,536,l),
(33,536,l),
(33,494,l),
(36,494,ls),
(80,494,o),
(118,485,o),
(118,426,c),
(118,109,l),
(118,50,o),
(80,42,o),
(36,42,c),
(23,42,l),
(23,0,l)
);
},
{
closed = 1;
nodes = (
(192,636,o),
(218,652,o),
(218,698,cs),
(218,745,o),
(192,760,o),
(161,760,cs),
(129,760,o),
(104,745,o),
(104,698,cs),
(104,652,o),
(129,636,o),
(161,636,cs)
);
}
);
width = 320;
}
);
script = latin;
subCategory = Lowercase;
unicode = 105;
},
{
category = Letter;
glyphname = j;
kernLeft = j;
kernRight = j;
lastChange = "2024-04-10 07:49:34 +0000";
layers = (
{
anchors = (
{
name = bottom;
pos = (82,-240);
},
{
name = center;
pos = (98,260);
},
{
name = top;
pos = (152,760);
},
{
name = topright;
pos = (240,760);
}
);
layerId = "0C4B00F6-5348-41D6-8EE7-AA18FE59D1B1";
shapes = (
{
closed = 1;
nodes = (
(4,-240,l),
(120,-240,o),
(202,-187,o),
(202,-8,cs),
(202,536,l),
(23,536,l),
(23,494,l),
(26,494,ls),
(70,494,o),
(108,485,o),
(108,426,cs),
(108,-9,ls),
(108,-150,o),
(67,-193,o),
(-5,-193,cs),
(-12,-193,l),
(-12,-240,l)
);
},
{
closed = 1;
nodes = (
(182,636,o),
(208,652,o),
(208,698,cs),
(208,745,o),
(182,760,o),
(151,760,cs),
(119,760,o),
(94,745,o),
(94,698,cs),
(94,652,o),
(119,636,o),
(151,636,cs)
);
}
);
width = 300;
}
);
script = latin;
subCategory = Lowercase;
unicode = 106;
},
{
category = Letter;
glyphname = k;
kernLeft = l;
kernRight = k;
lastChange = "2024-04-10 07:49:34 +0000";
layers = (
{
anchors = (
{
name = bottom;
pos = (293,0);
},
{
name = center;
pos = (302,380);
},
{
name = top;
pos = (151,760);
},
{
name = topright;
pos = (455,860);
}
);
layerId = "0C4B00F6-5348-41D6-8EE7-AA18FE59D1B1";
shapes = (
{
closed = 1;
nodes = (
(287,0,l),
(287,42,l),
(284,42,ls),
(240,42,o),
(202,50,o),
(202,109,c),
(202,199,l),
(276,254,l),
(376,97,ls),
(432,9,o),
(456,0,o),
(572,0,c),
(586,0,l),
(586,42,l),
(583,42,ls),
(538,42,o),
(507,71,o),
(472,124,cs),
(339,322,l),
(409,401,l),
(461,460,o),
(504,494,o),
(550,494,c),
(550,536,l),
(329,536,l),
(329,494,l),
(362,494,o),
(378,491,o),
(378,474,c),
(378,455,o),
(366,433,o),
(323,385,c),
(198,248,l),
(198,248,o),
(202,338,o),
(202,374,cs),
(202,760,l),
(18,760,l),
(18,718,l),
(26,718,ls),
(70,718,o),
(108,709,o),
(108,650,cs),
(108,114,ls),
(108,51,o),
(71,42,o),
(26,42,cs),
(18,42,l),
(18,0,l)
);
}
);
width = 585;
}
);
script = latin;
subCategory = Lowercase;
unicode = 107;
},
{
category = Letter;
glyphname = l;
kernLeft = l;
kernRight = l;
lastChange = "2024-04-10 07:49:34 +0000";
layers = (
{
anchors = (
{
name = bottom;
pos = (155,0);
},
{
name = center;
pos = (155,268);
},
{
name = top;
pos = (155,760);
},
{
name = topright;
pos = (240,760);
}
);
layerId = "0C4B00F6-5348-41D6-8EE7-AA18FE59D1B1";
shapes = (
{
closed = 1;
nodes = (
(297,0,l),
(297,42,l),
(284,42,ls),
(239,42,o),
(202,51,o),
(202,114,cs),
(202,760,l),
(13,760,l),
(13,718,l),
(26,718,ls),
(70,718,o),
(108,709,o),
(108,650,cs),
(108,114,ls),
(108,51,o),
(71,42,o),
(26,42,c),
(13,42,l),
(13,0,l)
);
}
);
width = 310;
}
);
script = latin;
subCategory = Lowercase;
unicode = 108;
},
{
category = Letter;
glyphname = m;
kernLeft = n;
kernRight = n;
lastChange = "2024-04-10 07:49:34 +0000";
layers = (
{
anchors = (
{
name = bottom;
pos = (512,0);
},
{
name = center;
pos = (472,273);
},
{
name = top;
pos = (491,536);
},
{
name = topright;
pos = (895,536);
}
);
layerId = "0C4B00F6-5348-41D6-8EE7-AA18FE59D1B1";
shapes = (
{
closed = 1;
nodes = (
(297,0,l),
(297,42,l),
(294,42,l),
(250,42,o),
(212,50,o),
(212,109,cs),
(212,320,ls),
(212,406,o),
(241,482,o),
(328,482,cs),
(405,482,o),
(433,432,o),
(433,345,cs),
(433,0,l),
(607,0,l),
(607,42,l),
(604,42,ls),
(559,42,o),
(527,51,o),
(527,114,cs),
(527,333,ls),
(527,413,o),
(555,482,o),
(638,482,cs),
(715,482,o),
(743,432,o),
(743,345,cs),
(743,0,l),
(917,0,l),
(917,42,l),
(914,42,ls),
(869,42,o),
(837,51,o),
(837,114,cs),
(837,350,ls),
(837,487,o),
(776,546,o),
(674,546,cs),
(612,546,o),
(557,530,o),
(517,455,c),
(509,455,l),
(484,522,o),
(428,546,o),
(364,546,cs),
(302,546,o),
(253,530,o),
(213,455,c),
(208,455,l),
(195,536,l),
(38,536,l),
(38,494,l),
(41,494,ls),
(85,494,o),
(118,485,o),
(118,426,cs),
(118,114,ls),
(118,51,o),
(86,42,o),
(41,42,cs),
(28,42,l),
(28,0,l)
);
}
);
width = 945;
}
);
script = latin;
subCategory = Lowercase;
unicode = 109;
},
{
category = Letter;
glyphname = n;
kernLeft = n;
kernRight = n;
lastChange = "2024-04-10 07:49:34 +0000";
layers = (
{
anchors = (
{
name = bottom;
pos = (344,0);
},
{
name = center;
pos = (322,273);
},
{
name = top;
pos = (344,536);
},
{
name = topright;
pos = (585,536);
}
);
layerId = "0C4B00F6-5348-41D6-8EE7-AA18FE59D1B1";
shapes = (
{
closed = 1;
nodes = (
(297,0,l),
(297,42,l),
(292,42,l),
(248,42,o),
(212,50,o),
(212,109,c),
(212,320,ls),
(212,406,o),
(242,482,o),
(333,482,cs),
(414,482,o),
(443,432,o),
(443,345,cs),
(443,0,l),
(617,0,l),
(617,42,l),
(612,42,ls),
(567,42,o),
(537,51,o),
(537,114,cs),
(537,350,ls),
(537,487,o),
(474,546,o),
(369,546,cs),
(305,546,o),
(254,530,o),
(213,455,c),
(208,455,l),
(195,536,l),
(33,536,l),
(33,494,l),
(38,494,ls),
(82,494,o),
(118,485,o),
(118,426,c),
(118,114,ls),
(118,51,o),
(81,42,o),
(36,42,cs),
(28,42,l),
(28,0,l)
);
}
);
width = 645;
}
);
script = latin;
subCategory = Lowercase;
unicode = 110;
},
{
category = Letter;
glyphname = o;
kernLeft = o;
kernRight = o;
lastChange = "2024-04-10 07:49:34 +0000";
layers = (
{
anchors = (
{
name = bottom;
pos = (289,0);
},
{
name = center;
pos = (289,268);
},
{
name = top;
pos = (289,536);
},
{
name = topright;
pos = (557,536);
}
);
layerId = "0C4B00F6-5348-41D6-8EE7-AA18FE59D1B1";
shapes = (
{
closed = 1;
nodes = (
(441,-10,o),
(522,81,o),
(522,269,cs),
(522,456,o),
(434,546,o),
(290,546,cs),
(135,546,o),
(55,456,o),
(55,269,cs),
(55,81,o),
(143,-10,o),
(287,-10,cs)
);
},
{
closed = 1;
nodes = (
(189,42,o),
(152,120,o),
(152,269,cs),
(152,418,o),
(188,493,o),
(288,493,cs),
(388,493,o),
(425,418,o),
(425,269,cs),
(425,120,o),
(389,42,o),
(289,42,cs)
);
}
);
width = 577;
}
);
script = latin;
subCategory = Lowercase;
unicode = 111;
},
{
category = Letter;
glyphname = p;
kernLeft = n;
kernRight = o;
lastChange = "2024-04-10 07:49:34 +0000";
layers = (
{
anchors = (
{
name = bottom;
pos = (157,-240);
},
{
name = center;
pos = (286,153);
},
{
name = top;
pos = (307,536);
},
{
name = topright;
pos = (594,536);
}
);
layerId = "0C4B00F6-5348-41D6-8EE7-AA18FE59D1B1";
shapes = (
{
closed = 1;
nodes = (
(287,-240,l),
(287,-198,l),
(284,-198,ls),
(240,-198,o),
(202,-190,o),
(202,-131,c),
(202,-35,ls),
(202,-10,o),
(201,39,o),
(198,78,c),
(202,78,l),
(231,26,o),
(278,-10,o),
(355,-10,cs),
(487,-10,o),
(559,76,o),
(559,269,c),
(559,461,o),
(487,546,o),
(355,546,cs),
(277,546,o),
(232,507,o),
(202,446,c),
(198,446,l),
(188,536,l),
(13,536,l),
(13,494,l),
(26,494,ls),
(70,494,o),
(108,485,o),
(108,426,c),
(108,-126,ls),
(108,-189,o),
(71,-198,o),
(26,-198,cs),
(18,-198,l),
(18,-240,l)
);
},
{
closed = 1;
nodes = (
(234,54,o),
(202,130,o),
(202,269,cs),
(202,413,o),
(234,482,o),
(338,482,cs),
(427,482,o),
(462,412,o),
(462,270,cs),
(462,130,o),
(427,54,o),
(339,54,cs)
);
}
);
width = 614;
}
);
script = latin;
subCategory = Lowercase;
unicode = 112;
},
{
category = Letter;
glyphname = q;
kernLeft = o;
lastChange = "2024-04-10 07:49:34 +0000";
layers = (
{
anchors = (
{
name = bottom;
pos = (466,-240);
},
{
name = center;
pos = (325,153);
},
{
name = top;
pos = (307,536);
},
{
name = topright;
pos = (604,536);
}
);
layerId = "0C4B00F6-5348-41D6-8EE7-AA18FE59D1B1";
shapes = (
{
closed = 1;
nodes = (
(596,-240,l),
(596,-198,l),
(588,-198,ls),
(544,-198,o),
(506,-189,o),
(506,-130,cs),
(506,422,ls),
(506,485,o),
(543,494,o),
(588,494,cs),
(596,494,l),
(596,536,l),
(436,536,l),
(418,458,l),
(412,458,l),
(383,510,o),
(336,546,o),
(259,546,cs),
(127,546,o),
(55,460,o),
(55,267,cs),
(55,75,o),
(127,-10,o),
(259,-10,cs),
(337,-10,o),
(382,29,o),
(412,90,c),
(416,90,l),
(413,59,o),
(412,-9,o),
(412,-40,cs),
(412,-126,ls),
(412,-189,o),
(375,-198,o),
(330,-198,c),
(297,-198,l),
(297,-240,l)
);
},
{
closed = 1;
nodes = (
(187,54,o),
(152,124,o),
(152,266,cs),
(152,406,o),
(187,482,o),
(275,482,cs),
(380,482,o),
(412,406,o),
(412,267,cs),
(412,123,o),
(380,54,o),
(276,54,cs)
);
}
);
width = 614;
}
);
script = latin;
subCategory = Lowercase;
unicode = 113;
},
{
category = Letter;
glyphname = r;
kernLeft = n;
kernRight = r;
lastChange = "2024-04-10 07:49:34 +0000";
layers = (
{
anchors = (
{
name = bottom;
pos = (166,0);
},
{
name = center;
pos = (244,273);
},
{
name = top;
pos = (246,536);
},
{
name = topright;
pos = (451,536);
}
);
layerId = "0C4B00F6-5348-41D6-8EE7-AA18FE59D1B1";
shapes = (
{
closed = 1;
nodes = (
(322,0,l),
(322,42,l),
(294,42,ls),
(250,42,o),
(212,50,o),
(212,109,c),
(212,266,ls),
(212,343,o),
(235,480,o),
(310,480,cs),
(349,480,o),
(363,457,o),
(363,402,c),
(430,402,o),
(456,431,o),
(456,473,cs),
(456,519,o),
(421,546,o),
(348,546,cs),
(260,546,o),
(237,497,o),
(211,437,c),
(206,437,l),
(187,536,l),
(33,536,l),
(33,494,l),
(36,494,ls),
(80,494,o),
(118,485,o),
(118,426,c),
(118,114,ls),
(118,51,o),
(81,42,o),
(36,42,cs),
(33,42,l),
(33,0,l)
);
}
);
width = 471;
}
);
script = latin;
subCategory = Lowercase;
unicode = 114;
},
{
category = Letter;
glyphname = s;
kernLeft = s;
kernRight = s;
lastChange = "2024-04-10 07:49:34 +0000";
layers = (
{
anchors = (
{
name = bottom;
pos = (226,0);
},
{
name = center;
pos = (226,267);
},
{
name = top;
pos = (226,536);
},
{
name = topright;
pos = (411,536);
}
);
layerId = "0C4B00F6-5348-41D6-8EE7-AA18FE59D1B1";
shapes = (
{
closed = 1;
nodes = (
(328,-10,o),
(407,43,o),
(407,147,cs),
(407,231,o),
(362,269,o),
(257,313,cs),
(168,349,o),
(133,368,o),
(133,419,cs),
(133,466,o),
(160,499,o),
(228,499,cs),
(287,499,o),
(314,460,o),
(314,393,c),
(360,393,o),
(386,417,o),
(386,453,cs),
(386,503,o),
(336,545,o),
(240,545,cs),
(127,545,o),
(52,495,o),
(52,404,cs),
(52,317,o),
(100,283,o),
(203,238,cs),
(300,196,o),
(326,178,o),
(326,129,cs),
(326,75,o),
(287,38,o),
(216,38,cs),
(135,38,o),
(108,95,o),
(108,165,c),
(84,165,o),
(45,150,o),
(45,96,cs),
(45,26,o),
(110,-10,o),
(210,-10,cs)
);
}
);
width = 451;
}
);
script = latin;
subCategory = Lowercase;
unicode = 115;
},
{
category = Letter;
glyphname = t;
kernLeft = t;
kernRight = t;
lastChange = "2024-04-10 07:49:34 +0000";
layers = (
{
anchors = (
{
name = bottom;
pos = (216,0);
},
{
name = center;
pos = (156,268);
},
{
name = top;
pos = (166,659);
},
{
name = topright;
pos = (208,980);
}
);
layerId = "0C4B00F6-5348-41D6-8EE7-AA18FE59D1B1";
shapes = (
{
closed = 1;
nodes = (
(272,-10,o),
(312,-2,o),
(329,6,c),
(329,50,l),
(308,46,o),
(289,43,o),
(265,43,cs),
(219,43,o),
(189,74,o),
(189,142,cs),
(189,479,l),
(320,479,l),
(320,536,l),
(189,536,l),
(189,659,l),
(143,659,l),
(133,608,o),
(120,575,o),
(97,551,cs),
(75,528,o),
(43,519,o),
(19,519,c),
(19,479,l),
(95,479,l),
(95,145,ls),
(95,30,o),
(139,-10,o),
(240,-10,cs)
);
}
);
width = 352;
}
);
script = latin;
subCategory = Lowercase;
unicode = 116;
},
{
category = Letter;
glyphname = u;
kernLeft = u;
kernRight = u;
lastChange = "2024-04-10 07:49:34 +0000";
layers = (
{
anchors = (
{
name = bottom;
pos = (530,0);
},
{
name = center;
pos = (317,263);
},
{
name = top;
pos = (308,536);
},
{
name = topright;
pos = (595,536);
}
);
layerId = "0C4B00F6-5348-41D6-8EE7-AA18FE59D1B1";
shapes = (
{
closed = 1;
nodes = (
(338,-10,o),
(394,6,o),
(435,81,c),
(440,81,l),
(453,0,l),
(612,0,l),
(612,42,l),
(609,42,ls),
(565,42,o),
(527,50,o),
(527,109,cs),
(527,536,l),
(348,536,l),
(348,494,l),
(351,494,ls),
(396,494,o),
(433,485,o),
(433,422,cs),
(433,216,l),
(433,119,o),
(395,54,o),
(307,54,cs),
(226,54,o),
(202,104,o),
(202,191,cs),
(202,536,l),
(23,536,l),
(23,494,l),
(26,494,ls),
(70,494,o),
(108,485,o),
(108,426,cs),
(108,186,ls),
(108,49,o),
(167,-10,o),
(273,-10,cs)
);
}
);
width = 635;
}
);
script = latin;
subCategory = Lowercase;
unicode = 117;
},
{
category = Letter;
glyphname = v;
lastChange = "2024-04-10 07:49:34 +0000";
layers = (
{
anchors = (
{
name = bottom;
pos = (290,0);
},
{
name = center;
pos = (290,268);
},
{
name = top;
pos = (300,536);
},
{
name = topright;
pos = (569,536);
}
);
layerId = "0C4B00F6-5348-41D6-8EE7-AA18FE59D1B1";
shapes = (
{
closed = 1;
nodes = (
(239,0,l),
(330,0,l),
(488,416,ls),
(512,480,o),
(525,494,o),
(564,494,cs),
(576,494,l),
(576,536,l),
(362,536,l),
(362,494,l),
(369,494,ls),
(413,494,o),
(435,479,o),
(435,445,cs),
(435,434,o),
(432,418,o),
(426,402,cs),
(354,207,ls),
(336,159,o),
(311,98,o),
(304,70,c),
(294,105,o),
(275,171,o),
(257,220,cs),
(189,409,ls),
(184,424,o),
(181,435,o),
(181,446,cs),
(181,479,o),
(201,494,o),
(241,494,cs),
(254,494,l),
(254,536,l),
(4,536,l),
(4,494,l),
(46,494,o),
(63,483,o),
(78,441,c)
);
}
);
width = 579;
}
);
script = latin;
subCategory = Lowercase;
unicode = 118;
},
{
category = Letter;
glyphname = w;
kernLeft = w;
kernRight = w;
lastChange = "2024-04-10 07:49:34 +0000";
layers = (
{
anchors = (
{
name = bottom;
pos = (431,0);
},
{
name = center;
pos = (431,268);
},
{
name = top;
pos = (431,536);
},
{
name = topright;
pos = (852,536);
}
);
layerId = "0C4B00F6-5348-41D6-8EE7-AA18FE59D1B1";
shapes = (
{
closed = 1;
nodes = (
(206,0,l),
(285,0,l),
(427,418,l),
(564,0,l),
(644,0,l),
(773,416,ls),
(793,482,o),
(809,494,o),
(848,494,cs),
(861,494,l),
(861,536,l),
(647,536,l),
(647,494,l),
(654,494,ls),
(698,494,o),
(720,479,o),
(720,445,cs),
(720,434,o),
(716,412,o),
(711,395,cs),
(661,234,ls),
(641,170,o),
(628,121,o),
(622,88,c),
(619,88,l),
(613,121,o),
(592,189,o),
(576,237,cs),
(476,533,l),
(413,533,l),
(309,231,ls),
(292,182,o),
(274,121,o),
(268,88,c),
(265,88,l),
(259,121,o),
(243,193,o),
(230,241,c),
(183,409,ls),
(179,424,o),
(175,441,o),
(175,452,cs),
(175,485,o),
(195,494,o),
(235,494,cs),
(248,494,l),
(248,536,l),
(1,536,l),
(1,494,l),
(4,494,ls),
(43,494,o),
(60,483,o),
(75,441,c)
);
}
);
width = 862;
}
);
script = latin;
subCategory = Lowercase;
unicode = 119;
},
{
category = Letter;
glyphname = x;
kernLeft = x;
lastChange = "2024-04-10 07:49:34 +0000";
layers = (
{
anchors = (
{
name = bottom;
pos = (289,0);
},
{
name = center;
pos = (289,268);
},
{
name = top;
pos = (289,536);
},
{
name = topright;
pos = (558,536);
}
);
layerId = "0C4B00F6-5348-41D6-8EE7-AA18FE59D1B1";
shapes = (
{
closed = 1;
nodes = (
(243,0,l),
(243,42,l),
(240,42,ls),
(196,42,o),
(178,51,o),
(178,73,cs),
(178,94,o),
(193,120,o),
(205,136,cs),
(275,234,l),
(342,144,ls),
(373,102,o),
(380,90,o),
(380,75,cs),
(380,53,o),
(360,42,o),
(320,42,cs),
(315,42,l),
(315,0,l),
(573,0,l),
(573,42,l),
(560,42,ls),
(535,42,o),
(509,56,o),
(480,95,cs),
(333,293,l),
(436,430,ls),
(476,484,o),
(498,494,o),
(537,494,cs),
(546,494,l),
(546,536,l),
(327,536,l),
(327,494,l),
(330,494,ls),
(361,494,o),
(384,489,o),
(384,465,cs),
(384,447,o),
(374,427,o),
(359,404,cs),
(307,329,l),
(241,419,ls),
(226,440,o),
(218,451,o),
(218,465,cs),
(218,481,o),
(229,494,o),
(275,494,cs),
(278,494,l),
(278,536,l),
(24,536,l),
(24,494,l),
(37,494,ls),
(67,494,o),
(94,475,o),
(123,441,c),
(249,269,l),
(123,106,ls),
(84,56,o),
(62,42,o),
(14,42,cs),
(5,42,l),
(5,0,l)
);
}
);
width = 578;
}
);
script = latin;
subCategory = Lowercase;
unicode = 120;
},
{
category = Letter;
glyphname = y;
kernLeft = y;
kernRight = y;
lastChange = "2024-04-10 07:49:34 +0000";
layers = (
{
anchors = (
{
name = bottom;
pos = (143,-240);
},
{
name = center;
pos = (284,148);
},
{
name = top;
pos = (303,536);
},
{
name = topright;
pos = (545,536);
}
);
layerId = "0C4B00F6-5348-41D6-8EE7-AA18FE59D1B1";
shapes = (
{
closed = 1;
nodes = (
(38,-240,l),
(47,-240,ls),
(224,-240,o),
(264,-198,o),
(334,-4,c),
(486,416,ls),
(509,480,o),
(523,494,o),
(562,494,cs),
(565,494,l),
(565,536,l),
(357,536,l),
(357,494,l),
(360,494,l),
(404,494,o),
(426,479,o),
(426,445,cs),
(426,434,o),
(423,418,o),
(417,402,cs),
(350,207,l),
(336,167,o),
(319,124,o),
(310,86,c),
(304,119,o),
(281,185,o),
(262,231,cs),
(189,409,ls),
(183,424,o),
(181,435,o),
(181,446,cs),
(181,479,o),
(201,494,o),
(241,494,c),
(244,494,l),
(244,536,l),
(4,536,l),
(4,494,l),
(7,494,ls),
(46,494,o),
(60,482,o),
(78,441,c),
(263,4,l),
(230,-108,o),
(173,-193,o),
(38,-193,c)
);
}
);
width = 565;
}
);
script = latin;
subCategory = Lowercase;
unicode = 121;
},
{
category = Letter;
glyphname = z;
kernLeft = z;
kernRight = z;
lastChange = "2024-04-10 07:49:34 +0000";
layers = (
{
anchors = (
{
name = bottom;
pos = (256,0);
},
{
name = center;
pos = (248,268);
},
{
name = top;
pos = (256,536);
},
{
name = topright;
pos = (471,536);
}
);
layerId = "0C4B00F6-5348-41D6-8EE7-AA18FE59D1B1";
shapes = (
{
closed = 1;
nodes = (
(450,0,l),
(455,162,l),
(413,162,l),
(408,139,ls),
(399,96,o),
(386,57,o),
(340,57,cs),
(158,57,l),
(449,495,l),
(449,536,l),
(66,536,l),
(56,394,l),
(98,394,l),
(99,398,ls),
(113,451,o),
(123,479,o),
(176,479,cs),
(332,479,l),
(42,40,l),
(42,0,l)
);
}
);
width = 511;
}
);
script = latin;
subCategory = Lowercase;
unicode = 122;
},
{
glyphname = "a-divesakuru";
lastChange = "2024-05-14 13:57:52 +0000";
layers = (
{
background = {
shapes = (
{
closed = 1;
nodes = (
(4490,133,o),
(4443,83,o),
(4384,83,cs),
(4316,83,o),
(4271,148,o),
(4257,282,c),
(4153,271,l),
(4180,115,o),
(4139,45,o),
(4073,45,cs),
(4014,45,o),
(3978,102,o),
(3978,168,cs),
(3978,412,o),
(4463,712,o),
(4608,712,cs),
(4667,712,o),
(4695,681,o),
(4695,651,cs),
(4695,603,o),
(4650,564,o),
(4558,532,c),
(4569,496,l),
(4714,533,o),
(4807,606,o),
(4807,680,cs),
(4807,745,o),
(4754,780,o),
(4663,780,cs),
(4388,780,o),
(3860,394,o),
(3860,151,cs),
(3860,62,o),
(3929,-15,o),
(4041,-15,cs),
(4152,-15,o),
(4207,50,o),
(4233,128,c),
(4188,172,l),
(4211,81,o),
(4286,23,o),
(4377,23,cs),
(4501,23,o),
(4607,95,o),
(4608,245,cs),
(4611,643,o),
(3598,1068,o),
(2664,1068,cs),
(1758,1068,o),
(802,732,o),
(799,288,cs),
(798,172,o),
(866,91,o),
(955,58,c),
(992,90,l),
(459,33,l),
(503,17,l),
(637,102,o),
(688,205,o),
(688,288,cs),
(688,397,o),
(592,497,o),
(424,497,cs),
(236,497,o),
(60,373,o),
(60,248,cs),
(60,178,o),
(109,135,o),
(177,135,cs),
(255,136,o),
(319,193,o),
(319,252,cs),
(318,312,o),
(249,359,o),
(154,329,c,{
"Letterink-NibData" = {
AngleInDegrees = "360";
};
}),
(181,298,l),
(207,376,o),
(292,432,o),
(390,432,cs),
(493,432,o),
(570,371,o),
(570,268,cs),
(570,169,o),
(499,87,o),
(370,-1,c),
(382,-38,l),
(1093,43,l),
(1093,80,l),
(986,116,o),
(912,195,o),
(911,306,cs),
(912,702,o),
(1812,1009,o),
(2644,1009,cs),
(3558,1009,o),
(4499,608,o),
(4490,219,cs)
);
}
);
};
backgroundImage = {
imagePath = "../../../../Library/CloudStorage/GoogleDrive-fernando.de-moraes-caro@mail.ensa-nancy.fr/Other computers/My MacBook Air/ANRT/Other/Work/Noto/2_Research/1_Character samples/Simple characters/Document 32/Samples/a_D32_239.jpg";
pos = (-387,-714);
scale = (70,70);
slant = (-3.1,0);
};
guides = (
{
angle = 186.4269;
pos = (3546,-74);
}
);
layerId = "0C4B00F6-5348-41D6-8EE7-AA18FE59D1B1";
shapes = (
{
closed = 1;
nodes = (
(4490,133,o),
(4443,83,o),
(4384,83,cs),
(4316,83,o),
(4271,148,o),
(4257,282,c),
(4153,271,l),
(4180,115,o),
(4139,45,o),
(4073,45,cs),
(4014,45,o),
(3978,102,o),
(3978,168,cs),
(3978,412,o),
(4457,712,o),
(4613,712,cs),
(4664,712,o),
(4695,686,o),
(4695,649,cs),
(4695,603,o),
(4650,564,o),
(4558,532,c),
(4569,496,l),
(4714,533,o),
(4807,606,o),
(4807,680,cs),
(4807,745,o),
(4754,780,o),
(4663,780,cs),
(4388,780,o),
(3860,394,o),
(3860,151,cs),
(3860,62,o),
(3929,-15,o),
(4041,-15,cs),
(4152,-15,o),
(4207,50,o),
(4233,128,c),
(4188,172,l),
(4211,81,o),
(4286,23,o),
(4377,23,cs),
(4501,23,o),
(4607,95,o),
(4608,245,cs),
(4611,643,o),
(3598,1068,o),
(2664,1068,cs),
(1758,1068,o),
(802,732,o),
(799,288,cs),
(798,172,o),
(866,91,o),
(955,58,c),
(992,90,l),
(459,33,l),
(503,17,l),
(637,102,o),
(688,205,o),
(688,288,cs),
(688,397,o),
(592,497,o),
(424,497,cs),
(236,497,o),
(60,373,o),
(60,248,cs),
(60,178,o),
(109,135,o),
(177,135,cs),
(255,136,o),
(319,193,o),
(319,252,cs),
(318,312,o),
(249,359,o),
(154,329,c,{
"Letterink-NibData" = {
AngleInDegrees = "360";
};
}),
(181,298,l),
(207,376,o),
(292,432,o),
(390,432,cs),
(493,432,o),
(570,371,o),
(570,268,cs),
(570,169,o),
(499,87,o),
(370,-1,c),
(382,-38,l),
(1093,43,l),
(1093,80,l),
(986,116,o),
(912,195,o),
(911,306,cs),
(912,702,o),
(1812,1009,o),
(2644,1009,cs),
(3558,1009,o),
(4499,608,o),
(4490,219,cs)
);
}
);
width = 4707;
},
{
associatedMasterId = "0C4B00F6-5348-41D6-8EE7-AA18FE59D1B1";
backgroundImage = {
imagePath = "../../../../Library/CloudStorage/GoogleDrive-fernando.de-moraes-caro@mail.ensa-nancy.fr/Other computers/My MacBook Air/ANRT/Other/Work/Noto/2_Research/1_Character samples/Simple characters/Document 32/Samples/a_D32_239.jpg";
locked = 1;
pos = (-112,-754);
scale = (70,70);
};
layerId = "77B81861-8C7F-4DE7-9F68-C61C5E641B22";
name = "May 2, 24 at 11:45";
shapes = (
{
closed = 1;
nodes = (
(581,237,o),
(576,174,o),
(576,131,cs),
(576,88,o),
(495,-32,o),
(296,-32,cs),
(187,-32,o),
(131,68,o),
(131,132,cs),
(131,289,o),
(430,440,o),
(720,440,cs),
(888,440,o),
(1004,346,o),
(1004,208,cs),
(1004,147,o),
(939,38,o),
(841,-20,c),
(833,35,l),
(1266,83,l),
(1248,54,l),
(1151,110,o),
(1063,225,o),
(1063,303,cs),
(1063,732,o),
(2343,1047,o),
(3228,1047,cs),
(4282,1047,o),
(4984,633,o),
(4984,231,cs),
(4984,98,o),
(4852,0,o),
(4716,0,cs),
(4631,0,o),
(4550,45,o),
(4522,103,c),
(4609,111,l),
(4606,0,o),
(4470,-66,o),
(4347,-66,cs),
(4197,-66,o),
(4132,37,o),
(4132,120,cs),
(4132,366,o),
(4674,845,o),
(5118,845,cs),
(5188,845,o),
(5244,798,o),
(5244,723,cs),
(5244,654,o),
(5128,521,o),
(4886,521,c),
(4876,548,l),
(4998,594,o),
(5033,675,o),
(5033,697,cs),
(5033,708,o),
(5024,716,o),
(5012,716,cs),
(4801,716,o),
(4347,371,o),
(4347,163,cs),
(4347,126,o),
(4361,68,o),
(4390,68,cs),
(4418,68,o),
(4445,126,o),
(4435,285,c),
(4623,310,l),
(4626,237,o),
(4665,138,o),
(4714,138,cs),
(4763,138,o),
(4771,191,o),
(4771,232,cs),
(4771,557,o),
(4262,942,o),
(3185,942,cs),
(2300,942,o),
(1288,692,o),
(1288,358,cs),
(1288,246,o),
(1392,150,o),
(1529,114,c),
(1529,61,l),
(525,-106,l),
(507,-61,l),
(642,-18,o),
(791,40,o),
(791,195,cs),
(791,287,o),
(725,318,o),
(629,318,cs),
(583,318,o),
(516,283,o),
(464,228,c),
(446,326,l)
);
}
);
width = 5467;
},
{
associatedMasterId = "0C4B00F6-5348-41D6-8EE7-AA18FE59D1B1";
background = {
shapes = (
{
closed = 1;
nodes = (
(581,237,o),
(576,174,o),
(576,131,cs),
(576,88,o),
(495,-32,o),
(296,-32,cs),
(187,-32,o),
(131,68,o),
(131,132,cs),
(131,289,o),
(430,440,o),
(720,440,cs),
(888,440,o),
(1004,346,o),
(1004,208,cs),
(1004,147,o),
(939,38,o),
(841,-20,c),
(833,35,l),
(1266,83,l),
(1248,54,l),
(1151,110,o),
(1063,225,o),
(1063,303,cs),
(1063,732,o),
(2343,1047,o),
(3228,1047,cs),
(4282,1047,o),
(4984,633,o),
(4984,231,cs),
(4984,98,o),
(4852,0,o),
(4716,0,cs),
(4631,0,o),
(4550,45,o),
(4522,103,c),
(4609,111,l),
(4606,0,o),
(4470,-66,o),
(4347,-66,cs),
(4197,-66,o),
(4132,37,o),
(4132,120,cs),
(4132,366,o),
(4674,845,o),
(5118,845,cs),
(5188,845,o),
(5244,798,o),
(5244,723,cs),
(5244,654,o),
(5128,521,o),
(4886,521,c),
(4876,548,l),
(4998,594,o),
(5033,675,o),
(5033,697,cs),
(5033,708,o),
(5024,716,o),
(5012,716,cs),
(4801,716,o),
(4347,371,o),
(4347,163,cs),
(4347,126,o),
(4361,68,o),
(4390,68,cs),
(4418,68,o),
(4445,126,o),
(4435,285,c),
(4623,310,l),
(4626,237,o),
(4665,138,o),
(4714,138,cs),
(4763,138,o),
(4771,191,o),
(4771,232,cs),
(4771,557,o),
(4262,942,o),
(3185,942,cs),
(2300,942,o),
(1288,692,o),
(1288,358,cs),
(1288,246,o),
(1392,150,o),
(1529,114,c),
(1529,61,l),
(525,-106,l),
(507,-61,l),
(642,-18,o),
(791,40,o),
(791,195,cs),
(791,287,o),
(725,318,o),
(629,318,cs),
(583,318,o),
(516,283,o),
(464,228,c),
(446,326,l)
);
}
);
};
backgroundImage = {
imagePath = "../../../../Library/CloudStorage/GoogleDrive-fernando.de-moraes-caro@mail.ensa-nancy.fr/Other computers/My MacBook Air/ANRT/Other/Work/Noto/2_Research/1_Character samples/Simple characters/Document 32/Samples/a_D32_239.jpg";
locked = 1;
pos = (-112,-754);
scale = (70,70);
};
layerId = "0788B8E8-6DFB-4E6B-94D3-C69168BAC4AD";
name = "May 2, 24 at 12:01";
shapes = (
{
closed = 1;
nodes = (
(544,273,o),
(576,199,o),
(576,147,cs),
(576,78,o),
(475,-32,o),
(314,-32,cs),
(167,-32,o),
(131,66,o),
(131,127,cs),
(131,297,o),
(440,440,o),
(696,440,cs),
(898,440,o),
(1004,336,o),
(1004,222,cs),
(1004,137,o),
(939,38,o),
(841,-20,c),
(816,33,l),
(1260,106,l),
(1277,68,l),
(1153,113,o),
(1074,214,o),
(1074,307,cs),
(1074,722,o),
(2308,1047,o),
(3235,1047,cs),
(4282,1047,o),
(4984,633,o),
(4984,255,cs),
(4984,98,o),
(4843,0,o),
(4680,0,cs),
(4586,0,o),
(4520,52,o),
(4490,118,c),
(4577,126,l),
(4574,6,o),
(4455,-66,o),
(4331,-66,cs),
(4197,-66,o),
(4132,17,o),
(4132,105,cs),
(4132,359,o),
(4674,845,o),
(5065,845,cs),
(5188,845,o),
(5244,798,o),
(5244,739,cs),
(5244,654,o),
(5136,548,o),
(4886,521,c),
(4876,557,l),
(4998,612,o),
(5033,657,o),
(5033,709,cs),
(5033,739,o),
(5008,756,o),
(4960,756,cs),
(4752,756,o),
(4347,439,o),
(4347,167,cs),
(4347,71,o),
(4369,23,o),
(4398,23,cs),
(4439,23,o),
(4446,111,o),
(4435,285,c),
(4623,310,l),
(4629,175,o),
(4666,93,o),
(4712,93,cs),
(4752,93,o),
(4771,146,o),
(4771,211,cs),
(4771,557,o),
(4242,958,o),
(3199,958,cs),
(2350,958,o),
(1288,692,o),
(1288,354,cs),
(1288,246,o),
(1392,150,o),
(1529,114,c),
(1529,61,l),
(525,-106,l),
(507,-61,l),
(642,-14,o),
(791,49,o),
(791,210,cs),
(791,302,o),
(725,351,o),
(656,351,cs),
(583,351,o),
(516,313,o),
(453,258,c),
(429,300,l)
);
}
);
width = 5467;
},
{
associatedMasterId = "0C4B00F6-5348-41D6-8EE7-AA18FE59D1B1";
background = {
shapes = (
{
closed = 1;
nodes = (
(544,273,o),
(576,199,o),
(576,147,cs),
(576,78,o),
(475,-32,o),
(314,-32,cs),
(167,-32,o),
(131,66,o),
(131,127,cs),
(131,297,o),
(440,440,o),
(696,440,cs),
(898,440,o),
(1004,336,o),
(1004,222,cs),
(1004,137,o),
(939,38,o),
(841,-20,c),
(816,33,l),
(1260,106,l),
(1277,68,l),
(1153,113,o),
(1074,214,o),
(1074,307,cs),
(1074,722,o),
(2308,1047,o),
(3235,1047,cs),
(4282,1047,o),
(4984,633,o),
(4984,255,cs),
(4984,98,o),
(4843,0,o),
(4680,0,cs),
(4586,0,o),
(4520,52,o),
(4490,118,c),
(4577,126,l),
(4574,6,o),
(4455,-66,o),
(4331,-66,cs),
(4197,-66,o),
(4132,17,o),
(4132,105,cs),
(4132,359,o),
(4674,845,o),
(5065,845,cs),
(5188,845,o),
(5244,798,o),
(5244,739,cs),
(5244,654,o),
(5136,548,o),
(4886,521,c),
(4876,557,l),
(4998,612,o),
(5033,657,o),
(5033,709,cs),
(5033,739,o),
(5008,756,o),
(4960,756,cs),
(4752,756,o),
(4347,439,o),
(4347,167,cs),
(4347,71,o),
(4369,23,o),
(4398,23,cs),
(4439,23,o),
(4446,111,o),
(4435,285,c),
(4623,310,l),
(4629,175,o),
(4666,93,o),
(4712,93,cs),
(4752,93,o),
(4771,146,o),
(4771,211,cs),
(4771,557,o),
(4242,958,o),
(3199,958,cs),
(2350,958,o),
(1288,692,o),
(1288,354,cs),
(1288,246,o),
(1392,150,o),
(1529,114,c),
(1529,61,l),
(525,-106,l),
(507,-61,l),
(642,-14,o),
(791,49,o),
(791,210,cs),
(791,302,o),
(725,351,o),
(656,351,cs),
(583,351,o),
(516,313,o),
(453,258,c),
(429,300,l)
);
}
);
};
backgroundImage = {
imagePath = "../../../../Library/CloudStorage/GoogleDrive-fernando.de-moraes-caro@mail.ensa-nancy.fr/Other computers/My MacBook Air/ANRT/Other/Work/Noto/2_Research/1_Character samples/Simple characters/Document 32/Samples/a_D32_239.jpg";
locked = 1;
pos = (-66,-754);
scale = (70,70);
};
layerId = "1418CA22-4022-4EB0-8773-A30C31F82F0C";
name = "May 2, 24 at 14:13";
shapes = (
{
closed = 1;
nodes = (
(1522,53,l),
(1522,91,l),
(1367,127,o),
(1281,213,o),
(1281,324,cs),
(1281,684,o),
(2372,958,o),
(3245,958,cs),
(4288,958,o),
(4865,557,o),
(4865,218,cs),
(4865,122,o),
(4812,58,o),
(4755,58,cs),
(4686,58,o),
(4645,127,o),
(4629,305,c),
(4521,290,l),
(4556,62,o),
(4490,-8,o),
(4435,-8,cs),
(4386,-8,o),
(4345,47,o),
(4345,156,cs),
(4345,505,o),
(4820,780,o),
(5005,780,cs),
(5072,780,o),
(5126,748,o),
(5126,696,cs),
(5126,656,o),
(5101,595,o),
(4922,557,c),
(4932,521,l),
(5150,548,o),
(5244,644,o),
(5244,723,cs),
(5244,788,o),
(5180,845,o),
(5056,845,cs),
(4720,845,o),
(4227,429,o),
(4227,128,cs),
(4227,7,o),
(4306,-66,o),
(4411,-66,cs),
(4508,-66,o),
(4603,21,o),
(4606,132,c),
(4537,140,l),
(4567,74,o),
(4632,0,o),
(4740,0,cs),
(4889,0,o),
(4983,118,o),
(4983,240,cs),
(4983,619,o),
(4308,1017,o),
(3261,1017,cs),
(2254,1017,o),
(1162,707,o),
(1162,290,cs),
(1162,185,o),
(1233,107,o),
(1338,68,c),
(1420,92,l),
(787,-11,l),
(791,-21,l),
(918,38,o),
(1002,144,o),
(1002,229,cs),
(1002,343,o),
(913,440,o),
(718,440,cs),
(486,440,o),
(237,294,o),
(237,153,cs),
(237,75,o),
(300,33,o),
(367,33,cs),
(473,33,o),
(562,93,o),
(562,175,cs),
(562,220,o),
(536,277,o),
(440,301,c),
(434,250,l),
(498,348,o),
(629,381,o),
(702,381,cs),
(795,381,o),
(884,325,o),
(884,218,cs),
(884,111,o),
(778,8,o),
(603,-53,c),
(621,-98,l)
);
}
);
width = 5467;
},
{
associatedMasterId = "0C4B00F6-5348-41D6-8EE7-AA18FE59D1B1";
background = {
shapes = (
{
closed = 1;
nodes = (
(526,426,o),
(620,369,o),
(620,259,cs),
(620,153,o),
(532,51,o),
(387,-10,c),
(399,-47,l),
(1193,54,l),
(1193,91,l),
(1077,124,o),
(1009,194,o),
(1013,305,cs),
(1029,744,o),
(2134,1009,o),
(2992,1009,cs),
(4035,1009,o),
(4612,603,o),
(4612,260,cs),
(4612,164,o),
(4552,100,o),
(4496,100,cs),
(4420,100,o),
(4374,172,o),
(4356,356,c),
(4248,341,l),
(4285,97,o),
(4219,43,o),
(4157,43,cs),
(4099,43,o),
(4042,101,o),
(4042,217,cs),
(4042,397,o),
(4187,578,o),
(4371,700,cs),
(4540,813,o),
(4746,872,o),
(4838,872,cs),
(4896,872,o),
(4936,848,o),
(4936,808,cs),
(4936,774,o),
(4912,723,o),
(4736,691,c),
(4742,653,l),
(4960,677,o),
(5054,764,o),
(5054,835,cs),
(5054,889,o),
(4994,937,o),
(4872,937,cs),
(4719,937,o),
(4500,862,o),
(4325,740,cs),
(4059,555,o),
(3924,350,o),
(3924,179,cs),
(3924,58,o),
(4016,-15,o),
(4121,-15,cs),
(4235,-15,o),
(4330,72,o),
(4333,183,c),
(4264,191,l),
(4300,103,o),
(4355,42,o),
(4468,42,cs),
(4624,42,o),
(4730,160,o),
(4730,282,cs),
(4730,665,o),
(4055,1068,o),
(3008,1068,cs),
(2011,1068,o),
(894,773,o),
(894,284,cs),
(894,176,o),
(949,104,o),
(1031,69,c),
(1103,93,l),
(545,40,l),
(551,30,l),
(663,87,o),
(738,188,o),
(738,270,cs),
(738,389,o),
(649,491,o),
(454,491,cs),
(269,491,o),
(82,362,o),
(82,224,cs),
(82,162,o),
(131,119,o),
(201,119,cs),
(277,120,o),
(341,177,o),
(340,239,cs),
(340,296,o),
(280,353,o),
(176,313,c,{
"Letterink-NibData" = {
AngleInDegrees = "360";
};
}),
(203,282,l),
(237,388,o),
(344,426,o),
(428,426,cs)
);
},
{
closed = 1;
nodes = (
(1972,-8,o),
(2110,20,o),
(2190,55,c,{
"Letterink-NibData" = {
AngleInDegrees = "360";
};
}),
(2131,90,l,{
"Letterink-NibData" = {
AngleInDegrees = "360";
};
}),
(2055,65,o),
(1965,54,o),
(1879,54,cs),
(1807,54,o),
(1781,71,o),
(1781,95,cs),
(1781,109,o),
(1786,124,o),
(1814,147,cs),
(1873,195,o),
(1922,245,o),
(1922,322,cs),
(1922,427,o),
(1821,509,o),
(1672,509,cs),
(1485,509,o),
(1295,375,o),
(1295,254,cs),
(1295,192,o),
(1345,149,o),
(1415,150,cs),
(1491,151,o),
(1554,208,o),
(1553,270,cs),
(1553,327,o),
(1492,384,o),
(1389,343,c,{
"Letterink-NibData" = {
AngleInDegrees = "360";
};
}),
(1421,317,l),
(1451,402,o),
(1553,448,o),
(1644,448,cs),
(1716,448,o),
(1804,399,o),
(1804,305,cs),
(1804,234,o),
(1757,188,o),
(1713,153,cs),
(1684,130,o),
(1658,108,o),
(1658,77,cs),
(1658,28,o),
(1709,-8,o),
(1839,-8,cs)
);
},
{
closed = 1;
nodes = (
(2524,41,o),
(2782,236,o),
(2782,412,cs),
(2782,472,o),
(2752,508,o),
(2674,511,cs),
(2619,513,o),
(2546,498,o),
(2491,483,c),
(2498,445,l,{
"Letterink-NibData" = {
AngleInDegrees = "360";
};
}),
(2537,452,o),
(2572,456,o),
(2595,455,cs),
(2646,453,o),
(2670,427,o),
(2670,384,cs),
(2670,247,o),
(2455,97,o),
(2283,97,cs),
(2181,97,o),
(2138,161,o),
(2138,227,cs),
(2138,289,o),
(2176,326,o),
(2227,326,cs),
(2276,326,o),
(2315,282,o),
(2315,222,cs),
(2315,157,o),
(2269,110,o),
(2219,97,c,{
"Letterink-NibData" = {
AngleInDegrees = "360";
};
}),
(2285,82,l,{
"Letterink-NibData" = {
AngleInDegrees = "360";
};
}),
(2352,106,o),
(2421,173,o),
(2421,249,cs),
(2421,323,o),
(2356,387,o),
(2252,387,cs),
(2125,387,o),
(2032,304,o),
(2032,207,cs),
(2032,107,o),
(2130,41,o),
(2273,41,cs)
);
}
);
};
backgroundImage = {
imagePath = "../../../../Library/CloudStorage/GoogleDrive-fernando.de-moraes-caro@mail.ensa-nancy.fr/Other computers/My MacBook Air/ANRT/Other/Work/Noto/2_Research/1_Character samples/Simple characters/Document 32/Samples/a_D32_239.jpg";
locked = 1;
pos = (-407,-754);
scale = (70,70);
};
guides = (
{
angle = 12;
pos = (2482,-471);
}
);
layerId = "F0BF3F21-9DD2-4545-AA24-50E9195B8130";
name = "May 2, 24 at 14:27";
shapes = (
{
closed = 1;
nodes = (
(526,426,o),
(620,364,o),
(620,254,cs),
(620,148,o),
(532,51,o),
(387,-10,c),
(399,-47,l),
(1193,54,l),
(1193,91,l),
(1077,124,o),
(1013,221,o),
(1013,327,cs),
(1013,771,o),
(2134,1009,o),
(2984,1009,cs),
(4038,1009,o),
(4617,603,o),
(4617,272,cs),
(4617,164,o),
(4560,100,o),
(4499,100,cs),
(4425,100,o),
(4375,172,o),
(4356,356,c),
(4248,341,l),
(4285,97,o),
(4214,43,o),
(4160,43,cs),
(4094,43,o),
(4042,126,o),
(4042,238,cs),
(4042,426,o),
(4189,590,o),
(4367,709,cs),
(4540,824,o),
(4746,872,o),
(4838,872,cs),
(4896,872,o),
(4936,848,o),
(4936,806,cs),
(4936,774,o),
(4912,723,o),
(4736,691,c),
(4742,653,l),
(4960,677,o),
(5054,764,o),
(5054,833,cs),
(5054,889,o),
(4994,937,o),
(4872,937,cs),
(4719,937,o),
(4500,873,o),
(4299,733,cs),
(4059,566,o),
(3924,367,o),
(3924,207,cs),
(3924,75,o),
(4016,-15,o),
(4126,-15,cs),
(4235,-15,o),
(4330,72,o),
(4333,183,c),
(4264,191,l),
(4300,103,o),
(4355,42,o),
(4470,42,cs),
(4624,42,o),
(4730,157,o),
(4730,303,cs),
(4730,662,o),
(4095,1068,o),
(2993,1068,cs),
(2051,1068,o),
(894,792,o),
(894,303,cs),
(894,195,o),
(957,104,o),
(1050,69,c),
(1092,101,l),
(537,32,l),
(543,20,l),
(648,83,o),
(738,188,o),
(738,284,cs),
(738,389,o),
(649,491,o),
(470,491,cs),
(269,491,o),
(82,362,o),
(82,230,cs),
(82,162,o),
(131,119,o),
(199,119,cs),
(277,120,o),
(341,177,o),
(340,238,cs),
(340,296,o),
(280,353,o),
(176,313,c,{
"Letterink-NibData" = {
AngleInDegrees = "360";
};
}),
(203,282,l),
(237,388,o),
(344,426,o),
(426,426,cs)
);
},
{
closed = 1;
nodes = (
(1972,-8,o),
(2110,20,o),
(2190,55,c,{
"Letterink-NibData" = {
AngleInDegrees = "360";
};
}),
(2131,90,l,{
"Letterink-NibData" = {
AngleInDegrees = "360";
};
}),
(2055,65,o),
(1965,54,o),
(1879,54,cs),
(1807,54,o),
(1781,71,o),
(1781,95,cs),
(1781,109,o),
(1786,124,o),
(1814,147,cs),
(1873,195,o),
(1922,245,o),
(1922,322,cs),
(1922,427,o),
(1821,509,o),
(1672,509,cs),
(1485,509,o),
(1295,375,o),
(1295,254,cs),
(1295,192,o),
(1345,149,o),
(1415,150,cs),
(1491,151,o),
(1554,208,o),
(1553,270,cs),
(1553,327,o),
(1492,384,o),
(1389,343,c,{
"Letterink-NibData" = {
AngleInDegrees = "360";
};
}),
(1421,317,l),
(1451,402,o),
(1553,448,o),
(1644,448,cs),
(1716,448,o),
(1804,399,o),
(1804,305,cs),
(1804,234,o),
(1757,188,o),
(1713,153,cs),
(1684,130,o),
(1658,108,o),
(1658,77,cs),
(1658,28,o),
(1709,-8,o),
(1839,-8,cs)
);
},
{
closed = 1;
nodes = (
(2524,41,o),
(2782,236,o),
(2782,412,cs),
(2782,472,o),
(2752,508,o),
(2674,511,cs),
(2619,513,o),
(2546,498,o),
(2491,483,c),
(2498,445,l,{
"Letterink-NibData" = {
AngleInDegrees = "360";
};
}),
(2537,452,o),
(2572,456,o),
(2595,455,cs),
(2646,453,o),
(2670,427,o),
(2670,384,cs),
(2670,247,o),
(2455,97,o),
(2283,97,cs),
(2181,97,o),
(2138,161,o),
(2138,227,cs),
(2138,289,o),
(2176,326,o),
(2227,326,cs),
(2276,326,o),
(2315,282,o),
(2315,222,cs),
(2315,157,o),
(2269,110,o),
(2219,97,c,{
"Letterink-NibData" = {
AngleInDegrees = "360";
};
}),
(2285,82,l,{
"Letterink-NibData" = {
AngleInDegrees = "360";
};
}),
(2352,106,o),
(2421,173,o),
(2421,249,cs),
(2421,323,o),
(2356,387,o),
(2252,387,cs),
(2125,387,o),
(2032,304,o),
(2032,207,cs),
(2032,107,o),
(2130,41,o),
(2273,41,cs)
);
}
);
width = 5051;
},
{
associatedMasterId = "0C4B00F6-5348-41D6-8EE7-AA18FE59D1B1";
background = {
shapes = (
{
closed = 1;
nodes = (
(583,432,o),
(670,360,o),
(670,252,cs),
(670,154,o),
(599,52,o),
(447,-4,c),
(459,-41,l),
(1193,54,l),
(1193,91,l),
(1086,127,o),
(1013,216,o),
(1013,330,cs),
(1013,757,o),
(1932,1009,o),
(2764,1009,cs),
(4013,1009,o),
(4586,485,o),
(4586,226,cs),
(4586,158,o),
(4545,101,o),
(4502,101,cs),
(4429,101,o),
(4379,165,o),
(4360,329,c),
(4254,315,l),
(4291,96,o),
(4227,48,o),
(4177,48,cs),
(4124,48,o),
(4082,108,o),
(4082,184,cs),
(4082,477,o),
(4584,708,o),
(4758,708,cs),
(4815,708,o),
(4855,687,o),
(4855,648,cs),
(4855,600,o),
(4792,565,o),
(4668,544,c),
(4673,505,l),
(4845,524,o),
(4971,594,o),
(4971,672,cs),
(4971,727,o),
(4912,771,o),
(4792,771,cs),
(4464,771,o),
(3964,411,o),
(3964,154,cs),
(3964,67,o),
(4029,-15,o),
(4143,-15,cs),
(4246,-15,o),
(4335,65,o),
(4338,169,c),
(4270,176,l),
(4305,95,o),
(4359,38,o),
(4473,38,cs),
(4607,38,o),
(4700,140,o),
(4700,247,cs),
(4700,534,o),
(4032,1068,o),
(2784,1068,cs),
(1878,1068,o),
(899,787,o),
(899,307,cs),
(899,186,o),
(966,102,o),
(1065,69,c),
(1092,101,l),
(597,38,l),
(620,26,l),
(730,82,o),
(788,182,o),
(788,270,cs),
(788,376,o),
(703,497,o),
(516,497,cs),
(322,497,o),
(152,373,o),
(152,248,cs),
(152,178,o),
(201,135,o),
(269,135,cs),
(347,136,o),
(411,193,o),
(411,252,cs),
(410,312,o),
(345,359,o),
(246,329,c,{
"Letterink-NibData" = {
AngleInDegrees = "360";
};
}),
(273,298,l),
(307,397,o),
(411,432,o),
(483,432,cs)
);
},
{
closed = 1;
nodes = (
(1972,-8,o),
(2110,20,o),
(2190,55,c,{
"Letterink-NibData" = {
AngleInDegrees = "360";
};
}),
(2131,90,l,{
"Letterink-NibData" = {
AngleInDegrees = "360";
};
}),
(2055,65,o),
(1965,54,o),
(1879,54,cs),
(1807,54,o),
(1781,71,o),
(1781,95,cs),
(1781,109,o),
(1786,124,o),
(1814,147,cs),
(1873,195,o),
(1922,245,o),
(1922,322,cs),
(1922,427,o),
(1821,509,o),
(1672,509,cs),
(1485,509,o),
(1295,375,o),
(1295,254,cs),
(1295,192,o),
(1345,149,o),
(1415,150,cs),
(1491,151,o),
(1554,208,o),
(1553,270,cs),
(1553,327,o),
(1492,384,o),
(1389,343,c,{
"Letterink-NibData" = {
AngleInDegrees = "360";
};
}),
(1421,317,l),
(1451,402,o),
(1553,448,o),
(1644,448,cs),
(1716,448,o),
(1804,399,o),
(1804,305,cs),
(1804,234,o),
(1757,188,o),
(1713,153,cs),
(1684,130,o),
(1658,108,o),
(1658,77,cs),
(1658,28,o),
(1709,-8,o),
(1839,-8,cs)
);
},
{
closed = 1;
nodes = (
(2549,41,o),
(2782,241,o),
(2782,413,cs),
(2782,476,o),
(2739,511,o),
(2658,511,cs),
(2618,511,o),
(2546,498,o),
(2491,483,c),
(2498,445,l,{
"Letterink-NibData" = {
AngleInDegrees = "360";
};
}),
(2537,452,o),
(2572,456,o),
(2595,455,cs),
(2646,453,o),
(2670,431,o),
(2670,389,cs),
(2670,253,o),
(2492,97,o),
(2313,97,cs),
(2190,97,o),
(2138,161,o),
(2138,227,cs),
(2138,289,o),
(2176,326,o),
(2227,326,cs),
(2276,326,o),
(2315,282,o),
(2315,222,cs),
(2315,157,o),
(2269,110,o),
(2219,97,c,{
"Letterink-NibData" = {
AngleInDegrees = "360";
};
}),
(2285,82,l,{
"Letterink-NibData" = {
AngleInDegrees = "360";
};
}),
(2352,106,o),
(2421,173,o),
(2421,249,cs),
(2421,323,o),
(2356,387,o),
(2252,387,cs),
(2125,387,o),
(2032,304,o),
(2032,207,cs),
(2032,107,o),
(2142,41,o),
(2303,41,cs)
);
}
);
};
backgroundImage = {
imagePath = "../../../../Library/CloudStorage/GoogleDrive-fernando.de-moraes-caro@mail.ensa-nancy.fr/Other computers/My MacBook Air/ANRT/Other/Work/Noto/2_Research/1_Character samples/Simple characters/Document 32/Samples/a_D32_239.jpg";
pos = (-287,-714);
scale = (70,70);
};
guides = (
{
angle = 12;
pos = (2482,-471);
}
);
layerId = "DBCE0823-104F-46B3-868A-2255C6F85EB2";
name = "May 14, 24 at 12:00";
shapes = (
{
closed = 1;
nodes = (
(583,432,o),
(670,360,o),
(670,252,cs),
(670,154,o),
(599,52,o),
(447,-4,c),
(459,-41,l),
(1193,54,l),
(1193,91,l),
(1086,127,o),
(1013,216,o),
(1013,330,cs),
(1013,757,o),
(1932,1009,o),
(2764,1009,cs),
(4013,1009,o),
(4586,485,o),
(4586,226,cs),
(4586,158,o),
(4545,101,o),
(4502,101,cs),
(4429,101,o),
(4379,165,o),
(4360,329,c),
(4254,315,l),
(4291,96,o),
(4227,48,o),
(4177,48,cs),
(4124,48,o),
(4082,108,o),
(4082,184,cs),
(4082,477,o),
(4584,708,o),
(4758,708,cs),
(4815,708,o),
(4855,687,o),
(4855,648,cs),
(4855,600,o),
(4792,565,o),
(4668,544,c),
(4673,505,l),
(4845,524,o),
(4971,594,o),
(4971,672,cs),
(4971,727,o),
(4912,771,o),
(4792,771,cs),
(4464,771,o),
(3964,411,o),
(3964,154,cs),
(3964,67,o),
(4029,-15,o),
(4143,-15,cs),
(4246,-15,o),
(4335,65,o),
(4338,169,c),
(4270,176,l),
(4305,95,o),
(4359,38,o),
(4473,38,cs),
(4607,38,o),
(4700,140,o),
(4700,247,cs),
(4700,534,o),
(4032,1068,o),
(2784,1068,cs),
(1878,1068,o),
(899,787,o),
(899,307,cs),
(899,186,o),
(966,102,o),
(1065,69,c),
(1092,101,l),
(597,38,l),
(620,26,l),
(730,82,o),
(788,182,o),
(788,270,cs),
(788,376,o),
(703,497,o),
(516,497,cs),
(322,497,o),
(152,373,o),
(152,248,cs),
(152,178,o),
(201,135,o),
(269,135,cs),
(347,136,o),
(411,193,o),
(411,252,cs),
(410,312,o),
(345,359,o),
(246,329,c,{
"Letterink-NibData" = {
AngleInDegrees = "360";
};
}),
(273,298,l),
(300,376,o),
(378,432,o),
(483,432,cs)
);
},
{
closed = 1;
nodes = (
(1972,-8,o),
(2110,20,o),
(2190,55,c,{
"Letterink-NibData" = {
AngleInDegrees = "360";
};
}),
(2131,90,l,{
"Letterink-NibData" = {
AngleInDegrees = "360";
};
}),
(2055,65,o),
(1965,54,o),
(1879,54,cs),
(1807,54,o),
(1781,71,o),
(1781,95,cs),
(1781,109,o),
(1786,124,o),
(1814,147,cs),
(1873,195,o),
(1922,245,o),
(1922,322,cs),
(1922,427,o),
(1821,509,o),
(1672,509,cs),
(1485,509,o),
(1295,375,o),
(1295,254,cs),
(1295,192,o),
(1345,149,o),
(1415,150,cs),
(1491,151,o),
(1554,208,o),
(1553,270,cs),
(1553,327,o),
(1492,384,o),
(1389,343,c,{
"Letterink-NibData" = {
AngleInDegrees = "360";
};
}),
(1421,317,l),
(1451,402,o),
(1553,448,o),
(1644,448,cs),
(1716,448,o),
(1804,399,o),
(1804,305,cs),
(1804,234,o),
(1757,188,o),
(1713,153,cs),
(1684,130,o),
(1658,108,o),
(1658,77,cs),
(1658,28,o),
(1709,-8,o),
(1839,-8,cs)
);
},
{
closed = 1;
nodes = (
(2549,41,o),
(2782,241,o),
(2782,413,cs),
(2782,476,o),
(2739,511,o),
(2658,511,cs),
(2618,511,o),
(2546,498,o),
(2491,483,c),
(2498,445,l,{
"Letterink-NibData" = {
AngleInDegrees = "360";
};
}),
(2537,452,o),
(2572,456,o),
(2595,455,cs),
(2646,453,o),
(2670,431,o),
(2670,389,cs),
(2670,253,o),
(2492,97,o),
(2313,97,cs),
(2190,97,o),
(2138,161,o),
(2138,227,cs),
(2138,289,o),
(2176,326,o),
(2227,326,cs),
(2276,326,o),
(2315,282,o),
(2315,222,cs),
(2315,157,o),
(2269,110,o),
(2219,97,c,{
"Letterink-NibData" = {
AngleInDegrees = "360";
};
}),
(2285,82,l,{
"Letterink-NibData" = {
AngleInDegrees = "360";
};
}),
(2352,106,o),
(2421,173,o),
(2421,249,cs),
(2421,323,o),
(2356,387,o),
(2252,387,cs),
(2125,387,o),
(2032,304,o),
(2032,207,cs),
(2032,107,o),
(2142,41,o),
(2303,41,cs)
);
}
);
width = 5051;
},
{
associatedMasterId = "0C4B00F6-5348-41D6-8EE7-AA18FE59D1B1";
background = {
shapes = (
{
closed = 1;
nodes = (
(4584,165,o),
(4535,117,o),
(4478,117,cs),
(4410,117,o),
(4377,173,o),
(4354,318,c),
(4240,285,l),
(4251,230,o),
(4260,190,o),
(4259,156,cs),
(4260,77,o),
(4214,45,o),
(4175,45,cs),
(4122,45,o),
(4080,109,o),
(4080,195,cs),
(4080,490,o),
(4559,752,o),
(4701,752,cs),
(4756,752,o),
(4789,721,o),
(4789,691,cs),
(4789,643,o),
(4742,604,o),
(4646,572,c),
(4657,536,l),
(4809,573,o),
(4906,646,o),
(4906,720,cs),
(4906,790,o),
(4836,817,o),
(4741,817,cs),
(4457,817,o),
(3961,447,o),
(3961,169,cs),
(3962,65,o),
(4031,-15,o),
(4141,-15,cs),
(4260,-15,o),
(4354,98,o),
(4330,183,c),
(4286,201,l),
(4318,115,o),
(4386,57,o),
(4467,57,cs),
(4585,57,o),
(4700,160,o),
(4701,285,cs),
(4701,588,o),
(4011,1068,o),
(2763,1068,cs),
(1857,1068,o),
(901,737,o),
(898,299,cs),
(897,183,o),
(965,102,o),
(1054,69,c),
(1091,101,l),
(596,38,l),
(619,26,l),
(729,82,o),
(787,182,o),
(787,270,cs),
(787,376,o),
(702,497,o),
(515,497,cs),
(321,497,o),
(151,373,o),
(151,248,cs),
(151,178,o),
(200,135,o),
(268,135,cs),
(346,136,o),
(410,193,o),
(410,252,cs),
(409,312,o),
(344,359,o),
(245,329,c,{
"Letterink-NibData" = {
AngleInDegrees = "360";
};
}),
(272,298,l),
(299,376,o),
(377,432,o),
(482,432,cs),
(582,432,o),
(669,360,o),
(669,252,cs),
(669,154,o),
(598,52,o),
(446,-4,c),
(458,-41,l),
(1192,54,l),
(1192,91,l),
(1085,127,o),
(1011,206,o),
(1010,317,cs),
(1011,707,o),
(1911,1009,o),
(2743,1009,cs),
(3990,1009,o),
(4584,530,o),
(4584,248,cs)
);
}
);
};
backgroundImage = {
imagePath = "../../../../Library/CloudStorage/GoogleDrive-fernando.de-moraes-caro@mail.ensa-nancy.fr/Other computers/My MacBook Air/ANRT/Other/Work/Noto/2_Research/1_Character samples/Simple characters/Document 32/Samples/a_D32_239.jpg";
pos = (-288,-714);
scale = (70,70);
};
layerId = "09033F76-AC6F-4AD9-B496-0870000B4FF9";
name = "May 14, 24 at 12:35";
shapes = (
{
closed = 1;
nodes = (
(4584,165,o),
(4535,117,o),
(4478,117,cs),
(4410,117,o),
(4377,173,o),
(4354,318,c),
(4240,285,l),
(4251,230,o),
(4260,190,o),
(4259,156,cs),
(4260,77,o),
(4214,45,o),
(4175,45,cs),
(4122,45,o),
(4080,109,o),
(4080,195,cs),
(4080,490,o),
(4559,752,o),
(4701,752,cs),
(4756,752,o),
(4789,721,o),
(4789,691,cs),
(4789,643,o),
(4742,604,o),
(4646,572,c),
(4657,536,l),
(4809,573,o),
(4906,646,o),
(4906,720,cs),
(4906,790,o),
(4836,817,o),
(4741,817,cs),
(4457,817,o),
(3961,447,o),
(3961,169,cs),
(3962,65,o),
(4031,-15,o),
(4141,-15,cs),
(4260,-15,o),
(4354,98,o),
(4330,183,c),
(4286,201,l),
(4318,115,o),
(4386,57,o),
(4467,57,cs),
(4585,57,o),
(4700,160,o),
(4701,285,cs),
(4701,588,o),
(4011,1068,o),
(2763,1068,cs),
(1857,1068,o),
(901,737,o),
(898,299,cs),
(897,183,o),
(965,102,o),
(1054,69,c),
(1091,101,l),
(596,38,l),
(619,26,l),
(729,82,o),
(787,182,o),
(787,270,cs),
(787,376,o),
(702,497,o),
(515,497,cs),
(321,497,o),
(151,373,o),
(151,248,cs),
(151,178,o),
(200,135,o),
(268,135,cs),
(346,136,o),
(410,193,o),
(410,252,cs),
(409,312,o),
(344,359,o),
(245,329,c,{
"Letterink-NibData" = {
AngleInDegrees = "360";
};
}),
(272,298,l),
(299,376,o),
(377,432,o),
(482,432,cs),
(582,432,o),
(669,360,o),
(669,252,cs),
(669,154,o),
(598,52,o),
(446,-4,c),
(458,-41,l),
(1192,54,l),
(1192,91,l),
(1085,127,o),
(1011,206,o),
(1010,317,cs),
(1011,707,o),
(1911,1009,o),
(2743,1009,cs),
(3990,1009,o),
(4584,530,o),
(4584,248,cs)
);
}
);
width = 5051;
},
{
associatedMasterId = "0C4B00F6-5348-41D6-8EE7-AA18FE59D1B1";
background = {
shapes = (
{
closed = 1;
nodes = (
(4485,165,o),
(4436,117,o),
(4379,117,cs),
(4311,117,o),
(4278,173,o),
(4255,318,c),
(4141,285,l),
(4152,230,o),
(4161,190,o),
(4160,156,cs),
(4161,77,o),
(4115,45,o),
(4076,45,cs),
(4023,45,o),
(3981,109,o),
(3981,195,cs),
(3981,490,o),
(4460,752,o),
(4602,752,cs),
(4657,752,o),
(4690,721,o),
(4690,691,cs),
(4690,643,o),
(4643,604,o),
(4547,572,c),
(4558,536,l),
(4710,573,o),
(4807,646,o),
(4807,720,cs),
(4807,790,o),
(4737,817,o),
(4642,817,cs),
(4358,817,o),
(3862,447,o),
(3862,169,cs),
(3863,65,o),
(3932,-15,o),
(4042,-15,cs),
(4161,-15,o),
(4255,98,o),
(4231,183,c),
(4187,201,l),
(4219,115,o),
(4287,57,o),
(4368,57,cs),
(4486,57,o),
(4601,160,o),
(4602,285,cs),
(4602,588,o),
(3912,1068,o),
(2664,1068,cs),
(1758,1068,o),
(802,737,o),
(799,299,cs),
(798,183,o),
(866,102,o),
(955,69,c),
(992,101,l),
(459,33,l),
(503,17,l),
(632,99,o),
(688,205,o),
(688,288,cs),
(688,397,o),
(592,497,o),
(424,497,cs),
(236,497,o),
(60,373,o),
(60,248,cs),
(60,178,o),
(109,135,o),
(177,135,cs),
(255,136,o),
(319,193,o),
(319,252,cs),
(318,312,o),
(249,359,o),
(154,329,c,{
"Letterink-NibData" = {
AngleInDegrees = "360";
};
}),
(181,298,l),
(207,376,o),
(292,432,o),
(390,432,cs),
(493,432,o),
(570,371,o),
(570,268,cs),
(570,168,o),
(498,82,o),
(347,-4,c),
(359,-41,l),
(1093,54,l),
(1093,91,l),
(986,127,o),
(912,206,o),
(911,317,cs),
(912,707,o),
(1812,1009,o),
(2644,1009,cs),
(3891,1009,o),
(4485,530,o),
(4485,248,cs)
);
}
);
};
backgroundImage = {
imagePath = "../../../../Library/CloudStorage/GoogleDrive-fernando.de-moraes-caro@mail.ensa-nancy.fr/Other computers/My MacBook Air/ANRT/Other/Work/Noto/2_Research/1_Character samples/Simple characters/Document 32/Samples/a_D32_239.jpg";
pos = (-387,-714);
scale = (70,70);
};
layerId = "12B18435-2F64-4690-9630-7F5160327FAF";
name = "May 14, 24 at 15:38";
shapes = (
{
closed = 1;
nodes = (
(4485,165,o),
(4436,117,o),
(4379,117,cs),
(4311,117,o),
(4278,173,o),
(4255,318,c),
(4141,285,l),
(4152,230,o),
(4161,190,o),
(4160,156,cs),
(4161,77,o),
(4115,45,o),
(4076,45,cs),
(4023,45,o),
(3981,109,o),
(3981,195,cs),
(3981,490,o),
(4460,752,o),
(4602,752,cs),
(4657,752,o),
(4690,721,o),
(4690,691,cs),
(4690,643,o),
(4643,604,o),
(4547,572,c),
(4558,536,l),
(4710,573,o),
(4807,646,o),
(4807,720,cs),
(4807,790,o),
(4737,817,o),
(4642,817,cs),
(4358,817,o),
(3862,447,o),
(3862,169,cs),
(3863,65,o),
(3932,-15,o),
(4042,-15,cs),
(4161,-15,o),
(4255,98,o),
(4231,183,c),
(4187,201,l),
(4219,115,o),
(4287,57,o),
(4368,57,cs),
(4486,57,o),
(4601,160,o),
(4602,285,cs),
(4602,588,o),
(3912,1068,o),
(2664,1068,cs),
(1758,1068,o),
(802,737,o),
(799,299,cs),
(798,183,o),
(866,102,o),
(955,69,c),
(992,101,l),
(459,33,l),
(503,17,l),
(637,102,o),
(688,205,o),
(688,288,cs),
(688,397,o),
(592,497,o),
(424,497,cs),
(236,497,o),
(60,373,o),
(60,248,cs),
(60,178,o),
(109,135,o),
(177,135,cs),
(255,136,o),
(319,193,o),
(319,252,cs),
(318,312,o),
(249,359,o),
(154,329,c,{
"Letterink-NibData" = {
AngleInDegrees = "360";
};
}),
(181,298,l),
(207,376,o),
(292,432,o),
(390,432,cs),
(493,432,o),
(570,371,o),
(570,268,cs),
(570,169,o),
(499,87,o),
(370,-1,c),
(382,-38,l),
(1093,54,l),
(1093,91,l),
(986,127,o),
(912,206,o),
(911,317,cs),
(912,707,o),
(1812,1009,o),
(2644,1009,cs),
(3891,1009,o),
(4485,530,o),
(4485,248,cs)
);
}
);
width = 4707;
}
);
unicode = 71936;
},
{
color = 3;
glyphname = "i-divesakuru";
lastChange = "2024-05-02 08:22:21 +0000";
layers = (
{
background = {
shapes = (
{
closed = 1;
nodes = (
(870,-105,o),
(870,13,cs),
(870,112,o),
(767,159,o),
(640,142,c),
(579,88,l),
(673,103,o),
(754,69,o),
(754,-6,cs),
(754,-84,o),
(665,-188,o),
(240,-305,cs),
(-373,-475,o),
(-1100,-630,o),
(-1513,-657,cs),
(-1547,-659,o),
(-1574,-660,o),
(-1601,-660,cs),
(-1718,-660,o),
(-1774,-635,o),
(-1774,-590,cs),
(-1774,-537,o),
(-1676,-474,o),
(-1508,-414,c),
(-1522,-371,l),
(-1757,-452,o),
(-1891,-541,o),
(-1891,-624,cs),
(-1891,-685,o),
(-1817,-720,o),
(-1668,-720,cs),
(-1643,-720,o),
(-1613,-719,o),
(-1564,-716,cs),
(-1093,-684,o),
(-440,-549,o),
(271,-356,cs),
(725,-234,o)
);
},
{
closed = 1;
nodes = (
(116,226,o),
(165,182,o),
(236,182,cs),
(312,182,o),
(374,239,o),
(374,299,cs),
(374,343,o),
(340,391,o),
(278,391,cs),
(259,391,o),
(237,387,o),
(213,376,c,{
"Letterink-NibData" = {
AngleInDegrees = "360";
};
}),
(248,342,l),
(286,416,o),
(383,445,o),
(453,445,cs),
(560,445,o),
(643,377,o),
(643,288,cs),
(643,202,o),
(565,110,o),
(388,57,c),
(402,13,l),
(660,84,o),
(761,203,o),
(761,307,cs),
(761,416,o),
(648,508,o),
(470,508,cs),
(273,508,o),
(116,396,o,{
"Letterink-NibData" = {
AngleInDegrees = "360";
};
}),
(116,289,cs)
);
}
);
};
backgroundImage = {
imagePath = "../../../../Library/CloudStorage/GoogleDrive-fernando.de-moraes-caro@mail.ensa-nancy.fr/Other computers/My MacBook Air/ANRT/Other/Work/Noto/2_Research/1_Character samples/Simple characters/Document 39/Samples/i_D39_214.jpg";
pos = (-2019,-646);
scale = (52,52);
};
layerId = "0C4B00F6-5348-41D6-8EE7-AA18FE59D1B1";
name = Regular;
shapes = (
{
closed = 1;
nodes = (
(875,-170,o),
(875,27,cs),
(875,123,o),
(773,169,o),
(646,151,c),
(585,97,l),
(679,112,o),
(759,80,o),
(759,8,cs),
(759,-150,o),
(421,-278,o),
(-518,-486,cs),
(-903,-571,o),
(-1267,-634,o),
(-1517,-650,cs),
(-1551,-652,o),
(-1578,-653,o),
(-1605,-653,cs),
(-1722,-653,o),
(-1778,-628,o),
(-1778,-583,cs),
(-1778,-530,o),
(-1680,-467,o),
(-1512,-407,c),
(-1526,-364,l),
(-1761,-445,o),
(-1895,-534,o),
(-1895,-617,cs),
(-1895,-678,o),
(-1821,-713,o),
(-1672,-713,cs),
(-1647,-713,o),
(-1617,-712,o),
(-1568,-709,cs),
(-1275,-689,o),
(-911,-629,o),
(-506,-540,cs),
(511,-315,o)
);
},
{
closed = 1;
nodes = (
(112,233,o),
(161,189,o),
(232,189,cs),
(308,189,o),
(370,246,o),
(370,306,cs),
(370,350,o),
(336,398,o),
(274,398,cs),
(255,398,o),
(233,394,o),
(209,383,c,{
"Letterink-NibData" = {
AngleInDegrees = "360";
};
}),
(244,349,l),
(284,423,o),
(386,452,o),
(456,452,cs),
(560,452,o),
(639,388,o),
(639,301,cs),
(639,215,o),
(561,119,o),
(384,64,c),
(398,20,l),
(656,93,o),
(757,216,o),
(757,320,cs),
(757,428,o),
(648,515,o),
(472,515,cs),
(273,515,o),
(112,403,o,{
"Letterink-NibData" = {
AngleInDegrees = "360";
};
}),
(112,296,cs)
);
}
);
width = 894;
},
{
associatedMasterId = "0C4B00F6-5348-41D6-8EE7-AA18FE59D1B1";
background = {
shapes = (
{
closed = 1;
nodes = (
(881,-369,o),
(1099,-236,o),
(1099,-121,cs),
(1099,-72,o),
(1060,-34,o),
(960,-34,cs),
(893,-34,o),
(772,-54,o),
(622,-101,c,{
"Letterink-NibData" = {
AngleInDegrees = "360";
};
}),
(634,-145,l,{
"Letterink-NibData" = {
AngleInDegrees = "360";
};
}),
(744,-116,o),
(850,-98,o),
(907,-98,cs),
(960,-98,o),
(986,-116,o),
(986,-142,cs),
(986,-215,o),
(814,-309,o),
(546,-309,cs),
(331,-309,o),
(230,-251,o),
(230,-177,cs),
(230,-117,o),
(295,-92,o),
(388,-59,cs),
(559,0,o),
(779,97,o),
(779,281,cs),
(779,412,o),
(666,512,o),
(499,512,cs),
(314,512,o),
(127,383,o),
(127,245,cs),
(127,183,o),
(176,140,o),
(246,140,cs),
(322,141,o),
(386,198,o),
(385,260,cs),
(385,317,o),
(325,374,o),
(221,334,c,{
"Letterink-NibData" = {
AngleInDegrees = "360";
};
}),
(248,303,l),
(282,409,o),
(379,447,o),
(463,447,cs),
(578,447,o),
(661,378,o),
(661,271,cs),
(661,117,o),
(488,34,o),
(332,-16,cs),
(214,-56,o),
(112,-95,o),
(112,-183,cs),
(112,-295,o),
(265,-369,o),
(522,-369,cs)
);
}
);
};
layerId = "2BEE084F-ACBD-4070-AC97-64A3EC5996C0";
name = "Apr 21, 24 at 18:22";
shapes = (
{
closed = 1;
nodes = (
(-261,-353,o),
(21,-316,o),
(293,-245,cs),
(575,-172,o),
(843,-61,o),
(843,98,cs),
(843,182,o),
(755,214,o),
(674,214,cs),
(657,214,o),
(641,212,o),
(625,210,c),
(543,175,l),
(684,192,o),
(726,132,o),
(726,81,cs),
(726,-39,o),
(508,-128,o),
(282,-188,cs),
(25,-256,o),
(-243,-291,o),
(-360,-291,cs),
(-471,-291,o),
(-508,-261,o),
(-508,-224,cs),
(-508,-187,o),
(-472,-151,o),
(-386,-121,c),
(-399,-85,l,{
"Letterink-NibData" = {
AngleInDegrees = "360";
};
}),
(-555,-128,o),
(-622,-194,o),
(-622,-253,cs),
(-622,-310,o),
(-559,-354,o),
(-400,-353,cs)
);
},
{
closed = 1;
nodes = (
(567,141,o),
(777,227,o),
(777,354,cs),
(777,436,o),
(698,509,o),
(538,509,cs),
(336,509,o),
(123,406,o),
(123,274,cs),
(124,208,o),
(174,170,o),
(241,171,cs),
(320,172,o),
(383,227,o),
(383,290,cs),
(382,349,o),
(336,393,o),
(218,368,c,{
"Letterink-NibData" = {
AngleInDegrees = "360";
};
}),
(252,340,l),
(297,412,o),
(410,448,o),
(502,448,cs),
(621,448,o),
(660,388,o),
(660,327,cs),
(660,252,o),
(585,198,o),
(452,167,c),
(463,124,l)
);
}
);
width = 924;
},
{
associatedMasterId = "0C4B00F6-5348-41D6-8EE7-AA18FE59D1B1";
backgroundImage = {
imagePath = "../../../../Library/CloudStorage/GoogleDrive-fernando.de-moraes-caro@mail.ensa-nancy.fr/Other computers/My MacBook Air/ANRT/Other/Work/Noto/2_Research/1_Character samples/Simple characters/Document 39/Samples/i_D39_214.jpg";
locked = 1;
pos = (-1937,-686);
scale = (52,52);
};
layerId = "0EF5A0E0-4FB5-4B65-95DA-D44A873FE75D";
name = "Apr 23, 24 at 13:39";
shapes = (
{
closed = 1;
nodes = (
(-1009,-587,o),
(226,-305,o),
(497,-251,cs),
(848,-182,o),
(967,-67,o),
(967,5,cs),
(967,92,o),
(873,169,o),
(744,187,c),
(652,127,l),
(730,118,o),
(786,74,o),
(786,24,cs),
(786,-35,o),
(736,-112,o),
(475,-170,cs),
(232,-224,o),
(-1098,-497,o),
(-1333,-497,cs),
(-1414,-497,o),
(-1461,-470,o),
(-1461,-410,cs),
(-1461,-368,o),
(-1435,-330,o),
(-1333,-254,c),
(-1346,-215,l),
(-1505,-291,o),
(-1620,-380,o),
(-1620,-471,cs),
(-1620,-545,o),
(-1550,-587,o),
(-1390,-587,cs)
);
},
{
closed = 1;
nodes = (
(712,83,o),
(860,186,o),
(860,300,cs),
(860,400,o),
(731,476,o),
(544,476,cs),
(390,476,o),
(191,415,o),
(191,268,cs),
(191,212,o),
(245,146,o),
(361,146,cs),
(466,146,o),
(514,211,o),
(514,256,cs),
(514,301,o),
(468,389,o),
(431,424,c),
(421,347,l),
(455,376,o),
(501,405,o),
(553,405,cs),
(624,405,o),
(658,346,o),
(658,306,cs),
(658,238,o),
(646,168,o),
(493,100,c),
(534,34,l)
);
}
);
width = 924;
},
{
associatedMasterId = "0C4B00F6-5348-41D6-8EE7-AA18FE59D1B1";
background = {
shapes = (
{
closed = 1;
nodes = (
(-1235,-676,o),
(141,-361,o),
(443,-301,cs),
(834,-224,o),
(967,-96,o),
(967,-16,cs),
(967,81,o),
(862,167,o),
(718,187,c),
(616,120,l),
(703,110,o),
(765,61,o),
(765,5,cs),
(765,-61,o),
(710,-146,o),
(419,-211,cs),
(148,-271,o),
(-1335,-575,o),
(-1596,-575,cs),
(-1687,-575,o),
(-1739,-545,o),
(-1739,-479,cs),
(-1739,-432,o),
(-1710,-389,o),
(-1596,-305,c),
(-1611,-261,l),
(-1788,-346,o),
(-1916,-445,o),
(-1916,-546,cs),
(-1916,-629,o),
(-1838,-676,o),
(-1660,-676,cs)
);
},
{
closed = 1;
nodes = (
(683,71,o),
(848,186,o),
(848,313,cs),
(848,424,o),
(704,509,o),
(496,509,cs),
(324,509,o),
(102,441,o),
(102,277,cs),
(102,215,o),
(162,141,o),
(292,141,cs),
(409,141,o),
(462,214,o),
(462,264,cs),
(462,314,o),
(411,412,o),
(370,451,c),
(358,365,l),
(396,398,o),
(448,430,o),
(506,430,cs),
(585,430,o),
(623,364,o),
(623,320,cs),
(623,244,o),
(609,166,o),
(439,90,c),
(484,16,l)
);
}
);
};
backgroundImage = {
imagePath = "../../../../Library/CloudStorage/GoogleDrive-fernando.de-moraes-caro@mail.ensa-nancy.fr/Other computers/My MacBook Air/ANRT/Other/Work/Noto/2_Research/1_Character samples/Simple characters/Document 39/Samples/i_D39_214.jpg";
locked = 1;
pos = (-1937,-686);
scale = (52,52);
};
layerId = "586FBEC3-08FE-43CD-9AED-123BA94FAD30";
name = "Apr 23, 24 at 14:32";
shapes = (
{
closed = 1;
nodes = (
(-1235,-676,o),
(141,-361,o),
(414,-307,cs),
(798,-232,o),
(917,-96,o),
(917,-2,cs),
(917,68,o),
(864,135,o),
(697,157,c),
(616,120,l),
(762,106,o),
(799,61,o),
(799,-2,cs),
(799,-70,o),
(739,-174,o),
(353,-259,cs),
(143,-306,o),
(-1339,-610,o),
(-1608,-610,cs),
(-1725,-611,o),
(-1799,-579,o),
(-1798,-509,cs),
(-1799,-450,o),
(-1749,-394,o),
(-1589,-295,c),
(-1611,-261,l),
(-1788,-346,o),
(-1916,-454,o),
(-1916,-548,cs),
(-1916,-629,o),
(-1838,-676,o),
(-1670,-676,cs)
);
},
{
closed = 1;
nodes = (
(651,86,o),
(798,193,o),
(798,309,cs),
(798,424,o),
(675,509,o),
(503,509,cs),
(324,509,o),
(150,396,o),
(150,285,cs),
(150,228,o),
(194,174,o),
(285,174,cs),
(375,174,o),
(414,245,o),
(414,285,cs),
(414,330,o),
(394,376,o),
(302,398,c),
(285,366,l),
(337,404,o),
(407,451,o),
(485,451,cs),
(613,451,o),
(673,375,o),
(673,289,cs),
(673,240,o),
(657,156,o),
(454,75,c),
(475,34,l)
);
}
);
width = 924;
},
{
associatedMasterId = "0C4B00F6-5348-41D6-8EE7-AA18FE59D1B1";
background = {
shapes = (
{
closed = 0;
nodes = (
(404,-312,ls),
(-1083,-603,ls)
);
}
);
};
backgroundImage = {
imagePath = "../../../../Library/CloudStorage/GoogleDrive-fernando.de-moraes-caro@mail.ensa-nancy.fr/Other computers/My MacBook Air/ANRT/Other/Work/Noto/2_Research/1_Character samples/Simple characters/Document 39/Samples/i_D39_214.jpg";
locked = 1;
pos = (-1937,-686);
scale = (52,52);
};
layerId = "DD9ABC03-4607-46B2-AA12-D2301F787F07";
name = "Apr 23, 24 at 15:04";
shapes = (
{
closed = 1;
nodes = (
(-1562,-681,o),
(-1395,-664,o),
(-1082,-602,cs),
(414,-309,ls),
(746,-243,o),
(917,-132,o),
(917,-2,cs),
(917,68,o),
(864,135,o),
(697,157,c),
(616,120,l),
(762,106,o),
(799,61,o),
(799,-2,cs),
(799,-109,o),
(664,-202,o),
(391,-255,cs),
(-1096,-546,ls),
(-1388,-603,o),
(-1529,-615,o),
(-1608,-615,cs),
(-1725,-615,o),
(-1799,-584,o),
(-1798,-514,cs),
(-1799,-455,o),
(-1749,-399,o),
(-1589,-300,c),
(-1611,-266,l),
(-1788,-351,o),
(-1916,-459,o),
(-1916,-553,cs),
(-1916,-634,o),
(-1838,-681,o),
(-1670,-681,cs)
);
},
{
closed = 1;
nodes = (
(619,444,o),
(673,370,o),
(673,285,cs),
(673,198,o),
(612,128,o),
(454,75,c),
(475,34,l),
(681,84,o),
(798,203,o),
(798,305,cs),
(798,423,o),
(689,509,o),
(512,509,cs),
(332,509,o),
(150,385,o),
(150,252,cs),
(150,190,o),
(199,147,o),
(269,147,cs),
(345,148,o),
(409,205,o),
(408,267,cs),
(408,324,o),
(338,371,o),
(244,341,c,{
"Letterink-NibData" = {
AngleInDegrees = "360";
};
}),
(271,310,l),
(303,409,o),
(405,444,o),
(485,444,cs)
);
}
);
width = 924;
},
{
associatedMasterId = "0C4B00F6-5348-41D6-8EE7-AA18FE59D1B1";
background = {
shapes = (
{
closed = 1;
nodes = (
(-1574,-714,o),
(-1392,-692,o),
(-1081,-626,cs),
(411,-309,ls),
(746,-238,o),
(914,-137,o),
(913,-10,cs),
(913,62,o),
(858,144,o),
(693,157,c),
(612,120,l),
(757,116,o),
(797,41,o),
(797,-19,cs),
(797,-128,o),
(663,-196,o),
(387,-255,cs),
(-1095,-570,ls),
(-1386,-631,o),
(-1526,-646,o),
(-1604,-646,cs),
(-1722,-647,o),
(-1796,-615,o),
(-1796,-544,cs),
(-1796,-487,o),
(-1747,-431,o),
(-1589,-332,c),
(-1608,-297,l),
(-1785,-382,o),
(-1914,-490,o),
(-1913,-587,cs),
(-1912,-664,o),
(-1851,-714,o),
(-1684,-714,cs)
);
},
{
closed = 1;
nodes = (
(615,444,o),
(669,357,o),
(669,281,cs),
(669,191,o),
(610,127,o),
(455,81,c),
(469,33,l),
(678,83,o),
(795,197,o),
(794,310,cs),
(794,418,o),
(691,509,o),
(518,509,cs),
(323,509,o),
(146,385,o),
(146,256,cs),
(146,190,o),
(195,147,o),
(263,147,cs),
(341,148,o),
(406,205,o),
(405,264,cs),
(404,324,o),
(335,371,o),
(241,341,c,{
"Letterink-NibData" = {
AngleInDegrees = "360";
};
}),
(267,310,l),
(300,404,o),
(400,444,o),
(488,444,cs)
);
}
);
};
backgroundImage = {
imagePath = "../../../../Library/CloudStorage/GoogleDrive-fernando.de-moraes-caro@mail.ensa-nancy.fr/Other computers/My MacBook Air/ANRT/Other/Work/Noto/2_Research/1_Character samples/Simple characters/Document 39/Samples/i_D39_214.jpg";
locked = 1;
pos = (-1940,-678);
scale = (52,52);
};
layerId = "7E5A858D-F72E-41C5-83FB-0A5CC3A19C98";
name = "Apr 23, 24 at 15:24";
shapes = (
{
closed = 1;
nodes = (
(-1574,-714,o),
(-1392,-692,o),
(-1081,-626,cs),
(411,-309,ls),
(746,-238,o),
(914,-137,o),
(913,-10,cs),
(913,62,o),
(858,144,o),
(693,157,c),
(612,120,l),
(757,116,o),
(797,41,o),
(797,-19,cs),
(797,-128,o),
(663,-196,o),
(387,-255,cs),
(-1095,-570,ls),
(-1386,-631,o),
(-1526,-646,o),
(-1604,-646,cs),
(-1722,-647,o),
(-1796,-615,o),
(-1796,-544,cs),
(-1796,-487,o),
(-1747,-431,o),
(-1589,-332,c),
(-1608,-297,l),
(-1785,-382,o),
(-1914,-490,o),
(-1913,-587,cs),
(-1912,-664,o),
(-1851,-714,o),
(-1684,-714,cs)
);
},
{
closed = 1;
nodes = (
(615,444,o),
(669,357,o),
(669,281,cs),
(669,191,o),
(610,127,o),
(455,81,c),
(469,33,l),
(678,83,o),
(795,197,o),
(794,310,cs),
(794,418,o),
(691,509,o),
(518,509,cs),
(323,509,o),
(146,385,o),
(146,256,cs),
(146,190,o),
(195,147,o),
(263,147,cs),
(341,148,o),
(406,205,o),
(405,264,cs),
(404,324,o),
(335,371,o),
(241,341,c,{
"Letterink-NibData" = {
AngleInDegrees = "360";
};
}),
(267,310,l),
(300,404,o),
(400,444,o),
(488,444,cs)
);
}
);
width = 924;
},
{
associatedMasterId = "0C4B00F6-5348-41D6-8EE7-AA18FE59D1B1";
background = {
shapes = (
{
closed = 1;
nodes = (
(-1592,-730,o),
(-1404,-695,o),
(-1080,-627,cs),
(412,-310,ls),
(766,-235,o),
(916,-130,o),
(916,-24,cs),
(916,59,o),
(820,125,o),
(693,138,c),
(622,86,l),
(731,80,o),
(800,23,o),
(800,-37,cs),
(800,-119,o),
(683,-193,o),
(387,-256,cs),
(-1094,-571,ls),
(-1399,-635,o),
(-1545,-661,o),
(-1633,-661,cs),
(-1727,-662,o),
(-1789,-634,o),
(-1789,-576,cs),
(-1789,-523,o),
(-1737,-472,o),
(-1577,-382,c),
(-1596,-347,l),
(-1774,-425,o),
(-1907,-522,o),
(-1906,-617,cs),
(-1905,-682,o),
(-1843,-730,o),
(-1708,-730,cs)
);
},
{
closed = 1;
nodes = (
(589,443,o),
(660,365,o),
(660,275,cs),
(660,184,o),
(593,100,o),
(449,46,c),
(466,0,l),
(691,68,o),
(786,191,o),
(785,304,cs),
(784,427,o),
(667,508,o),
(506,508,cs),
(317,508,o),
(147,399,o),
(147,282,cs),
(147,219,o),
(196,176,o),
(264,176,cs),
(342,177,o),
(406,235,o),
(405,296,cs),
(404,354,o),
(346,410,o),
(242,370,c,{
"Letterink-NibData" = {
AngleInDegrees = "360";
};
}),
(275,339,l),
(305,412,o),
(393,443,o),
(470,443,cs)
);
}
);
};
backgroundImage = {
imagePath = "../../../../Library/CloudStorage/GoogleDrive-fernando.de-moraes-caro@mail.ensa-nancy.fr/Other computers/My MacBook Air/ANRT/Other/Work/Noto/2_Research/1_Character samples/Simple characters/Document 39/Samples/i_D39_214.jpg";
pos = (-1982,-662);
scale = (52,52);
};
layerId = "891BB3B6-2F25-4BA4-87DD-73AF9D9F21B7";
name = "Apr 24, 24 at 15:54";
shapes = (
{
closed = 1;
nodes = (
(-1592,-730,o),
(-1404,-695,o),
(-1080,-627,cs),
(412,-310,ls),
(766,-235,o),
(916,-140,o),
(916,-17,cs),
(916,69,o),
(820,135,o),
(693,138,c),
(622,86,l),
(731,90,o),
(800,33,o),
(800,-33,cs),
(800,-129,o),
(683,-193,o),
(387,-256,cs),
(-1094,-571,ls),
(-1399,-635,o),
(-1545,-661,o),
(-1624,-661,cs),
(-1727,-662,o),
(-1789,-634,o),
(-1789,-573,cs),
(-1789,-523,o),
(-1737,-472,o),
(-1577,-382,c),
(-1596,-347,l),
(-1774,-425,o),
(-1907,-522,o),
(-1906,-615,cs),
(-1905,-682,o),
(-1843,-730,o),
(-1699,-730,cs)
);
},
{
closed = 1;
nodes = (
(593,443,o),
(660,368,o),
(660,270,cs),
(660,187,o),
(593,100,o),
(449,46,c),
(466,0,l),
(691,68,o),
(786,193,o),
(785,303,cs),
(784,429,o),
(669,508,o),
(500,508,cs),
(319,508,o),
(147,399,o),
(147,285,cs),
(147,219,o),
(196,176,o),
(264,177,cs),
(342,177,o),
(406,235,o),
(405,296,cs),
(404,354,o),
(346,410,o),
(242,370,c,{
"Letterink-NibData" = {
AngleInDegrees = "360";
};
}),
(275,339,l),
(305,412,o),
(397,443,o),
(467,443,cs)
);
}
);
width = 924;
},
{
associatedMasterId = "0C4B00F6-5348-41D6-8EE7-AA18FE59D1B1";
background = {
shapes = (
{
closed = 1;
nodes = (
(889,-150,o),
(889,-22,cs),
(889,55,o),
(798,139,o),
(619,130,c),
(568,78,l),
(709,95,o),
(773,19,o),
(773,-39,cs),
(773,-118,o),
(677,-184,o),
(240,-305,cs),
(-364,-472,o),
(-1079,-627,o),
(-1486,-654,cs),
(-1520,-656,o),
(-1547,-657,o),
(-1574,-657,cs),
(-1709,-657,o),
(-1774,-633,o),
(-1774,-590,cs),
(-1774,-537,o),
(-1676,-472,o),
(-1508,-414,c),
(-1522,-371,l),
(-1757,-452,o),
(-1891,-541,o),
(-1891,-624,cs),
(-1891,-685,o),
(-1817,-720,o),
(-1668,-720,cs),
(-1643,-720,o),
(-1613,-719,o),
(-1564,-716,cs),
(-1093,-684,o),
(-440,-549,o),
(271,-356,cs),
(735,-231,o)
);
},
{
closed = 1;
nodes = (
(116,226,o),
(165,182,o),
(236,182,cs),
(312,182,o),
(374,239,o),
(374,299,cs),
(374,343,o),
(340,391,o),
(278,391,cs),
(259,391,o),
(237,387,o),
(213,376,c,{
"Letterink-NibData" = {
AngleInDegrees = "360";
};
}),
(248,342,l),
(283,416,o),
(372,445,o),
(444,445,cs),
(551,445,o),
(642,364,o),
(642,261,cs),
(642,183,o),
(584,106,o),
(389,55,c),
(402,13,l),
(682,77,o),
(760,183,o),
(760,283,cs),
(760,402,o),
(641,508,o),
(454,508,cs),
(265,508,o),
(116,396,o,{
"Letterink-NibData" = {
AngleInDegrees = "360";
};
}),
(116,289,cs)
);
}
);
};
backgroundImage = {
imagePath = "../../../../Library/CloudStorage/GoogleDrive-fernando.de-moraes-caro@mail.ensa-nancy.fr/Other computers/My MacBook Air/ANRT/Other/Work/Noto/2_Research/1_Character samples/Simple characters/Document 39/Samples/i_D39_214.jpg";
pos = (-2015,-653);
scale = (52,52);
};
layerId = "A8F74641-DF53-4E9C-8499-DC3EE4B0D33D";
name = "Apr 25, 24 at 15:18";
shapes = (
{
closed = 1;
nodes = (
(889,-145,o),
(889,-13,cs),
(889,78,o),
(788,136,o),
(619,128,c),
(568,78,l),
(689,84,o),
(773,45,o),
(773,-30,cs),
(773,-112,o),
(678,-184,o),
(240,-305,cs),
(-373,-475,o),
(-1100,-630,o),
(-1513,-657,cs),
(-1547,-659,o),
(-1574,-660,o),
(-1601,-660,cs),
(-1718,-660,o),
(-1774,-635,o),
(-1774,-590,cs),
(-1774,-537,o),
(-1676,-474,o),
(-1508,-414,c),
(-1522,-371,l),
(-1757,-452,o),
(-1891,-541,o),
(-1891,-624,cs),
(-1891,-685,o),
(-1817,-720,o),
(-1668,-720,cs),
(-1643,-720,o),
(-1613,-719,o),
(-1564,-716,cs),
(-1093,-684,o),
(-440,-549,o),
(271,-356,cs),
(736,-231,o)
);
},
{
closed = 1;
nodes = (
(116,226,o),
(165,182,o),
(236,182,cs),
(312,182,o),
(374,239,o),
(374,299,cs),
(374,343,o),
(340,391,o),
(278,391,cs),
(259,391,o),
(237,387,o),
(213,376,c,{
"Letterink-NibData" = {
AngleInDegrees = "360";
};
}),
(248,342,l),
(285,416,o),
(378,445,o),
(454,445,cs),
(556,445,o),
(642,368,o),
(642,271,cs),
(642,189,o),
(584,108,o),
(389,55,c),
(402,13,l),
(682,79,o),
(760,189,o),
(760,293,cs),
(760,407,o),
(645,508,o),
(464,508,cs),
(269,508,o),
(116,396,o,{
"Letterink-NibData" = {
AngleInDegrees = "360";
};
}),
(116,289,cs)
);
}
);
width = 894;
},
{
associatedMasterId = "0C4B00F6-5348-41D6-8EE7-AA18FE59D1B1";
background = {
shapes = (
{
closed = 1;
nodes = (
(116,230,o),
(165,186,o),
(236,186,cs),
(312,186,o),
(374,243,o),
(374,303,cs),
(374,347,o),
(340,395,o),
(278,395,cs),
(259,395,o),
(237,391,o),
(213,380,c,{
"Letterink-NibData" = {
AngleInDegrees = "360";
};
}),
(248,346,l),
(286,420,o),
(383,449,o),
(452,449,cs),
(560,449,o),
(643,377,o),
(643,285,cs),
(643,209,o),
(583,117,o),
(388,61,c),
(402,17,l),
(687,93,o),
(761,210,o),
(761,307,cs),
(761,415,o),
(649,512,o),
(472,512,cs),
(273,512,o),
(116,400,o,{
"Letterink-NibData" = {
AngleInDegrees = "360";
};
}),
(116,293,cs)
);
},
{
closed = 1;
nodes = (
(726,-233,o),
(872,-115,o),
(872,4,cs),
(871,105,o),
(769,159,o),
(608,139,c),
(553,90,l),
(678,108,o),
(755,71,o),
(755,-5,cs),
(756,-85,o),
(667,-186,o),
(287,-293,cs),
(14,-367,o),
(-249,-412,o),
(-413,-423,cs),
(-442,-424,o),
(-469,-426,o),
(-500,-425,cs),
(-610,-425,o),
(-665,-412,o),
(-665,-372,cs),
(-664,-345,o),
(-639,-311,o),
(-490,-271,c),
(-504,-228,l),
(-724,-291,o),
(-783,-348,o),
(-783,-402,cs),
(-783,-460,o),
(-711,-485,o),
(-565,-486,cs),
(-538,-486,o),
(-508,-484,o),
(-462,-482,cs),
(-266,-469,o),
(-11,-433,o),
(307,-347,cs)
);
}
);
};
backgroundImage = {
angle = 12;
imagePath = "../../../../Library/CloudStorage/GoogleDrive-fernando.de-moraes-caro@mail.ensa-nancy.fr/Other computers/My MacBook Air/ANRT/Other/Work/Noto/2_Research/1_Character samples/Simple characters/Document 39/Samples/i_D39_214.jpg";
pos = (-1858,-1056);
scale = (52,52);
};
layerId = "58A50ED4-0B30-4B9E-8160-AE2E515F40AD";
name = "Apr 25, 24 at 16:03";
shapes = (
{
closed = 1;
nodes = (
(115,227,o),
(164,183,o),
(235,183,cs),
(311,183,o),
(373,240,o),
(373,300,cs),
(373,344,o),
(339,392,o),
(277,392,cs),
(258,392,o),
(236,388,o),
(212,377,c,{
"Letterink-NibData" = {
AngleInDegrees = "360";
};
}),
(247,343,l),
(285,417,o),
(382,446,o),
(451,446,cs),
(559,446,o),
(642,374,o),
(642,282,cs),
(642,206,o),
(582,114,o),
(387,58,c),
(401,14,l),
(686,90,o),
(760,207,o),
(760,304,cs),
(760,412,o),
(648,509,o),
(471,509,cs),
(272,509,o),
(115,397,o,{
"Letterink-NibData" = {
AngleInDegrees = "360";
};
}),
(115,290,cs)
);
},
{
closed = 1;
nodes = (
(745,-232,o),
(890,-114,o),
(890,6,cs),
(890,107,o),
(788,161,o),
(627,141,c),
(572,91,l),
(696,110,o),
(774,72,o),
(774,-3,cs),
(774,-83,o),
(686,-185,o),
(305,-291,cs),
(33,-366,o),
(-231,-410,o),
(-394,-421,cs),
(-423,-423,o),
(-450,-424,o),
(-481,-424,cs),
(-592,-424,o),
(-646,-411,o),
(-646,-371,cs),
(-646,-343,o),
(-620,-309,o),
(-471,-269,c),
(-485,-226,l),
(-705,-289,o),
(-764,-347,o),
(-764,-400,cs),
(-764,-458,o),
(-692,-484,o),
(-546,-484,cs),
(-519,-484,o),
(-489,-483,o),
(-444,-480,cs),
(-247,-467,o),
(8,-431,o),
(326,-345,cs)
);
}
);
width = 894;
}
);
unicode = 71938;
},
{
color = 0;
glyphname = "u-divesakuru";
lastChange = "2024-04-25 13:12:22 +0000";
layers = (
{
background = {
shapes = (
{
closed = 1;
nodes = (
(1032,-710,o),
(1247,-667,o),
(1423,-613,c),
(1414,-568,l),
(1205,-623,o),
(1041,-650,o),
(928,-650,cs),
(739,-650,o),
(692,-593,o),
(692,-499,cs),
(692,-336,o),
(882,94,o),
(883,293,cs),
(883,433,o),
(776,509,o),
(650,509,cs),
(592,509,o),
(508,492,o),
(427,458,c),
(427,446,l),
(467,416,o),
(496,358,o),
(496,304,cs),
(496,219,o),
(422,143,o),
(318,143,cs),
(244,143,o),
(204,184,o),
(204,233,cs),
(204,271,o),
(228,304,o),
(300,335,c,{
"Letterink-NibData" = {
AngleInDegrees = "360";
};
}),
(289,372,l),
(140,333,o),
(88,268,o),
(88,206,cs),
(88,130,o),
(170,79,o),
(282,78,cs),
(459,77,o),
(610,202,o),
(610,334,cs),
(610,398,o),
(575,443,o),
(534,471,c),
(534,448,l),
(558,453,o),
(583,456,o),
(604,456,cs),
(707,456,o),
(775,383,o),
(775,274,cs),
(775,87,o),
(584,-340,o),
(584,-518,cs),
(584,-627,o),
(660,-710,o),
(876,-710,cs)
);
}
);
};
layerId = "0C4B00F6-5348-41D6-8EE7-AA18FE59D1B1";
shapes = (
{
closed = 1;
nodes = (
(534,448,l),
(558,453,o),
(583,456,o),
(604,456,cs),
(707,456,o),
(775,383,o),
(775,274,cs),
(775,87,o),
(584,-340,o),
(584,-518,cs),
(584,-627,o),
(660,-710,o),
(876,-710,cs),
(1032,-710,o),
(1247,-667,o),
(1423,-613,c),
(1414,-568,l),
(1205,-623,o),
(1041,-650,o),
(928,-650,cs),
(739,-650,o),
(692,-593,o),
(692,-499,cs),
(692,-336,o),
(882,94,o),
(883,293,cs),
(883,433,o),
(776,509,o),
(650,509,cs),
(592,509,o),
(508,492,o),
(427,458,c),
(427,446,l),
(467,416,o),
(496,360,o),
(496,304,cs),
(496,208,o),
(409,143,o),
(318,143,cs),
(245,143,o),
(204,184,o),
(204,229,cs),
(204,279,o),
(244,312,o),
(304,329,c,{
"Letterink-NibData" = {
AngleInDegrees = "360";
};
}),
(298,368,l),
(187,353,o),
(88,295,o),
(88,209,cs),
(88,137,o),
(163,78,o),
(280,78,cs),
(446,78,o),
(610,191,o),
(610,334,cs),
(610,400,o),
(575,443,o),
(534,471,c)
);
}
);
width = 940;
}
);
unicode = 71940;
},
{
glyphname = "uu-divesakuru";
lastChange = "2024-05-02 07:25:03 +0000";
layers = (
{
backgroundImage = {
imagePath = "../../../../Library/CloudStorage/GoogleDrive-fernando.de-moraes-caro@mail.ensa-nancy.fr/Other computers/My MacBook Air/ANRT/Other/Work/Noto/2_Research/1_Character samples/Simple characters/Document 32/Samples/g_D32_429.jpg";
locked = 1;
pos = (0,-822);
scale = (52,52);
};
layerId = "0C4B00F6-5348-41D6-8EE7-AA18FE59D1B1";
shapes = (
{
closed = 1;
nodes = (
(1919,-713,l),
(1193,-792,o),
(1124,-586,o),
(1124,-472,cs),
(1124,-336,o),
(1223,-41,o),
(1223,122,cs),
(1223,326,o),
(1069,375,o),
(940,375,cs),
(866,375,o),
(769,359,o),
(681,328,c),
(716,224,l),
(773,246,o),
(866,272,o),
(943,272,cs),
(1034,272,o),
(1054,235,o),
(1054,145,cs),
(1054,-50,o),
(960,-377,o),
(960,-517,cs),
(960,-802,o),
(1351,-797,o),
(1923,-730,c)
);
},
{
closed = 1;
nodes = (
(833,-364,o),
(942,-328,o),
(1031,-276,c),
(1025,-177,l),
(962,-256,o),
(894,-314,o),
(864,-314,cs),
(842,-314,o),
(820,-283,o),
(820,-247,cs),
(820,-185,o),
(886,-160,o),
(1030,-167,c),
(1064,-118,l),
(802,-111,o),
(669,-168,o),
(669,-277,cs),
(669,-336,o),
(707,-364,o),
(766,-364,cs)
);
}
);
width = 2038;
}
);
unicode = 71941;
},
{
color = 0;
glyphname = "e-divesakuru";
lastChange = "2024-04-18 11:03:01 +0000";
layers = (
{
background = {
shapes = (
{
closed = 1;
nodes = (
(613,-15,o),
(741,37,o),
(830,96,c),
(880,130,l),
(999,200,o),
(1077,277,o),
(1077,356,cs),
(1077,459,o),
(960,509,o),
(729,509,cs),
(405,509,o),
(51,408,o),
(51,255,cs),
(51,159,o),
(192,133,o),
(281,133,cs),
(286,133,o),
(296,133,o),
(304,134,c,{
"Letterink-NibData" = {
AngleInDegrees = "360";
};
}),
(321,160,l),
(206,182,o),
(169,227,o),
(169,275,cs),
(169,388,o),
(454,447,o),
(694,447,cs),
(907,447,o),
(964,400,o),
(964,326,cs),
(964,268,o),
(921,223,o),
(851,177,c),
(784,135,l),
(733,96,o),
(624,46,o),
(537,46,cs,{
"Letterink-NibData" = {
AngleInDegrees = "360";
};
}),
(434,46,o),
(383,107,o),
(383,166,cs,{
"Letterink-NibData" = {
AngleInDegrees = "360";
};
}),
(383,226,o),
(435,277,o),
(515,277,cs),
(585,277,o),
(642,227,o),
(704,173,cs),
(783,105,o),
(845,46,o),
(968,46,cs,{
"Letterink-NibData" = {
AngleInDegrees = "360";
};
}),
(1202,46,o),
(1467,244,o),
(1467,415,cs),
(1467,466,o),
(1437,500,o),
(1366,500,cs),
(1308,500,o),
(1231,482,o),
(1174,465,c),
(1182,427,l,{
"Letterink-NibData" = {
AngleInDegrees = "360";
};
}),
(1225,436,o),
(1263,441,o),
(1290,441,cs),
(1333,441,o),
(1356,428,o),
(1356,389,cs),
(1356,260,o),
(1172,113,o),
(1006,113,cs),
(933,113,o),
(879,160,o),
(821,212,cs),
(752,273,o),
(680,341,o),
(563,341,cs),
(417,341,o),
(270,258,o),
(270,145,cs),
(270,58,o),
(357,-15,o),
(498,-15,cs,{
"Letterink-NibData" = {
AngleInDegrees = "360";
};
})
);
}
);
};
layerId = "0C4B00F6-5348-41D6-8EE7-AA18FE59D1B1";
shapes = (
{
closed = 1;
nodes = (
(664,-17,o),
(781,37,o),
(878,110,c),
(913,137,l),
(1005,200,o),
(1077,272,o),
(1077,351,cs),
(1077,453,o),
(959,507,o),
(777,507,cs),
(614,507,o),
(456,464,o),
(375,431,c,{
"Letterink-NibData" = {
AngleInDegrees = 360;
};
}),
(375,419,l),
(415,392,o),
(444,340,o),
(444,292,cs),
(444,215,o),
(370,146,o),
(268,146,cs),
(192,146,o),
(152,187,o),
(152,236,cs),
(152,269,o),
(169,306,o),
(252,327,c,{
"Letterink-NibData" = {
AngleInDegrees = "360";
};
}),
(246,366,l),
(81,342,o),
(36,269,o),
(36,215,cs),
(36,133,o),
(118,82,o),
(227,81,cs),
(298,81,o),
(361,101,o),
(412,135,c),
(456,227,l),
(540,276,l),
(544,291,o),
(546,305,o),
(546,319,cs),
(546,383,o),
(505,428,o),
(458,456,c),
(446,390,l),
(487,409,o),
(592,445,o),
(732,445,cs),
(891,445,o),
(966,397,o),
(966,318,cs),
(966,276,o),
(947,230,o),
(876,176,c),
(823,146,l,{
"Letterink-NibData" = {
AngleInDegrees = 360;
};
}),
(778,98,o),
(673,46,o),
(590,46,cs,{
"Letterink-NibData" = {
AngleInDegrees = 360;
};
}),
(511,46,o),
(454,93,o),
(455,151,cs,{
"Letterink-NibData" = {
AngleInDegrees = 360;
};
}),
(456,208,o),
(511,249,o),
(583,249,cs),
(654,249,o),
(705,208,o),
(758,163,cs),
(821,109,o),
(885,48,o),
(1012,50,cs,{
"Letterink-NibData" = {
AngleInDegrees = 360;
};
}),
(1210,54,o),
(1467,251,o),
(1467,412,cs),
(1467,469,o),
(1437,500,o),
(1361,500,cs),
(1308,500,o),
(1231,482,o),
(1174,465,c),
(1182,427,l,{
"Letterink-NibData" = {
AngleInDegrees = "360";
};
}),
(1225,436,o),
(1263,441,o),
(1286,441,cs),
(1333,441,o),
(1356,430,o),
(1356,386,cs),
(1356,261,o),
(1164,112,o),
(1037,116,cs),
(974,118,o),
(929,155,o),
(867,208,cs),
(817,251,o),
(747,312,o),
(639,314,cs),
(591,315,o),
(539,301,o),
(495,273,c),
(357,130,l),
(348,38,o),
(433,-13,o),
(548,-15,cs,{
"Letterink-NibData" = {
AngleInDegrees = 360;
};
})
);
}
);
width = 1500;
},
{
associatedMasterId = "0C4B00F6-5348-41D6-8EE7-AA18FE59D1B1";
background = {
shapes = (
{
closed = 1;
nodes = (
(1356,268,o),
(1160,122,o),
(1039,126,cs),
(989,127,o),
(943,154,o),
(900,187,cs),
(831,241,o),
(769,311,o),
(659,314,cs),
(593,315,o),
(528,292,o),
(480,247,c),
(397,132,l),
(395,41,o),
(487,-13,o),
(586,-15,cs,{
"Letterink-NibData" = {
AngleInDegrees = "360";
};
}),
(699,-18,o),
(812,37,o),
(905,110,c),
(933,137,l),
(1014,197,o),
(1077,272,o),
(1077,348,cs),
(1077,453,o),
(959,507,o),
(786,507,cs),
(631,507,o),
(488,464,o),
(415,431,c,{
"Letterink-NibData" = {
AngleInDegrees = "360";
};
}),
(415,419,l),
(455,392,o),
(484,340,o),
(484,292,cs),
(484,215,o),
(410,146,o),
(310,146,cs),
(232,146,o),
(192,188,o),
(192,239,cs),
(192,278,o),
(216,312,o),
(288,344,c,{
"Letterink-NibData" = {
AngleInDegrees = "360";
};
}),
(277,381,l),
(128,341,o),
(76,275,o),
(76,212,cs),
(76,134,o),
(158,82,o),
(269,81,cs),
(338,81,o),
(401,101,o),
(452,135,c),
(496,227,l),
(580,276,l),
(584,291,o),
(586,305,o),
(586,320,cs),
(586,385,o),
(551,431,o),
(510,460,c),
(486,386,l),
(527,407,o),
(613,445,o),
(743,445,cs),
(891,445,o),
(966,395,o),
(966,312,cs),
(966,279,o),
(954,222,o),
(896,173,c),
(850,143,l,{
"Letterink-NibData" = {
AngleInDegrees = "360";
};
}),
(806,97,o),
(703,46,o),
(620,46,cs,{
"Letterink-NibData" = {
AngleInDegrees = "360";
};
}),
(542,46,o),
(494,102,o),
(495,157,cs,{
"Letterink-NibData" = {
AngleInDegrees = "360";
};
}),
(496,207,o),
(540,249,o),
(601,249,cs),
(666,249,o),
(727,202,o),
(792,147,cs),
(866,84,o),
(920,57,o),
(1005,59,cs,{
"Letterink-NibData" = {
AngleInDegrees = "360";
};
}),
(1219,63,o),
(1467,261,o),
(1467,411,cs),
(1467,463,o),
(1437,500,o),
(1361,500,cs),
(1308,500,o),
(1231,482,o),
(1174,465,c),
(1182,427,l,{
"Letterink-NibData" = {
AngleInDegrees = "360";
};
}),
(1225,436,o),
(1263,441,o),
(1286,441,cs),
(1333,441,o),
(1356,420,o),
(1356,381,cs)
);
}
);
};
layerId = "F6CD0C31-E37E-417A-8C34-8A4A5744E565";
name = "Apr 11, 24 at 11:08";
shapes = (
{
closed = 1;
nodes = (
(1356,268,o),
(1160,123,o),
(1039,126,cs),
(972,127,o),
(921,169,o),
(868,213,cs),
(811,261,o),
(749,311,o),
(659,314,cs),
(593,316,o),
(528,292,o),
(480,247,c),
(397,132,l),
(395,41,o),
(487,-13,o),
(586,-15,cs,{
"Letterink-NibData" = {
AngleInDegrees = 360;
};
}),
(699,-18,o),
(812,37,o),
(905,110,c),
(933,137,l),
(1014,197,o),
(1077,272,o),
(1077,348,cs),
(1077,453,o),
(959,507,o),
(786,507,cs),
(631,507,o),
(488,464,o),
(415,431,c,{
"Letterink-NibData" = {
AngleInDegrees = 360;
};
}),
(415,419,l),
(455,392,o),
(484,340,o),
(484,292,cs),
(484,215,o),
(410,146,o),
(310,146,cs),
(232,146,o),
(192,188,o),
(192,239,cs),
(192,278,o),
(216,312,o),
(288,344,c,{
"Letterink-NibData" = {
AngleInDegrees = "360";
};
}),
(277,381,l),
(128,341,o),
(76,275,o),
(76,212,cs),
(76,134,o),
(158,82,o),
(269,81,cs),
(338,81,o),
(401,101,o),
(452,135,c),
(496,227,l),
(580,276,l),
(584,291,o),
(586,305,o),
(586,320,cs),
(586,385,o),
(551,431,o),
(510,460,c),
(486,386,l),
(527,407,o),
(613,445,o),
(743,445,cs),
(891,445,o),
(966,395,o),
(966,312,cs),
(966,279,o),
(954,222,o),
(896,173,c),
(850,143,l,{
"Letterink-NibData" = {
AngleInDegrees = 360;
};
}),
(806,97,o),
(703,46,o),
(620,46,cs,{
"Letterink-NibData" = {
AngleInDegrees = 360;
};
}),
(542,46,o),
(494,102,o),
(495,157,cs,{
"Letterink-NibData" = {
AngleInDegrees = 360;
};
}),
(496,207,o),
(540,249,o),
(601,249,cs),
(668,249,o),
(717,209,o),
(769,166,cs),
(831,114,o),
(897,57,o),
(1002,59,cs,{
"Letterink-NibData" = {
AngleInDegrees = 360;
};
}),
(1219,64,o),
(1467,261,o),
(1467,411,cs),
(1467,463,o),
(1437,500,o),
(1361,500,cs),
(1308,500,o),
(1231,482,o),
(1174,465,c),
(1182,427,l,{
"Letterink-NibData" = {
AngleInDegrees = "360";
};
}),
(1225,436,o),
(1263,441,o),
(1286,441,cs),
(1333,441,o),
(1356,420,o),
(1356,381,cs)
);
}
);
width = 1500;
},
{
associatedMasterId = "0C4B00F6-5348-41D6-8EE7-AA18FE59D1B1";
background = {
shapes = (
{
closed = 1;
nodes = (
(908,-380,o),
(1126,-247,o),
(1126,-132,cs),
(1126,-83,o),
(1087,-45,o),
(987,-45,cs),
(920,-45,o),
(799,-65,o),
(649,-112,c,{
"Letterink-NibData" = {
AngleInDegrees = "360";
};
}),
(661,-156,l,{
"Letterink-NibData" = {
AngleInDegrees = "360";
};
}),
(771,-127,o),
(877,-109,o),
(934,-109,cs),
(987,-109,o),
(1013,-127,o),
(1013,-153,cs),
(1013,-226,o),
(841,-320,o),
(573,-320,cs),
(358,-320,o),
(257,-262,o),
(257,-188,cs),
(257,-128,o),
(322,-103,o),
(415,-70,cs),
(587,-11,o),
(806,89,o),
(806,282,cs),
(806,394,o),
(715,496,o),
(556,496,cs),
(493,496,o),
(426,480,o),
(374,456,c),
(374,444,l),
(414,414,o),
(443,356,o),
(443,302,cs),
(443,204,o),
(356,141,o),
(265,141,cs),
(189,141,o),
(151,191,o),
(151,238,cs),
(151,288,o),
(200,314,o),
(251,327,c,{
"Letterink-NibData" = {
AngleInDegrees = "360";
};
}),
(245,366,l),
(144,353,o),
(35,304,o),
(35,215,cs),
(35,144,o),
(107,76,o),
(227,76,cs),
(393,76,o),
(557,187,o),
(557,332,cs),
(557,396,o),
(522,441,o),
(481,469,c),
(475,446,l),
(599,461,o),
(688,377,o),
(688,262,cs),
(688,104,o),
(515,23,o),
(359,-27,cs),
(241,-67,o),
(139,-106,o),
(139,-194,cs),
(139,-306,o),
(292,-380,o),
(549,-380,cs)
);
}
);
};
layerId = "17458012-B313-4659-A746-47232FD3F199";
name = "Apr 16, 24 at 17:22";
shapes = (
{
closed = 1;
nodes = (
(664,-17,o),
(781,37,o),
(878,110,c),
(913,137,l),
(1005,200,o),
(1077,272,o),
(1077,351,cs),
(1077,453,o),
(959,507,o),
(777,507,cs),
(614,507,o),
(456,464,o),
(375,431,c,{
"Letterink-NibData" = {
AngleInDegrees = 360;
};
}),
(375,419,l),
(415,392,o),
(444,340,o),
(444,292,cs),
(444,215,o),
(370,146,o),
(268,146,cs),
(192,146,o),
(152,185,o),
(152,232,cs),
(152,268,o),
(176,300,o),
(248,330,c,{
"Letterink-NibData" = {
AngleInDegrees = "360";
};
}),
(237,367,l),
(88,329,o),
(36,266,o),
(36,206,cs),
(36,131,o),
(118,82,o),
(227,81,cs),
(298,81,o),
(361,101,o),
(412,135,c),
(456,227,l),
(540,276,l),
(544,291,o),
(546,305,o),
(546,319,cs),
(546,383,o),
(505,428,o),
(458,456,c),
(446,390,l),
(487,409,o),
(592,445,o),
(732,445,cs),
(891,445,o),
(966,397,o),
(966,318,cs),
(966,276,o),
(947,230,o),
(876,176,c),
(823,146,l,{
"Letterink-NibData" = {
AngleInDegrees = 360;
};
}),
(778,98,o),
(673,46,o),
(590,46,cs,{
"Letterink-NibData" = {
AngleInDegrees = 360;
};
}),
(511,46,o),
(454,93,o),
(455,151,cs,{
"Letterink-NibData" = {
AngleInDegrees = 360;
};
}),
(456,208,o),
(511,249,o),
(583,249,cs),
(654,249,o),
(705,208,o),
(758,163,cs),
(821,109,o),
(885,48,o),
(1005,50,cs,{
"Letterink-NibData" = {
AngleInDegrees = 360;
};
}),
(1210,54,o),
(1467,256,o),
(1467,410,cs),
(1467,463,o),
(1437,500,o),
(1361,500,cs),
(1308,500,o),
(1231,482,o),
(1174,465,c),
(1182,427,l,{
"Letterink-NibData" = {
AngleInDegrees = "360";
};
}),
(1225,436,o),
(1263,441,o),
(1286,441,cs),
(1333,441,o),
(1356,420,o),
(1356,380,cs),
(1356,263,o),
(1164,112,o),
(1035,116,cs),
(974,118,o),
(929,155,o),
(867,208,cs),
(817,251,o),
(747,312,o),
(639,314,cs),
(591,315,o),
(539,301,o),
(495,273,c),
(357,130,l),
(348,38,o),
(433,-13,o),
(548,-15,cs,{
"Letterink-NibData" = {
AngleInDegrees = 360;
};
})
);
}
);
width = 1500;
}
);
unicode = 71942;
},
{
color = 0;
glyphname = "ka-divesakuru";
lastChange = "2024-05-01 10:26:28 +0000";
layers = (
{
associatedMasterId = "0C4B00F6-5348-41D6-8EE7-AA18FE59D1B1";
background = {
shapes = (
{
closed = 1;
nodes = (
(787,-213,o),
(1367,48,o),
(1367,355,cs),
(1367,486,o),
(1262,574,o),
(1085,574,cs),
(818,574,o),
(317,375,o),
(317,160,cs),
(317,79,o),
(386,-1,o),
(532,-1,cs),
(691,-1,o),
(832,91,o),
(832,201,cs),
(832,266,o),
(782,325,o),
(726,352,c,{
"Letterink-NibData" = {
AngleInDegrees = "360";
};
}),
(584,317,l,{
"Letterink-NibData" = {
AngleInDegrees = "360";
};
}),
(584,299,l),
(636,271,o),
(678,215,o),
(678,156,cs),
(678,102,o),
(630,59,o),
(580,59,cs),
(509,59,o),
(465,131,o),
(465,196,cs),
(465,387,o),
(840,509,o),
(1004,509,cs),
(1151,509,o),
(1218,411,o),
(1218,310,cs),
(1218,56,o),
(770,-140,o),
(476,-140,cs),
(323,-140,o),
(277,-87,o),
(277,-27,cs),
(277,16,o),
(301,57,o),
(361,90,c),
(342,127,l),
(238,81,o),
(131,4,o),
(136,-88,cs),
(139,-162,o),
(215,-213,o),
(376,-213,cs)
);
},
{
closed = 1;
nodes = (
(312,166,o),
(334,167,o),
(350,168,c,{
"Letterink-NibData" = {
AngleInDegrees = "360";
};
}),
(351,208,l),
(267,220,o),
(221,257,o),
(221,303,cs),
(221,396,o),
(479,453,o),
(727,453,cs),
(851,453,o),
(906,376,o),
(906,310,cs),
(906,249,o),
(864,211,o),
(807,215,c,{
"Letterink-NibData" = {
AngleInDegrees = "360";
};
}),
(807,167,l,{
"Letterink-NibData" = {
AngleInDegrees = "360";
};
}),
(964,167,o),
(1058,253,o),
(1058,338,cs),
(1058,402,o),
(1008,485,o),
(826,489,c),
(741,506,l),
(348,506,o),
(73,387,o),
(73,275,cs),
(73,189,o),
(197,166,o),
(290,166,cs)
);
}
);
};
layerId = "03597498-D6E2-48A6-84F1-1F72286A0A00";
name = "Apr 14, 24 at 21:02";
shapes = (
{
closed = 1;
nodes = (
(783,-213,o),
(1327,48,o),
(1327,357,cs),
(1327,495,o),
(1218,589,o),
(1033,589,cs),
(791,589,o),
(321,381,o),
(321,155,cs),
(321,70,o),
(404,-15,o),
(544,-15,cs),
(686,-15,o),
(811,83,o),
(811,199,cs),
(811,264,o),
(763,323,o),
(709,349,c,{
"Letterink-NibData" = {
AngleInDegrees = "360";
};
}),
(605,322,l,{
"Letterink-NibData" = {
AngleInDegrees = "360";
};
}),
(605,310,l),
(660,279,o),
(697,225,o),
(697,169,cs),
(697,98,o),
(635,48,o),
(569,48,cs),
(486,48,o),
(435,112,o),
(435,175,cs),
(435,381,o),
(825,530,o),
(992,530,cs),
(1147,530,o),
(1218,423,o),
(1218,322,cs),
(1218,43,o),
(700,-152,o),
(432,-152,cs),
(289,-152,o),
(247,-100,o),
(247,-48,cs),
(247,2,o),
(288,57,o),
(361,90,c),
(342,127,l),
(238,83,o),
(131,10,o),
(135,-83,cs),
(139,-158,o),
(216,-213,o),
(394,-213,cs)
);
},
{
closed = 1;
nodes = (
(300,166,o),
(322,167,o),
(338,168,c,{
"Letterink-NibData" = {
AngleInDegrees = "360";
};
}),
(339,204,l),
(232,217,o),
(192,255,o),
(192,292,cs),
(192,382,o),
(466,453,o),
(731,453,cs),
(854,453,o),
(931,387,o),
(931,315,cs),
(931,247,o),
(864,200,o),
(789,213,c,{
"Letterink-NibData" = {
AngleInDegrees = "360";
};
}),
(789,168,l,{
"Letterink-NibData" = {
AngleInDegrees = "360";
};
}),
(938,159,o),
(1048,252,o),
(1048,335,cs),
(1048,410,o),
(992,497,o),
(733,497,c),
(687,504,l),
(342,500,o),
(74,386,o),
(74,275,cs),
(74,189,o),
(190,166,o),
(277,166,cs)
);
}
);
width = 1440;
},
{
associatedMasterId = "0C4B00F6-5348-41D6-8EE7-AA18FE59D1B1";
background = {
shapes = (
{
closed = 1;
nodes = (
(334,-146,o),
(396,-152,o),
(464,-152,cs),
(804,-152,o),
(1275,-10,o),
(1332,259,cs),
(1335,274,o),
(1337,289,o),
(1337,304,cs),
(1337,409,o),
(1251,494,o),
(1093,527,cs),
(1055,535,o),
(1010,539,o),
(961,539,cs),
(706,539,o),
(347,432,o),
(306,240,cs),
(304,231,o),
(303,222,o),
(303,213,cs),
(303,136,o),
(367,54,o),
(489,28,cs),
(511,23,o),
(533,21,o),
(554,21,cs),
(670,21,o),
(775,86,o),
(795,182,cs),
(797,190,o),
(798,199,o),
(798,208,cs),
(798,267,o),
(758,328,o),
(717,360,c,{
"Letterink-NibData" = {
AngleInDegrees = "360";
};
}),
(609,355,l,{
"Letterink-NibData" = {
AngleInDegrees = "360";
};
}),
(607,344,l),
(648,308,o),
(679,252,o),
(679,200,cs),
(679,125,o),
(617,81,o),
(555,81,cs),
(545,81,o),
(536,82,o),
(527,84,cs),
(456,99,o),
(419,156,o),
(419,211,cs),
(419,220,o),
(420,228,o),
(422,236,cs),
(459,411,o),
(751,487,o),
(942,487,cs),
(980,487,o),
(1014,484,o),
(1041,478,cs),
(1170,451,o),
(1222,369,o),
(1222,288,cs),
(1222,274,o),
(1221,260,o),
(1218,247,cs),
(1165,0,o),
(722,-94,o),
(461,-94,cs),
(409,-94,o),
(364,-90,o),
(331,-83,cs),
(224,-60,o),
(190,-10,o),
(190,36,cs),
(190,43,o),
(191,50,o),
(192,57,cs),
(202,106,o),
(254,151,o),
(332,169,c),
(321,209,l),
(203,186,o),
(73,131,o),
(73,27,cs),
(73,-40,o),
(134,-104,o),
(281,-135,cs)
);
},
{
closed = 1;
nodes = (
(288,256,o),
(310,252,o),
(326,250,c,{
"Letterink-NibData" = {
AngleInDegrees = "360";
};
}),
(334,285,l),
(242,317,o),
(208,356,o),
(208,390,cs),
(208,394,o),
(208,397,o),
(209,401,cs),
(220,457,o),
(341,486,o),
(496,486,cs),
(587,486,o),
(690,476,o),
(789,455,cs),
(878,436,o),
(929,361,o),
(929,296,cs),
(929,230,o),
(880,190,o),
(825,190,cs),
(809,190,o),
(792,193,o),
(776,200,c,{
"Letterink-NibData" = {
AngleInDegrees = "360";
};
}),
(767,156,l,{
"Letterink-NibData" = {
AngleInDegrees = "360";
};
}),
(795,148,o),
(822,144,o),
(848,144,cs),
(950,144,o),
(1031,201,o),
(1045,266,cs),
(1047,276,o),
(1048,286,o),
(1048,296,cs),
(1048,366,o),
(998,453,o),
(800,498,c),
(727,506,l),
(627,526,o),
(532,536,o),
(447,536,cs),
(249,536,o),
(106,485,o),
(90,409,cs),
(89,403,o),
(88,397,o),
(88,391,cs),
(88,318,o),
(186,277,o),
(265,260,cs)
);
}
);
};
layerId = "EC6AC7A2-D9E5-4AD8-8FAB-BCACE21B4E8C";
name = "Apr 14, 24 at 21:35";
shapes = (
{
closed = 1;
nodes = (
(273,-152,o),
(424,-152,cs),
(763,-152,o),
(1337,57,o),
(1337,339,cs),
(1337,505,o),
(1144,563,o),
(997,563,cs),
(739,563,o),
(303,432,o),
(303,195,cs),
(303,77,o),
(428,21,o),
(524,21,cs),
(660,21,o),
(798,103,o),
(798,218,cs),
(798,273,o),
(758,330,o),
(717,360,c,{
"Letterink-NibData" = {
AngleInDegrees = "360";
};
}),
(609,355,l,{
"Letterink-NibData" = {
AngleInDegrees = "360";
};
}),
(607,344,l),
(648,309,o),
(679,253,o),
(679,202,cs),
(679,126,o),
(617,81,o),
(554,81,cs),
(474,81,o),
(419,138,o),
(419,211,cs),
(419,408,o),
(761,507,o),
(962,507,cs),
(1091,507,o),
(1222,449,o),
(1222,323,cs),
(1222,70,o),
(731,-94,o),
(451,-94,cs),
(332,-94,o),
(190,-63,o),
(190,26,cs),
(190,79,o),
(256,130,o),
(332,169,c),
(321,209,l),
(203,161,o),
(73,95,o),
(73,-3,cs),
(73,-122,o)
);
},
{
closed = 1;
nodes = (
(250,261,o),
(326,250,c,{
"Letterink-NibData" = {
AngleInDegrees = "360";
};
}),
(334,285,l),
(253,316,o),
(208,355,o),
(208,395,cs),
(208,476,o),
(397,486,o),
(476,486,cs),
(550,486,o),
(613,481,o),
(666,478,cs),
(863,468,o),
(927,376,o),
(927,300,cs),
(927,253,o),
(887,198,o),
(831,196,cs),
(812,195,o),
(791,197,o),
(772,203,c,{
"Letterink-NibData" = {
AngleInDegrees = "360";
};
}),
(773,158,l,{
"Letterink-NibData" = {
AngleInDegrees = "360";
};
}),
(798,152,o),
(821,150,o),
(844,151,cs),
(951,156,o),
(1046,223,o),
(1046,316,cs),
(1046,405,o),
(954,477,o),
(810,497,c),
(763,518,l),
(681,531,o),
(585,536,o),
(482,536,cs),
(288,536,o),
(88,509,o),
(88,391,cs),
(88,293,o)
);
}
);
width = 1440;
},
{
associatedMasterId = "0C4B00F6-5348-41D6-8EE7-AA18FE59D1B1";
background = {
shapes = (
{
closed = 1;
nodes = (
(334,-146,o),
(396,-152,o),
(464,-152,cs),
(804,-152,o),
(1275,-10,o),
(1332,259,cs),
(1335,274,o),
(1337,289,o),
(1337,304,cs),
(1337,409,o),
(1251,494,o),
(1093,527,cs),
(1055,535,o),
(1010,539,o),
(961,539,cs),
(706,539,o),
(347,432,o),
(306,240,cs),
(304,231,o),
(303,222,o),
(303,213,cs),
(303,136,o),
(367,54,o),
(489,28,cs),
(511,23,o),
(533,21,o),
(554,21,cs),
(670,21,o),
(775,86,o),
(795,182,cs),
(797,190,o),
(798,199,o),
(798,208,cs),
(798,267,o),
(758,328,o),
(717,360,c,{
"Letterink-NibData" = {
AngleInDegrees = "360";
};
}),
(609,355,l,{
"Letterink-NibData" = {
AngleInDegrees = "360";
};
}),
(607,344,l),
(648,308,o),
(679,252,o),
(679,200,cs),
(679,125,o),
(617,81,o),
(555,81,cs),
(545,81,o),
(536,82,o),
(527,84,cs),
(456,99,o),
(419,156,o),
(419,211,cs),
(419,220,o),
(420,228,o),
(422,236,cs),
(459,411,o),
(751,487,o),
(942,487,cs),
(980,487,o),
(1014,484,o),
(1041,478,cs),
(1170,451,o),
(1222,369,o),
(1222,288,cs),
(1222,274,o),
(1221,260,o),
(1218,247,cs),
(1165,0,o),
(722,-94,o),
(461,-94,cs),
(409,-94,o),
(364,-90,o),
(331,-83,cs),
(224,-60,o),
(190,-10,o),
(190,36,cs),
(190,43,o),
(191,50,o),
(192,57,cs),
(202,106,o),
(254,151,o),
(332,169,c),
(321,209,l),
(203,186,o),
(73,131,o),
(73,27,cs),
(73,-40,o),
(134,-104,o),
(281,-135,cs)
);
},
{
closed = 1;
nodes = (
(288,256,o),
(310,252,o),
(326,250,c,{
"Letterink-NibData" = {
AngleInDegrees = "360";
};
}),
(334,285,l),
(242,317,o),
(208,356,o),
(208,390,cs),
(208,394,o),
(208,397,o),
(209,401,cs),
(220,457,o),
(341,486,o),
(496,486,cs),
(587,486,o),
(690,476,o),
(789,455,cs),
(878,436,o),
(929,361,o),
(929,296,cs),
(929,230,o),
(880,190,o),
(825,190,cs),
(809,190,o),
(792,193,o),
(776,200,c,{
"Letterink-NibData" = {
AngleInDegrees = "360";
};
}),
(767,156,l,{
"Letterink-NibData" = {
AngleInDegrees = "360";
};
}),
(795,148,o),
(822,144,o),
(848,144,cs),
(950,144,o),
(1031,201,o),
(1045,266,cs),
(1047,276,o),
(1048,286,o),
(1048,296,cs),
(1048,366,o),
(998,453,o),
(800,498,c),
(727,506,l),
(627,526,o),
(532,536,o),
(447,536,cs),
(249,536,o),
(106,485,o),
(90,409,cs),
(89,403,o),
(88,397,o),
(88,391,cs),
(88,318,o),
(186,277,o),
(265,260,cs)
);
}
);
};
layerId = "9A47D7BC-4E0C-4571-B059-3D7571556B90";
name = "Apr 14, 24 at 21:35";
shapes = (
{
closed = 1;
nodes = (
(233,-152,o),
(354,-152,cs),
(722,-152,o),
(1318,57,o),
(1318,339,cs),
(1318,486,o),
(1153,541,o),
(1033,541,cs),
(889,541,o),
(697,492,o),
(554,435,cs),
(409,378,o),
(303,305,o),
(303,195,cs),
(303,77,o),
(428,21,o),
(524,21,cs),
(660,21,o),
(798,103,o),
(798,218,cs),
(798,273,o),
(758,330,o),
(717,360,c,{
"Letterink-NibData" = {
AngleInDegrees = "360";
};
}),
(610,338,l,{
"Letterink-NibData" = {
AngleInDegrees = "360";
};
}),
(608,327,l),
(648,296,o),
(679,247,o),
(679,202,cs),
(679,126,o),
(617,81,o),
(554,81,cs),
(474,81,o),
(419,138,o),
(419,211,cs),
(419,301,o),
(497,356,o),
(607,400,cs),
(722,446,o),
(880,490,o),
(993,490,cs),
(1098,490,o),
(1203,434,o),
(1203,323,cs),
(1203,70,o),
(690,-94,o),
(381,-94,cs),
(294,-94,o),
(190,-66,o),
(190,16,cs),
(190,73,o),
(240,119,o),
(332,169,c),
(321,209,l),
(186,151,o),
(73,90,o),
(73,-13,cs),
(73,-124,o)
);
},
{
closed = 1;
nodes = (
(260,276,o),
(341,266,c,{
"Letterink-NibData" = {
AngleInDegrees = "360";
};
}),
(349,301,l),
(258,330,o),
(208,368,o),
(208,406,cs),
(208,470,o),
(292,510,o),
(435,510,cs),
(797,510,o),
(922,448,o),
(922,323,cs),
(922,255,o),
(862,199,o),
(801,196,cs),
(792,196,o),
(781,197,o),
(772,203,c,{
"Letterink-NibData" = {
AngleInDegrees = "360";
};
}),
(773,158,l,{
"Letterink-NibData" = {
AngleInDegrees = "360";
};
}),
(787,152,o),
(801,150,o),
(814,151,cs),
(926,156,o),
(1041,229,o),
(1041,339,cs),
(1041,481,o),
(869,560,o),
(469,560,cs),
(237,560,o),
(88,509,o),
(88,401,cs),
(88,304,o)
);
}
);
width = 1440;
},
{
associatedMasterId = "0C4B00F6-5348-41D6-8EE7-AA18FE59D1B1";
background = {
shapes = (
{
closed = 1;
nodes = (
(786,474,l),
(648,443,o),
(297,352,o),
(297,164,cs),
(297,59,o),
(410,0,o),
(513,0,cs),
(653,0,o),
(793,83,o),
(793,212,cs),
(793,260,o),
(764,308,o),
(712,338,c,{
"Letterink-NibData" = {
AngleInDegrees = "360";
};
}),
(594,315,l,{
"Letterink-NibData" = {
AngleInDegrees = "360";
};
}),
(591,304,l),
(638,274,o),
(673,224,o),
(673,179,cs),
(673,101,o),
(617,58,o),
(545,58,cs),
(468,58,o),
(415,121,o),
(415,184,cs),
(415,341,o),
(721,423,o),
(836,444,c)
);
},
{
closed = 1;
nodes = (
(197,277,o),
(341,248,c,{
"Letterink-NibData" = {
AngleInDegrees = "360";
};
}),
(351,283,l),
(286,311,o),
(246,351,o),
(246,391,cs),
(246,448,o),
(294,493,o),
(424,493,cs),
(730,493,o),
(926,422,o),
(926,270,cs),
(926,201,o),
(880,151,o),
(826,151,cs),
(799,151,o),
(783,164,o),
(770,176,c,{
"Letterink-NibData" = {
AngleInDegrees = "360";
};
}),
(754,109,l,{
"Letterink-NibData" = {
AngleInDegrees = "360";
};
}),
(767,105,o),
(780,105,o),
(792,105,cs),
(917,105,o),
(1045,174,o),
(1045,289,cs),
(1045,453,o),
(764,556,o),
(414,546,cs),
(236,541,o),
(126,491,o),
(126,393,cs),
(126,325,o)
);
},
{
closed = 1;
nodes = (
(864,450,l),
(897,454,o),
(930,456,o),
(961,456,cs),
(1085,456,o),
(1187,391,o),
(1187,277,cs),
(1187,46,o),
(733,-115,o),
(422,-115,cs),
(288,-115,o),
(230,-72,o),
(230,4,cs),
(230,54,o),
(263,99,o),
(325,137,c),
(317,178,l),
(206,135,o),
(111,68,o),
(111,-17,cs),
(111,-115,o),
(204,-171,o),
(399,-171,cs),
(799,-171,o),
(1303,42,o),
(1303,299,cs),
(1303,430,o),
(1174,503,o),
(1016,503,cs),
(949,503,o),
(883,494,o),
(812,479,c)
);
}
);
};
layerId = "774288AA-31C7-41FE-A1A4-9613956A9B95";
name = "Apr 16, 24 at 11:10";
shapes = (
{
closed = 1;
nodes = (
(786,474,l),
(648,443,o),
(297,352,o),
(297,164,cs),
(297,59,o),
(410,0,o),
(513,0,cs),
(653,0,o),
(793,83,o),
(793,212,cs),
(793,260,o),
(764,308,o),
(712,338,c,{
"Letterink-NibData" = {
AngleInDegrees = "360";
};
}),
(594,315,l,{
"Letterink-NibData" = {
AngleInDegrees = "360";
};
}),
(591,304,l),
(638,274,o),
(673,224,o),
(673,179,cs),
(673,101,o),
(617,58,o),
(545,58,cs),
(468,58,o),
(415,121,o),
(415,184,cs),
(415,341,o),
(721,423,o),
(836,444,c)
);
},
{
closed = 1;
nodes = (
(197,277,o),
(341,248,c,{
"Letterink-NibData" = {
AngleInDegrees = "360";
};
}),
(351,283,l),
(286,311,o),
(246,351,o),
(246,391,cs),
(246,448,o),
(294,493,o),
(424,493,cs),
(730,493,o),
(926,422,o),
(926,270,cs),
(926,201,o),
(880,151,o),
(826,151,cs),
(799,151,o),
(783,164,o),
(770,176,c,{
"Letterink-NibData" = {
AngleInDegrees = "360";
};
}),
(754,109,l,{
"Letterink-NibData" = {
AngleInDegrees = "360";
};
}),
(767,105,o),
(780,105,o),
(792,105,cs),
(917,105,o),
(1045,174,o),
(1045,289,cs),
(1045,453,o),
(764,556,o),
(414,546,cs),
(236,541,o),
(126,491,o),
(126,393,cs),
(126,325,o)
);
},
{
closed = 1;
nodes = (
(864,450,l),
(897,454,o),
(930,456,o),
(961,456,cs),
(1085,456,o),
(1187,391,o),
(1187,277,cs),
(1187,46,o),
(733,-115,o),
(422,-115,cs),
(288,-115,o),
(230,-72,o),
(230,4,cs),
(230,54,o),
(263,99,o),
(325,137,c),
(317,178,l),
(206,135,o),
(111,68,o),
(111,-17,cs),
(111,-115,o),
(204,-171,o),
(399,-171,cs),
(799,-171,o),
(1303,42,o),
(1303,299,cs),
(1303,430,o),
(1174,503,o),
(1016,503,cs),
(949,503,o),
(883,494,o),
(812,479,c)
);
}
);
width = 1440;
},
{
associatedMasterId = "0C4B00F6-5348-41D6-8EE7-AA18FE59D1B1";
background = {
shapes = (
{
closed = 1;
nodes = (
(789,456,l),
(476,390,o),
(297,282,o),
(297,150,cs),
(297,47,o),
(394,-15,o),
(503,-15,cs),
(656,-15,o),
(790,86,o),
(790,215,cs),
(790,257,o),
(773,308,o),
(742,336,c,{
"Letterink-NibData" = {
AngleInDegrees = "360";
};
}),
(635,299,l,{
"Letterink-NibData" = {
AngleInDegrees = "360";
};
}),
(633,288,l),
(659,259,o),
(674,218,o),
(674,184,cs),
(674,100,o),
(615,43,o),
(536,43,cs),
(454,43,o),
(415,106,o),
(415,167,cs),
(415,287,o),
(584,363,o),
(839,423,c)
);
},
{
closed = 1;
nodes = (
(204,265,o),
(384,263,c,{
"Letterink-NibData" = {
AngleInDegrees = "360";
};
}),
(394,298,l),
(309,300,o),
(246,345,o),
(246,394,cs),
(246,437,o),
(294,474,o),
(431,474,cs),
(789,474,o),
(946,410,o),
(946,274,cs),
(946,188,o),
(884,142,o),
(805,142,cs),
(777,142,o),
(767,143,o),
(746,150,c,{
"Letterink-NibData" = {
AngleInDegrees = "360";
};
}),
(715,99,l,{
"Letterink-NibData" = {
AngleInDegrees = "360";
};
}),
(731,94,o),
(754,90,o),
(782,90,cs),
(920,90,o),
(1062,175,o),
(1062,302,cs),
(1062,469,o),
(780,540,o),
(474,531,cs),
(259,525,o),
(126,476,o),
(126,386,cs),
(126,317,o)
);
},
{
closed = 1;
nodes = (
(864,435,l),
(900,446,o),
(937,451,o),
(971,451,cs),
(1090,451,o),
(1187,382,o),
(1187,262,cs),
(1187,31,o),
(733,-130,o),
(422,-130,cs),
(281,-130,o),
(220,-87,o),
(220,-17,cs),
(220,36,o),
(256,84,o),
(325,122,c),
(317,163,l),
(201,120,o),
(101,50,o),
(101,-40,cs),
(101,-130,o),
(197,-186,o),
(399,-186,cs),
(799,-186,o),
(1303,27,o),
(1303,284,cs),
(1303,421,o),
(1178,498,o),
(1026,498,cs),
(956,498,o),
(886,485,o),
(812,464,c)
);
}
);
};
layerId = "B85A1C8A-E311-4484-A382-33FE470B5685";
name = "Apr 16, 24 at 11:51";
shapes = (
{
closed = 1;
nodes = (
(789,456,l),
(476,390,o),
(297,282,o),
(297,150,cs),
(297,47,o),
(394,-15,o),
(503,-15,cs),
(656,-15,o),
(790,86,o),
(790,215,cs),
(790,257,o),
(773,308,o),
(742,336,c,{
"Letterink-NibData" = {
AngleInDegrees = "360";
};
}),
(635,299,l,{
"Letterink-NibData" = {
AngleInDegrees = "360";
};
}),
(633,288,l),
(659,259,o),
(674,218,o),
(674,184,cs),
(674,100,o),
(615,43,o),
(536,43,cs),
(454,43,o),
(415,106,o),
(415,167,cs),
(415,287,o),
(584,363,o),
(839,423,c)
);
},
{
closed = 1;
nodes = (
(204,265,o),
(384,263,c,{
"Letterink-NibData" = {
AngleInDegrees = "360";
};
}),
(394,298,l),
(309,300,o),
(246,345,o),
(246,394,cs),
(246,437,o),
(294,474,o),
(431,474,cs),
(789,474,o),
(946,410,o),
(946,274,cs),
(946,188,o),
(884,142,o),
(805,142,cs),
(777,142,o),
(767,143,o),
(746,150,c,{
"Letterink-NibData" = {
AngleInDegrees = "360";
};
}),
(715,99,l,{
"Letterink-NibData" = {
AngleInDegrees = "360";
};
}),
(731,94,o),
(754,90,o),
(782,90,cs),
(920,90,o),
(1062,175,o),
(1062,302,cs),
(1062,469,o),
(780,540,o),
(474,531,cs),
(259,525,o),
(126,476,o),
(126,386,cs),
(126,317,o)
);
},
{
closed = 1;
nodes = (
(864,435,l),
(900,446,o),
(937,451,o),
(971,451,cs),
(1090,451,o),
(1187,382,o),
(1187,262,cs),
(1187,31,o),
(733,-130,o),
(422,-130,cs),
(281,-130,o),
(220,-87,o),
(220,-17,cs),
(220,36,o),
(256,84,o),
(325,122,c),
(317,163,l),
(201,120,o),
(101,50,o),
(101,-40,cs),
(101,-130,o),
(197,-186,o),
(399,-186,cs),
(799,-186,o),
(1303,27,o),
(1303,284,cs),
(1303,421,o),
(1178,498,o),
(1026,498,cs),
(956,498,o),
(886,485,o),
(812,464,c)
);
}
);
width = 1440;
},
{
associatedMasterId = "0C4B00F6-5348-41D6-8EE7-AA18FE59D1B1";
background = {
shapes = (
{
closed = 1;
nodes = (
(789,456,l),
(476,400,o),
(297,282,o),
(297,150,cs),
(297,47,o),
(389,-15,o),
(493,-15,cs),
(648,-15,o),
(785,82,o),
(785,206,cs),
(785,251,o),
(767,306,o),
(733,336,c,{
"Letterink-NibData" = {
AngleInDegrees = "360";
};
}),
(626,299,l,{
"Letterink-NibData" = {
AngleInDegrees = "360";
};
}),
(624,288,l),
(653,257,o),
(669,212,o),
(669,175,cs),
(669,96,o),
(612,43,o),
(536,43,cs),
(454,43,o),
(415,106,o),
(415,167,cs),
(415,287,o),
(584,373,o),
(839,423,c)
);
},
{
closed = 1;
nodes = (
(204,265,o),
(384,263,c,{
"Letterink-NibData" = {
AngleInDegrees = "360";
};
}),
(394,298,l),
(309,300,o),
(246,345,o),
(246,394,cs),
(246,437,o),
(294,474,o),
(431,474,cs),
(789,474,o),
(946,410,o),
(946,274,cs),
(946,188,o),
(884,142,o),
(805,142,cs),
(777,142,o),
(767,143,o),
(746,150,c,{
"Letterink-NibData" = {
AngleInDegrees = "360";
};
}),
(715,99,l,{
"Letterink-NibData" = {
AngleInDegrees = "360";
};
}),
(731,94,o),
(754,90,o),
(782,90,cs),
(920,90,o),
(1062,175,o),
(1062,302,cs),
(1062,469,o),
(780,540,o),
(474,531,cs),
(259,525,o),
(126,476,o),
(126,386,cs),
(126,317,o)
);
},
{
closed = 1;
nodes = (
(864,435,l),
(900,446,o),
(937,451,o),
(971,451,cs),
(1090,451,o),
(1187,382,o),
(1187,262,cs),
(1187,31,o),
(727,-130,o),
(412,-130,cs),
(278,-130,o),
(220,-91,o),
(220,-27,cs),
(220,30,o),
(256,81,o),
(325,122,c),
(317,163,l),
(201,118,o),
(101,44,o),
(101,-50,cs),
(101,-134,o),
(194,-186,o),
(389,-186,cs),
(793,-186,o),
(1303,27,o),
(1303,284,cs),
(1303,421,o),
(1178,498,o),
(1026,498,cs),
(956,498,o),
(886,485,o),
(812,464,c)
);
}
);
};
layerId = "8E07D62B-B3D8-4ECF-BA28-D91F0F4B13DB";
name = "Apr 16, 24 at 17:00";
shapes = (
{
closed = 1;
nodes = (
(789,456,l),
(476,400,o),
(297,282,o),
(297,150,cs),
(297,47,o),
(389,-15,o),
(493,-15,cs),
(648,-15,o),
(785,82,o),
(785,206,cs),
(785,251,o),
(767,306,o),
(733,336,c,{
"Letterink-NibData" = {
AngleInDegrees = "360";
};
}),
(626,299,l,{
"Letterink-NibData" = {
AngleInDegrees = "360";
};
}),
(624,288,l),
(653,257,o),
(669,212,o),
(669,175,cs),
(669,96,o),
(612,43,o),
(536,43,cs),
(454,43,o),
(415,106,o),
(415,167,cs),
(415,287,o),
(584,373,o),
(839,423,c)
);
},
{
closed = 1;
nodes = (
(204,265,o),
(384,263,c,{
"Letterink-NibData" = {
AngleInDegrees = "360";
};
}),
(394,298,l),
(309,300,o),
(246,345,o),
(246,394,cs),
(246,437,o),
(294,474,o),
(431,474,cs),
(789,474,o),
(946,410,o),
(946,274,cs),
(946,188,o),
(884,142,o),
(805,142,cs),
(777,142,o),
(767,143,o),
(746,150,c,{
"Letterink-NibData" = {
AngleInDegrees = "360";
};
}),
(715,99,l,{
"Letterink-NibData" = {
AngleInDegrees = "360";
};
}),
(731,94,o),
(754,90,o),
(782,90,cs),
(920,90,o),
(1062,175,o),
(1062,302,cs),
(1062,469,o),
(780,540,o),
(474,531,cs),
(259,525,o),
(126,476,o),
(126,386,cs),
(126,317,o)
);
},
{
closed = 1;
nodes = (
(864,435,l),
(907,447,o),
(950,453,o),
(991,453,cs),
(1110,453,o),
(1207,387,o),
(1207,272,cs),
(1207,35,o),
(735,-130,o),
(412,-130,cs),
(278,-130,o),
(220,-88,o),
(220,-19,cs),
(220,35,o),
(256,83,o),
(325,122,c),
(317,163,l),
(201,120,o),
(101,49,o),
(101,-42,cs),
(101,-131,o),
(194,-186,o),
(389,-186,cs),
(802,-186,o),
(1323,32,o),
(1323,294,cs),
(1323,426,o),
(1198,500,o),
(1046,500,cs),
(969,500,o),
(893,487,o),
(812,464,c)
);
},
{
closed = 1;
nodes = (
(-78,41,l),
(1838,440,l)
);
}
);
width = 1440;
},
{
associatedMasterId = "0C4B00F6-5348-41D6-8EE7-AA18FE59D1B1";
background = {
shapes = (
{
closed = 1;
nodes = (
(126,317,o),
(204,265,o),
(384,263,c,{
"Letterink-NibData" = {
AngleInDegrees = "360";
};
}),
(394,298,l),
(309,300,o),
(246,345,o),
(246,394,cs),
(246,437,o),
(294,474,o),
(481,474,cs),
(789,474,o),
(946,411,o),
(946,268,cs),
(946,198,o),
(884,142,o),
(805,142,cs),
(777,142,o),
(767,143,o),
(746,150,c,{
"Letterink-NibData" = {
AngleInDegrees = "360";
};
}),
(715,99,l,{
"Letterink-NibData" = {
AngleInDegrees = "360";
};
}),
(731,94,o),
(754,90,o),
(782,90,cs),
(920,90,o),
(1062,175,o),
(1062,297,cs),
(1062,450,o),
(811,532,o),
(525,532,cs),
(269,532,o),
(126,480,o),
(126,386,cs)
);
},
{
closed = 1;
nodes = (
(297,397,o),
(297,149,cs),
(297,60,o),
(394,-15,o),
(508,-15,cs),
(652,-15,o),
(785,82,o),
(785,206,cs),
(785,251,o),
(767,306,o),
(733,336,c,{
"Letterink-NibData" = {
AngleInDegrees = "360";
};
}),
(629,301,l,{
"Letterink-NibData" = {
AngleInDegrees = "360";
};
}),
(627,290,l),
(656,259,o),
(672,214,o),
(672,174,cs),
(672,97,o),
(614,43,o),
(536,43,cs),
(455,43,o),
(414,108,o),
(414,163,cs),
(414,366,o),
(864,448,o),
(991,448,cs),
(1114,448,o),
(1213,375,o),
(1206,254,cs),
(1191,8,o),
(693,-126,o),
(448,-133,cs),
(308,-138,o),
(245,-96,o),
(248,-46,cs),
(250,-9,o),
(288,40,o),
(338,60,c),
(332,95,l),
(224,66,o),
(128,7,o),
(129,-71,cs),
(129,-131,o),
(184,-190,o),
(403,-189,cs),
(694,-187,o),
(1324,-13,o),
(1324,278,cs),
(1324,410,o),
(1188,497,o),
(1014,497,cs),
(857,497,o)
);
}
);
};
layerId = "6A7D3238-0AA3-40D6-A7D0-31E9A05416CE";
name = "Apr 17, 24 at 11:09";
shapes = (
{
closed = 1;
nodes = (
(721,81,o),
(643,-15,o),
(508,-15,cs),
(394,-15,o),
(297,60,o),
(297,149,cs),
(297,397,o),
(857,497,o),
(1014,497,cs),
(1188,497,o),
(1324,410,o),
(1324,278,cs),
(1324,-13,o),
(694,-187,o),
(403,-189,cs),
(184,-190,o),
(129,-131,o),
(129,-71,cs),
(128,7,o),
(224,66,o),
(332,95,c),
(338,60,l),
(288,40,o),
(250,-9,o),
(248,-46,cs),
(245,-96,o),
(308,-138,o),
(448,-133,cs),
(693,-126,o),
(1191,8,o),
(1206,254,cs),
(1213,375,o),
(1114,448,o),
(991,448,cs),
(864,448,o),
(414,368,o),
(414,170,cs),
(414,112,o),
(455,43,o),
(536,43,cs),
(659,43,o),
(674,153,o),
(614,258,c,{
"Letterink-NibData" = {
AngleInDegrees = "360";
};
}),
(714,299,l,{
"Letterink-NibData" = {
AngleInDegrees = "360";
};
}),
(772,161,o),
(814,142,o),
(864,142,cs),
(910,142,o),
(946,183,o),
(946,232,cs),
(946,411,o),
(789,474,o),
(481,474,cs),
(294,474,o),
(246,437,o),
(246,394,cs),
(246,345,o),
(309,300,o),
(394,298,c),
(384,263,l,{
"Letterink-NibData" = {
AngleInDegrees = "360";
};
}),
(204,265,o),
(126,317,o),
(126,386,cs),
(126,480,o),
(269,532,o),
(525,532,cs),
(811,532,o),
(1062,450,o),
(1062,278,cs),
(1062,175,o),
(940,90,o),
(833,90,cs),
(783,90,o),
(744,106,o),
(703,137,c,{
"Letterink-NibData" = {
AngleInDegrees = "360";
};
}),
(739,149,l)
);
}
);
width = 1440;
},
{
associatedMasterId = "0C4B00F6-5348-41D6-8EE7-AA18FE59D1B1";
background = {
shapes = (
{
closed = 1;
nodes = (
(722,69,o),
(634,-15,o),
(508,-15,cs),
(394,-15,o),
(297,50,o),
(297,149,cs),
(297,383,o),
(830,477,o),
(1034,477,cs),
(1226,477,o),
(1324,398,o),
(1324,278,cs),
(1324,-13,o),
(694,-187,o),
(403,-189,cs),
(184,-190,o),
(129,-131,o),
(129,-71,cs),
(128,7,o),
(224,66,o),
(332,95,c),
(338,60,l),
(288,40,o),
(250,-9,o),
(248,-46,cs),
(245,-96,o),
(308,-138,o),
(448,-133,cs),
(693,-126,o),
(1191,4,o),
(1206,244,cs),
(1213,359,o),
(1123,428,o),
(1011,428,cs),
(836,428,o),
(414,354,o),
(414,170,cs),
(414,102,o),
(454,43,o),
(534,43,cs),
(632,43,o),
(674,148,o),
(620,242,c,{
"Letterink-NibData" = {
AngleInDegrees = "360";
};
}),
(726,275,l,{
"Letterink-NibData" = {
AngleInDegrees = "360";
};
}),
(754,164,o),
(787,143,o),
(842,143,cs),
(903,143,o),
(949,200,o),
(949,264,cs),
(949,403,o),
(785,474,o),
(462,474,cs),
(290,474,o),
(246,437,o),
(246,394,cs),
(246,345,o),
(309,300,o),
(394,298,c),
(384,263,l,{
"Letterink-NibData" = {
AngleInDegrees = "360";
};
}),
(204,265,o),
(126,317,o),
(126,386,cs),
(126,480,o),
(262,532,o),
(506,532,cs),
(802,532,o),
(1062,451,o),
(1062,281,cs),
(1062,170,o),
(929,90,o),
(815,90,cs),
(748,90,o),
(692,109,o),
(661,134,c,{
"Letterink-NibData" = {
AngleInDegrees = "360";
};
}),
(740,129,l)
);
}
);
};
layerId = "1FB81DAF-0C5F-4E4D-8F7E-640BC7A4C1F4";
name = "Apr 17, 24 at 11:29";
shapes = (
{
closed = 1;
nodes = (
(719,80,o),
(633,-15,o),
(508,-15,cs),
(394,-15,o),
(297,50,o),
(297,149,cs),
(297,383,o),
(830,477,o),
(1034,477,cs),
(1226,477,o),
(1324,398,o),
(1324,278,cs),
(1324,-13,o),
(694,-187,o),
(403,-189,cs),
(184,-190,o),
(129,-131,o),
(129,-71,cs),
(128,7,o),
(224,66,o),
(332,95,c),
(338,60,l),
(288,40,o),
(250,-9,o),
(248,-46,cs),
(245,-96,o),
(308,-138,o),
(448,-133,cs),
(693,-126,o),
(1191,4,o),
(1206,244,cs),
(1213,359,o),
(1123,428,o),
(1011,428,cs),
(836,428,o),
(414,354,o),
(414,170,cs),
(414,102,o),
(454,43,o),
(534,43,cs),
(595,43,o),
(639,96,o),
(639,166,cs),
(639,199,o),
(630,233,o),
(613,265,c,{
"Letterink-NibData" = {
AngleInDegrees = "360";
};
}),
(712,299,l,{
"Letterink-NibData" = {
AngleInDegrees = "360";
};
}),
(749,174,o),
(790,143,o),
(842,143,cs),
(908,143,o),
(949,180,o),
(949,254,cs),
(949,393,o),
(785,474,o),
(462,474,cs),
(290,474,o),
(246,437,o),
(246,394,cs),
(246,345,o),
(309,300,o),
(394,298,c),
(384,263,l,{
"Letterink-NibData" = {
AngleInDegrees = "360";
};
}),
(204,265,o),
(126,317,o),
(126,386,cs),
(126,480,o),
(262,532,o),
(506,532,cs),
(802,532,o),
(1062,451,o),
(1062,281,cs),
(1062,170,o),
(945,90,o),
(827,90,cs),
(760,90,o),
(705,116,o),
(674,148,c,{
"Letterink-NibData" = {
AngleInDegrees = "360";
};
}),
(737,147,l)
);
}
);
width = 1440;
},
{
background = {
shapes = (
{
closed = 1;
nodes = (
(420,265,l),
(281,265,o),
(206,306,o),
(206,366,cs),
(206,441,o),
(320,481,o),
(554,481,cs),
(841,481,o),
(984,421,o),
(984,302,cs),
(984,225,o),
(925,158,o),
(830,158,cs),
(804,158,o),
(782,163,o),
(769,168,c),
(728,113,l),
(748,106,o),
(769,101,o),
(801,101,cs),
(935,101,o),
(1097,187,o),
(1097,316,cs),
(1097,467,o),
(873,541,o),
(568,541,cs),
(242,541,o),
(89,456,o),
(89,353,cs),
(89,237,o),
(284,204,o),
(375,227,c)
);
},
{
closed = 1;
nodes = (
(670,297,l),
(669,288,l),
(689,261,o),
(701,229,o),
(701,191,cs),
(701,103,o),
(636,48,o),
(566,48,cs),
(492,48,o),
(441,109,o),
(438,174,cs),
(432,309,o),
(692,410,o),
(881,442,c),
(914,457,l),
(948,461,o),
(978,463,o),
(1005,463,cs),
(1171,463,o),
(1264,382,o),
(1264,271,cs),
(1264,-3,o),
(672,-146,o),
(400,-146,cs),
(268,-146,o),
(209,-112,o),
(209,-55,cs),
(209,-3,o),
(259,53,o),
(349,100,c),
(339,143,l),
(185,85,o),
(93,-3,o),
(94,-84,cs),
(94,-155,o),
(165,-206,o),
(366,-206,cs),
(755,-206,o),
(1379,-14,o),
(1379,289,cs),
(1379,415,o),
(1274,513,o),
(1059,513,cs),
(1001,513,o),
(925,506,o),
(845,491,c),
(797,477,l),
(574,429,o),
(328,324,o),
(328,163,cs),
(328,69,o),
(405,-15,o),
(534,-15,cs),
(681,-15,o),
(813,95,o),
(813,223,cs),
(813,265,o),
(799,300,o),
(777,326,c)
);
}
);
};
layerId = "0C4B00F6-5348-41D6-8EE7-AA18FE59D1B1";
name = "117";
shapes = (
{
closed = 1;
nodes = (
(948,461,o),
(978,463,o),
(1005,463,cs),
(1171,463,o),
(1264,382,o),
(1264,271,cs),
(1264,-3,o),
(672,-146,o),
(400,-146,cs),
(268,-146,o),
(209,-112,o),
(209,-55,cs),
(209,-3,o),
(259,53,o),
(349,100,c),
(339,143,l),
(185,85,o),
(93,-3,o),
(94,-84,cs),
(94,-155,o),
(165,-206,o),
(366,-206,cs),
(755,-206,o),
(1379,-14,o),
(1379,289,cs),
(1379,415,o),
(1274,513,o),
(1059,513,cs),
(1001,513,o),
(925,506,o),
(845,491,c),
(808,482,l),
(475,431,o),
(330,293,o),
(330,163,cs),
(330,64,o),
(411,-15,o),
(538,-15,cs),
(682,-15,o),
(821,95,o),
(821,218,cs),
(821,268,o),
(797,309,o),
(763,334,c),
(666,310,l),
(663,296,l),
(692,277,o),
(709,232,o),
(709,189,cs),
(709,93,o),
(638,48,o),
(572,48,cs),
(491,48,o),
(441,109,o),
(441,199,cs),
(441,317,o),
(616,420,o),
(892,442,c),
(914,457,l)
);
},
{
closed = 1;
nodes = (
(416,288,l),
(406,287,o),
(397,287,o),
(388,287,cs),
(273,287,o),
(212,343,o),
(212,393,cs),
(212,466,o),
(289,508,o),
(490,508,cs),
(755,508,o),
(981,435,o),
(981,299,cs),
(981,215,o),
(920,165,o),
(836,165,cs),
(820,165,o),
(802,168,o),
(792,173,c),
(761,118,l),
(771,113,o),
(789,108,o),
(814,108,cs),
(930,108,o),
(1092,189,o),
(1092,324,cs),
(1092,484,o),
(802,567,o),
(512,567,cs),
(213,567,o),
(95,479,o),
(95,378,cs),
(95,291,o),
(216,240,o),
(309,240,cs),
(332,240,o),
(353,243,o),
(371,250,c)
);
}
);
width = 1440;
},
{
associatedMasterId = "0C4B00F6-5348-41D6-8EE7-AA18FE59D1B1";
background = {
shapes = (
{
closed = 1;
nodes = (
(126,317,o),
(204,265,o),
(384,263,c,{
"Letterink-NibData" = {
AngleInDegrees = "360";
};
}),
(394,298,l),
(309,300,o),
(246,355,o),
(246,394,cs),
(246,437,o),
(288,471,o),
(451,474,cs),
(809,480,o),
(954,412,o),
(954,254,cs),
(954,207,o),
(927,171,o),
(895,157,cs),
(850,140,o),
(793,150,o),
(752,241,c,{
"Letterink-NibData" = {
AngleInDegrees = "360";
};
}),
(703,153,l,{
"Letterink-NibData" = {
AngleInDegrees = "360";
};
}),
(726,131,o),
(760,93,o),
(830,93,cs),
(937,93,o),
(1063,171,o),
(1063,292,cs),
(1063,461,o),
(841,538,o),
(525,532,cs),
(270,527,o),
(126,480,o),
(126,386,cs)
);
},
{
closed = 1;
nodes = (
(296,397,o),
(296,153,cs),
(296,62,o),
(384,-17,o),
(508,-15,cs),
(616,-14,o),
(720,69,o),
(744,135,c),
(789,163,l),
(767,197,o),
(735,283,o),
(725,319,c,{
"Letterink-NibData" = {
AngleInDegrees = "360";
};
}),
(617,284,l,{
"Letterink-NibData" = {
AngleInDegrees = "360";
};
}),
(634,244,o),
(650,198,o),
(650,158,cs),
(650,81,o),
(600,43,o),
(536,43,cs),
(455,43,o),
(413,110,o),
(413,167,cs),
(413,365,o),
(837,446,o),
(981,446,cs),
(1110,446,o),
(1213,370,o),
(1206,249,cs),
(1191,6,o),
(663,-122,o),
(448,-129,cs),
(308,-134,o),
(245,-94,o),
(248,-46,cs),
(250,-9,o),
(288,40,o),
(338,60,c),
(332,95,l),
(224,66,o),
(128,7,o),
(129,-71,cs),
(129,-131,o),
(184,-190,o),
(403,-189,cs),
(694,-187,o),
(1324,-13,o),
(1324,278,cs),
(1324,410,o),
(1184,495,o),
(1004,495,cs),
(830,495,o)
);
}
);
};
layerId = "36F2D6AB-7DE0-4984-BAA9-EB5A3432EA68";
name = "Apr 17, 24 at 11:29";
shapes = (
{
closed = 1;
nodes = (
(703,153,l,{
"Letterink-NibData" = {
AngleInDegrees = "360";
};
}),
(725,122,o),
(773,93,o),
(841,93,cs),
(953,93,o),
(1063,164,o),
(1063,285,cs),
(1063,454,o),
(821,532,o),
(565,532,cs),
(270,532,o),
(126,480,o),
(126,386,cs),
(126,317,o),
(204,265,o),
(384,263,c,{
"Letterink-NibData" = {
AngleInDegrees = "360";
};
}),
(394,298,l),
(309,300,o),
(246,355,o),
(246,394,cs),
(246,437,o),
(288,471,o),
(451,474,cs),
(809,480,o),
(954,395,o),
(954,254,cs),
(954,200,o),
(915,150,o),
(859,150,cs),
(812,150,o),
(768,183,o),
(721,319,c,{
"Letterink-NibData" = {
AngleInDegrees = "360";
};
}),
(617,284,l,{
"Letterink-NibData" = {
AngleInDegrees = "360";
};
}),
(634,248,o),
(650,207,o),
(650,171,cs),
(650,99,o),
(595,43,o),
(531,43,cs),
(450,43,o),
(413,110,o),
(413,167,cs),
(413,365,o),
(842,446,o),
(981,446,cs),
(1122,446,o),
(1213,370,o),
(1206,249,cs),
(1191,6,o),
(663,-122,o),
(448,-129,cs),
(308,-134,o),
(248,-94,o),
(248,-42,cs),
(248,1,o),
(288,40,o),
(338,60,c),
(332,95,l),
(224,66,o),
(128,7,o),
(129,-71,cs),
(129,-131,o),
(184,-190,o),
(403,-189,cs),
(694,-187,o),
(1324,-13,o),
(1324,278,cs),
(1324,410,o),
(1196,495,o),
(1004,495,cs),
(835,495,o),
(296,397,o),
(296,153,cs),
(296,62,o),
(384,-17,o),
(508,-15,cs),
(616,-14,o),
(730,62,o),
(741,167,c)
);
}
);
width = 1440;
},
{
associatedMasterId = "0C4B00F6-5348-41D6-8EE7-AA18FE59D1B1";
background = {
shapes = (
{
closed = 1;
nodes = (
(106,262,o),
(202,222,o),
(362,236,c,{
"Letterink-NibData" = {
AngleInDegrees = "360";
};
}),
(368,272,l),
(273,278,o),
(225,308,o),
(225,351,cs),
(225,420,o),
(413,468,o),
(621,468,cs),
(821,468,o),
(946,415,o),
(946,289,cs),
(946,207,o),
(892,160,o),
(824,160,cs),
(791,160,o),
(780,170,o),
(761,190,c,{
"Letterink-NibData" = {
AngleInDegrees = "360";
};
}),
(734,122,l,{
"Letterink-NibData" = {
AngleInDegrees = "360";
};
}),
(753,109,o),
(783,101,o),
(818,101,cs),
(928,101,o),
(1057,182,o),
(1057,309,cs),
(1057,476,o),
(844,528,o),
(646,528,cs),
(364,528,o),
(106,447,o),
(106,336,cs)
);
},
{
closed = 1;
nodes = (
(991,513,o),
(940,507,o),
(880,496,c),
(839,477,l),
(780,467,o),
(717,453,o),
(655,434,cs),
(454,375,o),
(297,289,o),
(297,158,cs),
(297,61,o),
(394,-15,o),
(517,-15,cs),
(652,-15,o),
(781,79,o),
(781,205,cs),
(781,248,o),
(763,297,o),
(727,333,c,{
"Letterink-NibData" = {
AngleInDegrees = "360";
};
}),
(618,296,l),
(648,262,o),
(668,220,o),
(668,178,cs),
(668,99,o),
(614,46,o),
(539,46,cs),
(455,46,o),
(414,111,o),
(414,170,cs),
(414,275,o),
(525,341,o),
(682,392,cs),
(753,415,o),
(826,430,o),
(887,439,c),
(919,457,l),
(944,460,o),
(965,461,o),
(979,461,cs),
(1120,461,o),
(1206,376,o),
(1206,266,cs),
(1206,3,o),
(640,-128,o),
(425,-128,cs),
(301,-128,o),
(248,-90,o),
(248,-43,cs),
(248,-9,o),
(278,36,o),
(338,60,c),
(332,95,l),
(225,66,o),
(129,8,o),
(129,-71,cs),
(129,-129,o),
(181,-189,o),
(384,-189,cs),
(685,-189,o),
(1324,-18,o),
(1324,280,cs),
(1324,418,o),
(1197,513,o),
(1032,513,cs)
);
}
);
};
layerId = "5C92D684-E04D-419F-B347-B7EE2D6DAE97";
name = "Apr 18, 24 at 11:27";
shapes = (
{
closed = 1;
nodes = (
(106,262,o),
(202,222,o),
(362,236,c,{
"Letterink-NibData" = {
AngleInDegrees = "360";
};
}),
(368,272,l),
(273,278,o),
(225,308,o),
(225,351,cs),
(225,420,o),
(413,468,o),
(621,468,cs),
(821,468,o),
(946,415,o),
(946,289,cs),
(946,207,o),
(892,160,o),
(824,160,cs),
(791,160,o),
(780,170,o),
(761,190,c,{
"Letterink-NibData" = {
AngleInDegrees = "360";
};
}),
(734,122,l,{
"Letterink-NibData" = {
AngleInDegrees = "360";
};
}),
(753,109,o),
(783,101,o),
(818,101,cs),
(928,101,o),
(1057,182,o),
(1057,309,cs),
(1057,476,o),
(844,528,o),
(646,528,cs),
(364,528,o),
(106,447,o),
(106,336,cs)
);
},
{
closed = 1;
nodes = (
(991,513,o),
(940,507,o),
(880,496,c),
(839,477,l),
(780,467,o),
(717,453,o),
(655,434,cs),
(454,375,o),
(297,289,o),
(297,158,cs),
(297,61,o),
(394,-15,o),
(517,-15,cs),
(652,-15,o),
(781,79,o),
(781,205,cs),
(781,248,o),
(763,297,o),
(727,333,c,{
"Letterink-NibData" = {
AngleInDegrees = "360";
};
}),
(618,296,l),
(648,262,o),
(668,220,o),
(668,178,cs),
(668,99,o),
(614,46,o),
(539,46,cs),
(455,46,o),
(414,111,o),
(414,170,cs),
(414,275,o),
(525,341,o),
(682,392,cs),
(753,415,o),
(826,430,o),
(887,439,c),
(919,457,l),
(944,460,o),
(965,461,o),
(979,461,cs),
(1120,461,o),
(1206,376,o),
(1206,266,cs),
(1206,3,o),
(640,-128,o),
(425,-128,cs),
(301,-128,o),
(248,-90,o),
(248,-43,cs),
(248,-9,o),
(278,36,o),
(338,60,c),
(332,95,l),
(225,66,o),
(129,8,o),
(129,-71,cs),
(129,-129,o),
(181,-189,o),
(384,-189,cs),
(685,-189,o),
(1324,-18,o),
(1324,280,cs),
(1324,418,o),
(1197,513,o),
(1032,513,cs)
);
}
);
width = 1440;
},
{
associatedMasterId = "0C4B00F6-5348-41D6-8EE7-AA18FE59D1B1";
background = {
shapes = (
{
closed = 1;
nodes = (
(470,326,l),
(299,326,o),
(206,364,o),
(206,419,cs),
(206,492,o),
(326,515,o),
(490,515,cs),
(629,515,o),
(775,496,o),
(873,444,cs),
(943,408,o),
(984,362,o),
(984,290,cs),
(984,219,o),
(921,173,o),
(849,173,cs),
(824,173,o),
(804,178,o),
(791,183,c),
(735,118,l),
(755,114,o),
(781,111,o),
(809,111,cs),
(926,111,o),
(1097,179,o),
(1097,317,cs),
(1097,376,o),
(1065,421,o),
(1007,461,cs),
(906,533,o),
(726,576,o),
(519,576,cs),
(224,576,o),
(89,495,o),
(89,409,cs),
(89,282,o),
(318,272,o),
(425,288,c)
);
},
{
closed = 1;
nodes = (
(659,304,l),
(657,296,l),
(683,259,o),
(699,222,o),
(699,186,cs),
(699,110,o),
(636,58,o),
(564,58,cs),
(493,58,o),
(443,110,o),
(441,169,cs),
(439,242,o),
(501,317,o),
(697,385,cs),
(756,405,o),
(833,423,o),
(917,435,c),
(964,453,l),
(984,455,o),
(1006,456,o),
(1027,456,cs),
(1202,456,o),
(1274,373,o),
(1274,270,cs),
(1274,30,o),
(675,-136,o),
(390,-136,cs),
(268,-136,o),
(209,-91,o),
(209,-28,cs),
(209,28,o),
(260,74,o),
(349,110,c),
(339,153,l),
(186,105,o),
(94,26,o),
(94,-61,cs),
(94,-136,o),
(165,-196,o),
(357,-196,cs),
(759,-196,o),
(1389,18,o),
(1389,289,cs),
(1389,416,o),
(1287,507,o),
(1072,507,cs),
(1017,507,o),
(967,504,o),
(918,499,c),
(879,479,l),
(812,469,o),
(746,453,o),
(672,430,cs),
(429,354,o),
(327,256,o),
(327,158,cs),
(327,61,o),
(407,-5,o),
(524,-5,cs),
(682,-5,o),
(813,111,o),
(813,219,cs),
(813,262,o),
(793,305,o),
(767,333,c)
);
}
);
};
layerId = "AC205AC9-7449-4D8A-BFD9-CFC10E3019BE";
name = "Apr 18, 24 at 14:49";
shapes = (
{
closed = 1;
nodes = (
(470,326,l),
(299,326,o),
(206,364,o),
(206,419,cs),
(206,492,o),
(326,515,o),
(490,515,cs),
(629,515,o),
(775,496,o),
(873,444,cs),
(943,408,o),
(984,362,o),
(984,290,cs),
(984,219,o),
(921,173,o),
(849,173,cs),
(824,173,o),
(804,178,o),
(791,183,c),
(735,118,l),
(755,114,o),
(781,111,o),
(809,111,cs),
(926,111,o),
(1097,179,o),
(1097,317,cs),
(1097,376,o),
(1065,421,o),
(1007,461,cs),
(906,533,o),
(726,576,o),
(519,576,cs),
(224,576,o),
(89,495,o),
(89,409,cs),
(89,282,o),
(318,272,o),
(425,288,c)
);
},
{
closed = 1;
nodes = (
(659,304,l),
(657,296,l),
(683,259,o),
(699,222,o),
(699,186,cs),
(699,110,o),
(636,58,o),
(564,58,cs),
(493,58,o),
(443,110,o),
(441,169,cs),
(439,242,o),
(501,317,o),
(697,385,cs),
(756,405,o),
(833,423,o),
(917,435,c),
(964,453,l),
(984,455,o),
(1006,456,o),
(1027,456,cs),
(1202,456,o),
(1274,373,o),
(1274,270,cs),
(1274,30,o),
(675,-136,o),
(390,-136,cs),
(268,-136,o),
(209,-91,o),
(209,-28,cs),
(209,28,o),
(260,74,o),
(349,110,c),
(339,153,l),
(186,105,o),
(94,26,o),
(94,-61,cs),
(94,-136,o),
(165,-196,o),
(357,-196,cs),
(759,-196,o),
(1389,18,o),
(1389,289,cs),
(1389,416,o),
(1287,507,o),
(1072,507,cs),
(1017,507,o),
(967,504,o),
(918,499,c),
(879,479,l),
(812,469,o),
(746,453,o),
(672,430,cs),
(429,354,o),
(327,256,o),
(327,158,cs),
(327,61,o),
(407,-5,o),
(524,-5,cs),
(682,-5,o),
(813,111,o),
(813,219,cs),
(813,262,o),
(793,305,o),
(767,333,c)
);
}
);
width = 1440;
},
{
associatedMasterId = "0C4B00F6-5348-41D6-8EE7-AA18FE59D1B1";
background = {
shapes = (
{
closed = 1;
nodes = (
(420,265,l),
(281,265,o),
(206,306,o),
(206,366,cs),
(206,441,o),
(320,481,o),
(554,481,cs),
(841,481,o),
(984,421,o),
(984,302,cs),
(984,225,o),
(925,158,o),
(830,158,cs),
(804,158,o),
(782,163,o),
(769,168,c),
(728,113,l),
(748,106,o),
(769,101,o),
(801,101,cs),
(935,101,o),
(1097,187,o),
(1097,316,cs),
(1097,467,o),
(873,541,o),
(568,541,cs),
(242,541,o),
(89,456,o),
(89,353,cs),
(89,237,o),
(284,204,o),
(375,227,c)
);
},
{
closed = 1;
nodes = (
(670,297,l),
(669,288,l),
(689,261,o),
(701,229,o),
(701,191,cs),
(701,103,o),
(636,48,o),
(566,48,cs),
(492,48,o),
(441,109,o),
(438,174,cs),
(433,289,o),
(648,405,o),
(897,440,cs),
(948,456,ls),
(978,459,o),
(1008,460,o),
(1038,460,cs),
(1186,460,o),
(1264,370,o),
(1264,271,cs),
(1264,-3,o),
(672,-146,o),
(400,-146,cs),
(268,-146,o),
(209,-112,o),
(209,-55,cs),
(209,-3,o),
(259,53,o),
(349,100,c),
(339,143,l),
(185,85,o),
(93,-3,o),
(94,-84,cs),
(94,-155,o),
(165,-206,o),
(366,-206,cs),
(755,-206,o),
(1379,-14,o),
(1379,289,cs),
(1379,414,o),
(1272,511,o),
(1069,511,cs),
(1000,511,o),
(933,506,o),
(869,497,c),
(806,477,l),
(532,427,o),
(328,302,o),
(328,163,cs),
(328,69,o),
(405,-15,o),
(534,-15,cs),
(681,-15,o),
(813,95,o),
(813,223,cs),
(813,265,o),
(799,300,o),
(777,326,c)
);
}
);
};
layerId = "50BB2011-6DB8-4DB2-9954-6F3E19E6D80D";
name = "Apr 30, 24 at 18:56";
shapes = (
{
closed = 1;
nodes = (
(431,268,l),
(292,268,o),
(217,319,o),
(217,373,cs),
(217,444,o),
(347,485,o),
(570,485,cs),
(828,484,o),
(991,428,o),
(991,302,cs),
(991,227,o),
(933,165,o),
(843,165,cs),
(817,165,o),
(806,170,o),
(799,175,c),
(758,120,l),
(770,113,o),
(783,108,o),
(814,108,cs),
(941,108,o),
(1102,191,o),
(1102,325,cs),
(1101,480,o),
(883,544,o),
(600,544,cs),
(270,545,o),
(100,459,o),
(100,358,cs),
(100,250,o),
(295,207,o),
(386,230,c)
);
},
{
closed = 1;
nodes = (
(676,310,l),
(675,296,l),
(709,277,o),
(729,232,o),
(729,189,cs),
(729,105,o),
(652,51,o),
(581,51,cs),
(504,51,o),
(454,114,o),
(451,171,cs),
(443,302,o),
(620,408,o),
(902,442,c),
(935,462,l),
(968,466,o),
(999,468,o),
(1024,468,cs),
(1185,468,o),
(1275,385,o),
(1275,278,cs),
(1275,0,o),
(673,-147,o),
(405,-147,cs),
(269,-147,o),
(220,-109,o),
(220,-55,cs),
(220,0,o),
(270,56,o),
(360,103,c),
(350,146,l),
(196,88,o),
(104,0,o),
(105,-84,cs),
(105,-152,o),
(167,-207,o),
(371,-207,cs),
(756,-207,o),
(1390,-11,o),
(1390,295,cs),
(1390,418,o),
(1287,518,o),
(1077,518,cs),
(1021,518,o),
(946,511,o),
(866,496,c),
(818,482,l),
(485,421,o),
(340,293,o),
(340,163,cs),
(340,66,o),
(421,-12,o),
(547,-12,cs),
(697,-12,o),
(841,97,o),
(841,218,cs),
(841,268,o),
(817,309,o),
(783,334,c)
);
}
);
width = 1440;
}
);
unicode = 71948;
},
{
color = 0;
glyphname = "ga-divesakuru";
lastChange = "2024-05-01 10:31:56 +0000";
layers = (
{
associatedMasterId = "0C4B00F6-5348-41D6-8EE7-AA18FE59D1B1";
background = {
shapes = (
{
closed = 1;
nodes = (
(122,-177,o),
(286,-212,o),
(408,-212,cs),
(718,-212,o),
(1173,-46,o),
(1142,203,cs),
(1130,308,o),
(1021,397,o),
(855,397,cs),
(772,397,o),
(695,374,o),
(630,344,c,{
"Letterink-NibData" = {
AngleInDegrees = 360;
};
}),
(630,329,l),
(668,307,o),
(705,259,o),
(712,205,cs),
(724,109,o),
(636,51,o),
(561,51,cs),
(434,51,o),
(357,178,o),
(341,312,cs),
(324,454,o),
(340,606,o),
(392,702,c),
(323,632,l),
(424,684,o),
(457,745,o),
(452,792,cs),
(446,838,o),
(416,855,o),
(389,855,cs),
(330,855,o),
(300,794,o),
(275,698,cs),
(248,598,o),
(223,440,o),
(241,293,cs),
(263,113,o),
(373,-12,o),
(535,-12,cs),
(702,-12,o),
(837,98,o),
(821,227,cs),
(814,285,o),
(775,326,o),
(733,350,c,{
"Letterink-NibData" = {
AngleInDegrees = 360;
};
}),
(745,332,l),
(771,338,o),
(797,341,o),
(821,341,cs),
(940,341,o),
(1018,267,o),
(1028,183,cs),
(1054,-28,o),
(671,-151,o),
(429,-151,cs),
(349,-151,o),
(231,-131,o),
(219,-34,cs),
(213,10,o),
(251,57,o),
(367,87,c),
(335,123,l,{
"Letterink-NibData" = {
AngleInDegrees = 360;
};
}),
(195,90,o),
(98,20,o),
(109,-66,cs)
);
},
{
closed = 1;
nodes = (
(617,-2,o),
(629,11,o),
(627,27,cs),
(625,43,o),
(610,56,o),
(594,56,cs),
(578,56,o),
(567,43,o),
(569,27,cs),
(571,11,o),
(585,-2,o),
(601,-2,cs)
);
},
{
closed = 1;
nodes = (
(841,-130,o),
(853,-117,o),
(851,-101,cs),
(849,-85,o),
(834,-72,o),
(818,-72,cs),
(802,-72,o),
(791,-85,o),
(793,-101,cs),
(795,-117,o),
(809,-130,o),
(825,-130,cs)
);
}
);
};
layerId = "374D8E7D-0E39-4B27-ADD3-E6C85CD09643";
name = "Apr 11, 24 at 18:06";
shapes = (
{
closed = 1;
nodes = (
(67,-177,o),
(239,-212,o),
(369,-212,cs),
(651,-212,o),
(1134,-46,o),
(1134,203,cs),
(1134,308,o),
(1037,397,o),
(871,397,cs),
(788,397,o),
(708,374,o),
(640,344,c,{
"Letterink-NibData" = {
AngleInDegrees = "360";
};
}),
(638,329,l),
(672,305,o),
(703,253,o),
(703,195,cs),
(703,105,o),
(629,51,o),
(554,51,cs),
(416,51,o),
(350,192,o),
(350,342,cs),
(350,473,o),
(380,613,o),
(435,702,c),
(368,632,l),
(465,684,o),
(506,745,o),
(506,792,cs),
(506,838,o),
(479,855,o),
(451,855,cs),
(392,855,o),
(355,794,o),
(318,698,cs),
(282,606,o),
(248,459,o),
(248,323,cs),
(248,125,o),
(348,-12,o),
(520,-12,cs),
(677,-12,o),
(816,98,o),
(816,227,cs),
(816,290,o),
(783,334,o),
(745,360,c,{
"Letterink-NibData" = {
AngleInDegrees = "360";
};
}),
(753,332,l),
(780,338,o),
(806,341,o),
(830,341,cs),
(949,341,o),
(1018,267,o),
(1018,183,cs),
(1018,-28,o),
(612,-151,o),
(398,-151,cs),
(310,-151,o),
(182,-131,o),
(182,-34,cs),
(182,10,o),
(225,57,o),
(345,87,c),
(317,123,l,{
"Letterink-NibData" = {
AngleInDegrees = "360";
};
}),
(174,90,o),
(67,20,o),
(67,-66,cs)
);
},
{
closed = 1;
nodes = (
(604,-2,o),
(617,11,o),
(617,27,cs),
(617,43,o),
(604,56,o),
(588,56,cs),
(572,56,o),
(559,43,o),
(559,27,cs),
(559,11,o),
(572,-2,o),
(588,-2,cs)
);
},
{
closed = 1;
nodes = (
(792,-130,o),
(805,-117,o),
(805,-101,cs),
(805,-85,o),
(792,-72,o),
(776,-72,cs),
(760,-72,o),
(747,-85,o),
(747,-101,cs),
(747,-117,o),
(760,-130,o),
(776,-130,cs)
);
},
{
closed = 1;
nodes = (
(1095,386,o),
(1121,412,o),
(1121,445,cs),
(1121,478,o),
(1095,504,o),
(1062,504,cs),
(1029,504,o),
(1003,478,o),
(1003,445,cs),
(1003,412,o),
(1029,386,o),
(1062,386,cs)
);
},
{
closed = 1;
nodes = (
(926,-239,o),
(939,-226,o),
(939,-210,cs),
(939,-194,o),
(926,-181,o),
(910,-181,cs),
(894,-181,o),
(881,-194,o),
(881,-210,cs),
(881,-226,o),
(894,-239,o),
(910,-239,cs)
);
}
);
width = 1205;
},
{
associatedMasterId = "0C4B00F6-5348-41D6-8EE7-AA18FE59D1B1";
background = {
shapes = (
{
closed = 1;
nodes = (
(67,-177,o),
(239,-212,o),
(369,-212,cs),
(651,-212,o),
(1134,-46,o),
(1134,203,cs),
(1134,308,o),
(1037,397,o),
(871,397,cs),
(788,397,o),
(708,374,o),
(640,344,c,{
"Letterink-NibData" = {
AngleInDegrees = "360";
};
}),
(638,329,l),
(672,305,o),
(703,253,o),
(703,195,cs),
(703,105,o),
(629,51,o),
(554,51,cs),
(416,51,o),
(350,192,o),
(350,342,cs),
(350,473,o),
(380,613,o),
(435,702,c),
(368,632,l),
(465,684,o),
(506,745,o),
(506,792,cs),
(506,838,o),
(479,855,o),
(451,855,cs),
(392,855,o),
(355,794,o),
(318,698,cs),
(282,606,o),
(248,459,o),
(248,323,cs),
(248,125,o),
(348,-12,o),
(520,-12,cs),
(677,-12,o),
(816,98,o),
(816,227,cs),
(816,290,o),
(783,334,o),
(745,360,c,{
"Letterink-NibData" = {
AngleInDegrees = "360";
};
}),
(753,332,l),
(780,338,o),
(806,341,o),
(830,341,cs),
(949,341,o),
(1018,267,o),
(1018,183,cs),
(1018,-28,o),
(612,-151,o),
(398,-151,cs),
(310,-151,o),
(182,-131,o),
(182,-34,cs),
(182,10,o),
(225,57,o),
(345,87,c),
(317,123,l,{
"Letterink-NibData" = {
AngleInDegrees = "360";
};
}),
(174,90,o),
(67,20,o),
(67,-66,cs)
);
},
{
closed = 1;
nodes = (
(604,-2,o),
(617,11,o),
(617,27,cs),
(617,43,o),
(604,56,o),
(588,56,cs),
(572,56,o),
(559,43,o),
(559,27,cs),
(559,11,o),
(572,-2,o),
(588,-2,cs)
);
},
{
closed = 1;
nodes = (
(792,-130,o),
(805,-117,o),
(805,-101,cs),
(805,-85,o),
(792,-72,o),
(776,-72,cs),
(760,-72,o),
(747,-85,o),
(747,-101,cs),
(747,-117,o),
(760,-130,o),
(776,-130,cs)
);
}
);
};
layerId = "D49A29BD-2A5E-490F-B992-63ABE2556F4B";
name = "Apr 14, 24 at 18:22";
shapes = (
{
closed = 1;
nodes = (
(641,-212,o),
(1124,-36,o),
(1124,198,cs),
(1124,308,o),
(1031,397,o),
(872,397,cs),
(788,397,o),
(708,374,o),
(640,344,c,{
"Letterink-NibData" = {
AngleInDegrees = "360";
};
}),
(638,329,l),
(672,307,o),
(703,260,o),
(703,204,cs),
(703,109,o),
(619,50,o),
(541,50,cs),
(425,50,o),
(353,181,o),
(353,339,cs),
(353,464,o),
(383,606,o),
(432,702,c),
(368,632,l),
(465,684,o),
(506,745,o),
(506,796,cs),
(506,838,o),
(479,855,o),
(449,855,cs),
(392,855,o),
(355,794,o),
(325,716,cs),
(280,600,o),
(248,450,o),
(248,320,cs),
(248,118,o),
(348,-12,o),
(512,-12,cs),
(676,-12,o),
(814,108,o),
(814,231,cs),
(814,289,o),
(783,327,o),
(748,350,c,{
"Letterink-NibData" = {
AngleInDegrees = "360";
};
}),
(753,332,l),
(782,340,o),
(810,344,o),
(836,344,cs),
(945,344,o),
(1008,267,o),
(1008,177,cs),
(1008,-19,o),
(597,-151,o),
(355,-151,cs),
(273,-151,o),
(182,-134,o),
(182,-53,cs),
(182,1,o),
(225,53,o),
(345,87,c),
(317,123,l,{
"Letterink-NibData" = {
AngleInDegrees = "360";
};
}),
(159,83,o),
(67,12,o),
(67,-74,cs),
(67,-180,o),
(206,-212,o),
(337,-212,cs)
);
}
);
width = 1205;
},
{
associatedMasterId = "0C4B00F6-5348-41D6-8EE7-AA18FE59D1B1";
background = {
shapes = (
{
closed = 1;
nodes = (
(249,270,ls),
(248,258,o),
(248,246,o),
(248,235,cs),
(248,81,o),
(330,-12,o),
(483,-12,cs),
(641,-12,o),
(774,98,o),
(774,214,cs),
(774,278,o),
(734,322,o),
(688,348,c,{
"Letterink-NibData" = {
AngleInDegrees = "360";
};
}),
(693,330,l),
(729,337,o),
(757,340,o),
(780,340,cs),
(905,340,o),
(963,254,o),
(963,170,cs),
(963,-39,o),
(610,-158,o),
(366,-158,cs),
(239,-158,o),
(176,-124,o),
(176,-56,cs),
(176,0,o),
(217,52,o),
(336,81,c),
(310,117,l,{
"Letterink-NibData" = {
AngleInDegrees = "360";
};
}),
(152,84,o),
(60,16,o),
(60,-73,cs),
(60,-166,o),
(172,-218,o),
(353,-218,cs),
(642,-218,o),
(1067,-64,o),
(1080,168,cs),
(1085,286,o),
(990,395,o),
(811,395,cs),
(734,395,o),
(638,375,o),
(580,342,c,{
"Letterink-NibData" = {
AngleInDegrees = "360";
};
}),
(578,327,l),
(622,302,o),
(663,248,o),
(663,184,cs),
(663,101,o),
(585,50,o),
(512,50,cs),
(406,50,o),
(353,138,o),
(353,255,cs),
(353,266,o),
(353,277,o),
(354,289,cs),
(396,839,l),
(289,823,l)
);
}
);
};
layerId = "9168BF34-20DF-4BC0-9B6C-611F325F6171";
name = "Apr 14, 24 at 21:07";
shapes = (
{
closed = 1;
nodes = (
(249,270,ls),
(248,258,o),
(248,246,o),
(248,235,cs),
(248,81,o),
(330,-12,o),
(479,-12,cs),
(641,-12,o),
(774,98,o),
(774,214,cs),
(774,278,o),
(734,322,o),
(688,348,c,{
"Letterink-NibData" = {
AngleInDegrees = "360";
};
}),
(693,330,l),
(725,338,o),
(750,341,o),
(770,341,cs),
(902,341,o),
(963,244,o),
(963,150,cs),
(963,-46,o),
(616,-158,o),
(376,-158,cs),
(242,-158,o),
(176,-128,o),
(176,-69,cs),
(176,-8,o),
(230,35,o),
(336,81,c),
(310,117,l,{
"Letterink-NibData" = {
AngleInDegrees = "360";
};
}),
(166,67,o),
(60,8,o),
(60,-86,cs),
(60,-171,o),
(168,-218,o),
(343,-218,cs),
(636,-218,o),
(1080,-64,o),
(1080,176,cs),
(1080,286,o),
(990,395,o),
(818,395,cs),
(734,395,o),
(638,369,o),
(580,342,c,{
"Letterink-NibData" = {
AngleInDegrees = "360";
};
}),
(578,327,l),
(622,302,o),
(663,248,o),
(663,184,cs),
(663,101,o),
(585,50,o),
(508,50,cs),
(406,50,o),
(353,138,o),
(353,255,cs),
(353,266,o),
(353,277,o),
(354,289,cs),
(396,839,l),
(289,823,l)
);
}
);
width = 1205;
},
{
associatedMasterId = "0C4B00F6-5348-41D6-8EE7-AA18FE59D1B1";
background = {
shapes = (
{
closed = 1;
nodes = (
(253,270,ls),
(252,258,o),
(252,246,o),
(252,235,cs),
(252,81,o),
(336,-12,o),
(489,-12,cs),
(651,-12,o),
(784,89,o),
(784,214,cs),
(784,283,o),
(740,334,o),
(688,358,c,{
"Letterink-NibData" = {
AngleInDegrees = "360";
};
}),
(683,336,l),
(719,347,o),
(747,351,o),
(770,351,cs),
(909,351,o),
(973,259,o),
(973,157,cs),
(973,-46,o),
(620,-158,o),
(376,-158,cs),
(242,-158,o),
(176,-128,o),
(176,-69,cs),
(176,-8,o),
(230,35,o),
(336,81,c),
(310,117,l,{
"Letterink-NibData" = {
AngleInDegrees = "360";
};
}),
(166,67,o),
(60,8,o),
(60,-86,cs),
(60,-171,o),
(168,-218,o),
(343,-218,cs),
(640,-218,o),
(1090,-64,o),
(1090,181,cs),
(1090,291,o),
(993,405,o),
(808,405,cs),
(724,405,o),
(624,379,o),
(570,352,c,{
"Letterink-NibData" = {
AngleInDegrees = "360";
};
}),
(568,337,l),
(622,310,o),
(673,252,o),
(673,184,cs),
(673,92,o),
(595,50,o),
(518,50,cs),
(409,50,o),
(353,138,o),
(353,255,cs),
(353,266,o),
(353,277,o),
(354,289,cs),
(396,839,l),
(293,823,l)
);
}
);
};
layerId = "464BF7C0-9734-4843-8884-4A872F354BA7";
name = "Apr 14, 24 at 21:59";
shapes = (
{
closed = 1;
nodes = (
(253,270,ls),
(252,258,o),
(252,246,o),
(252,235,cs),
(252,81,o),
(336,-12,o),
(489,-12,cs),
(651,-12,o),
(784,89,o),
(784,214,cs),
(784,283,o),
(740,334,o),
(688,358,c,{
"Letterink-NibData" = {
AngleInDegrees = "360";
};
}),
(683,336,l),
(719,347,o),
(747,351,o),
(770,351,cs),
(909,351,o),
(973,259,o),
(973,157,cs),
(973,-46,o),
(620,-158,o),
(376,-158,cs),
(242,-158,o),
(176,-128,o),
(176,-69,cs),
(176,-8,o),
(230,35,o),
(336,81,c),
(310,117,l,{
"Letterink-NibData" = {
AngleInDegrees = "360";
};
}),
(166,67,o),
(60,8,o),
(60,-86,cs),
(60,-171,o),
(168,-218,o),
(343,-218,cs),
(640,-218,o),
(1090,-64,o),
(1090,181,cs),
(1090,291,o),
(993,405,o),
(808,405,cs),
(724,405,o),
(624,379,o),
(570,352,c,{
"Letterink-NibData" = {
AngleInDegrees = "360";
};
}),
(568,337,l),
(622,310,o),
(673,252,o),
(673,184,cs),
(673,92,o),
(595,50,o),
(518,50,cs),
(409,50,o),
(353,138,o),
(353,255,cs),
(353,266,o),
(353,277,o),
(354,289,cs),
(396,839,l),
(293,823,l)
);
}
);
width = 1205;
},
{
associatedMasterId = "0C4B00F6-5348-41D6-8EE7-AA18FE59D1B1";
background = {
shapes = (
{
closed = 1;
nodes = (
(449,859,l),
(396,243,ls),
(386,132,o),
(440,38,o),
(534,38,cs),
(607,38,o),
(685,95,o),
(685,176,cs),
(685,236,o),
(643,288,o),
(581,301,c),
(580,318,l),
(662,355,o),
(775,382,o),
(853,382,cs),
(987,382,o),
(1122,308,o),
(1122,178,cs),
(1122,-65,o),
(639,-223,o),
(356,-223,cs),
(195,-223,o),
(129,-180,o),
(129,-117,cs),
(129,-32,o),
(248,26,o),
(364,60,c),
(388,27,l),
(299,-9,o),
(244,-41,o),
(244,-89,cs),
(244,-128,o),
(279,-162,o),
(365,-162,cs),
(607,-162,o),
(1000,-54,o),
(1000,160,cs),
(1000,249,o),
(930,323,o),
(806,323,cs),
(780,323,o),
(733,315,o),
(695,305,c),
(720,324,l),
(764,298,o),
(790,246,o),
(790,196,cs),
(790,76,o),
(646,-25,o),
(506,-25,cs),
(369,-25,o),
(280,63,o),
(295,238,cs),
(348,848,l)
);
}
);
};
layerId = "9E2DF9B9-5E95-4E27-9B14-F7AD6F9F5B43";
name = "Apr 21, 24 at 16:48";
shapes = (
{
closed = 1;
nodes = (
(449,859,l),
(396,243,ls),
(386,132,o),
(440,38,o),
(534,38,cs),
(607,38,o),
(685,95,o),
(685,174,cs),
(685,234,o),
(639,284,o),
(571,297,c),
(570,314,l),
(655,353,o),
(772,382,o),
(855,382,cs),
(987,382,o),
(1122,308,o),
(1122,179,cs),
(1122,-65,o),
(639,-223,o),
(347,-223,cs),
(195,-223,o),
(129,-180,o),
(129,-117,cs),
(129,-32,o),
(248,26,o),
(364,60,c),
(388,27,l),
(299,-9,o),
(244,-41,o),
(244,-87,cs),
(244,-126,o),
(265,-162,o),
(383,-162,cs),
(593,-162,o),
(1000,-54,o),
(1000,159,cs),
(1000,249,o),
(927,323,o),
(814,323,cs),
(777,323,o),
(733,315,o),
(695,305,c),
(708,321,l),
(759,296,o),
(790,254,o),
(790,198,cs),
(790,76,o),
(646,-25,o),
(503,-25,cs),
(369,-25,o),
(280,63,o),
(295,238,cs),
(348,848,l)
);
}
);
width = 1205;
},
{
associatedMasterId = "0C4B00F6-5348-41D6-8EE7-AA18FE59D1B1";
background = {
shapes = (
{
closed = 1;
nodes = (
(450,869,l),
(394,223,ls),
(386,130,o),
(433,45,o),
(534,45,cs),
(615,45,o),
(705,99,o),
(706,195,cs),
(705,253,o),
(671,311,o),
(613,329,c),
(612,344,l),
(679,367,o),
(778,384,o),
(849,384,cs),
(991,384,o),
(1122,313,o),
(1122,188,cs),
(1122,-45,o),
(670,-213,o),
(370,-213,cs),
(216,-213,o),
(128,-178,o),
(128,-109,cs),
(127,-29,o),
(248,37,o),
(364,70,c),
(388,37,l),
(299,3,o),
(243,-35,o),
(243,-85,cs),
(243,-123,o),
(281,-152,o),
(401,-152,cs),
(619,-152,o),
(1000,-34,o),
(1000,170,cs),
(1000,256,o),
(933,328,o),
(816,328,cs),
(788,328,o),
(736,324,o),
(695,318,c),
(723,343,l),
(784,325,o),
(810,272,o),
(810,220,cs),
(811,90,o),
(646,-15,o),
(498,-15,cs),
(356,-15,o),
(281,83,o),
(293,218,cs),
(348,858,l)
);
}
);
};
layerId = "D1705F86-BD2B-497E-AE55-A6DA6F36480E";
name = "Apr 29, 24 at 09:04";
shapes = (
{
closed = 1;
nodes = (
(450,869,l),
(394,223,ls),
(386,130,o),
(433,45,o),
(534,45,cs),
(618,45,o),
(711,101,o),
(712,200,cs),
(711,256,o),
(675,312,o),
(613,329,c),
(612,344,l),
(679,367,o),
(778,384,o),
(849,384,cs),
(991,384,o),
(1122,313,o),
(1122,188,cs),
(1122,-45,o),
(670,-213,o),
(370,-213,cs),
(216,-213,o),
(128,-178,o),
(128,-109,cs),
(127,-29,o),
(248,37,o),
(364,70,c),
(388,37,l),
(299,3,o),
(243,-35,o),
(243,-85,cs),
(243,-123,o),
(281,-152,o),
(401,-152,cs),
(619,-152,o),
(1000,-34,o),
(1000,170,cs),
(1000,259,o),
(933,333,o),
(820,333,cs),
(788,333,o),
(736,327,o),
(700,318,c),
(727,343,l),
(789,326,o),
(816,275,o),
(816,225,cs),
(817,92,o),
(649,-15,o),
(498,-15,cs),
(356,-15,o),
(281,83,o),
(293,218,cs),
(348,858,l)
);
}
);
width = 1205;
},
{
background = {
shapes = (
{
closed = 1;
nodes = (
(450,869,l),
(394,223,ls),
(386,130,o),
(433,45,o),
(533,45,cs),
(628,45,o),
(711,115,o),
(711,188,cs),
(711,264,o),
(647,313,o),
(572,305,c),
(565,335,l),
(655,373,o),
(765,398,o),
(848,398,cs),
(1002,398,o),
(1122,322,o),
(1122,188,cs),
(1122,-45,o),
(670,-213,o),
(358,-213,cs),
(216,-213,o),
(128,-178,o),
(128,-110,cs),
(127,-29,o),
(248,37,o),
(364,70,c),
(388,37,l),
(299,3,o),
(243,-35,o),
(243,-83,cs),
(243,-123,o),
(281,-152,o),
(393,-152,cs),
(619,-152,o),
(1000,-34,o),
(1000,172,cs),
(1000,264,o),
(928,343,o),
(800,343,cs),
(762,343,o),
(722,334,o),
(681,318,c),
(682,353,l),
(763,338,o),
(816,297,o),
(816,212,cs),
(816,104,o),
(659,-15,o),
(497,-15,cs),
(356,-15,o),
(281,83,o),
(293,218,cs),
(348,858,l)
);
}
);
};
layerId = "0C4B00F6-5348-41D6-8EE7-AA18FE59D1B1";
name = "117";
shapes = (
{
closed = 1;
nodes = (
(450,869,l),
(394,223,ls),
(386,130,o),
(433,45,o),
(538,45,cs),
(628,45,o),
(711,107,o),
(711,192,cs),
(711,266,o),
(647,313,o),
(572,305,c),
(565,335,l),
(655,373,o),
(765,398,o),
(850,398,cs),
(1002,398,o),
(1122,317,o),
(1122,192,cs),
(1122,-50,o),
(670,-213,o),
(360,-213,cs),
(216,-213,o),
(128,-178,o),
(128,-110,cs),
(127,-29,o),
(248,37,o),
(364,70,c),
(388,37,l),
(299,3,o),
(243,-35,o),
(243,-83,cs),
(243,-123,o),
(281,-152,o),
(393,-152,cs),
(619,-152,o),
(1000,-34,o),
(1000,174,cs),
(1000,264,o),
(928,343,o),
(804,343,cs),
(762,343,o),
(722,334,o),
(681,318,c),
(682,353,l),
(763,338,o),
(816,295,o),
(816,222,cs),
(816,96,o),
(657,-15,o),
(501,-15,cs),
(354,-15,o),
(281,83,o),
(293,218,cs),
(348,858,l)
);
}
);
width = 1205;
}
);
unicode = 71950;
},
{
color = 0;
glyphname = "tta-divesakuru";
lastChange = "2024-04-10 19:10:13 +0000";
layers = (
{
background = {
shapes = (
{
closed = 1;
nodes = (
(1000,-15,o),
(1219,84,o),
(1219,190,cs),
(1219,227,o),
(1195,257,o),
(1111,257,cs),
(1058,257,o),
(978,243,o),
(866,204,c),
(880,160,l),
(925,177,o),
(994,192,o),
(1042,192,cs),
(1086,192,o),
(1105,181,o),
(1104,157,cs),
(1101,94,o),
(945,43,o),
(766,43,cs),
(619,43,o),
(536,84,o),
(536,139,cs),
(536,191,o),
(614,206,o),
(699,226,cs),
(807,252,o),
(927,281,o),
(927,385,cs),
(927,519,o),
(675,618,o),
(436,618,cs),
(271,618,o),
(79,563,o),
(79,478,cs),
(79,407,o),
(183,373,o),
(334,373,cs),
(350,373,o),
(366,373,o),
(383,374,c),
(384,418,l),
(260,422,o),
(197,446,o),
(197,485,cs),
(197,527,o),
(285,560,o),
(419,560,cs),
(627,560,o),
(809,486,o),
(809,386,cs),
(809,309,o),
(702,288,o),
(602,264,cs),
(498,240,o),
(418,211,o),
(418,139,cs),
(418,51,o),
(558,-15,o),
(742,-15,cs)
);
},
{
closed = 1;
nodes = (
(208,-251,o),
(234,-225,o),
(234,-192,cs),
(234,-159,o),
(208,-133,o),
(175,-133,cs),
(142,-133,o),
(116,-159,o),
(116,-192,cs),
(116,-225,o),
(142,-251,o),
(175,-251,cs)
);
},
{
closed = 1;
nodes = (
(170,-87,o),
(183,-74,o),
(183,-58,cs),
(183,-42,o),
(170,-29,o),
(154,-29,cs),
(138,-29,o),
(125,-42,o),
(125,-58,cs),
(125,-74,o),
(138,-87,o),
(154,-87,cs)
);
}
);
};
layerId = "0C4B00F6-5348-41D6-8EE7-AA18FE59D1B1";
name = Regular;
shapes = (
{
closed = 1;
nodes = (
(1000,-15,o),
(1219,86,o),
(1219,188,cs),
(1219,227,o),
(1185,257,o),
(1110,257,cs),
(1058,257,o),
(978,243,o),
(866,204,c),
(880,160,l),
(925,177,o),
(994,192,o),
(1046,192,cs),
(1086,192,o),
(1105,183,o),
(1104,163,cs),
(1101,106,o),
(945,43,o),
(765,43,cs),
(619,43,o),
(536,84,o),
(536,139,cs),
(536,191,o),
(614,206,o),
(699,226,cs),
(807,252,o),
(927,281,o),
(927,385,cs),
(927,519,o),
(680,618,o),
(444,618,cs),
(266,618,o),
(79,562,o),
(79,473,cs),
(79,406,o),
(183,373,o),
(334,373,cs),
(350,373,o),
(366,373,o),
(383,374,c),
(384,418,l),
(260,422,o),
(197,446,o),
(197,482,cs),
(197,527,o),
(295,560,o),
(428,560,cs),
(627,560,o),
(809,486,o),
(809,386,cs),
(809,309,o),
(702,288,o),
(602,264,cs),
(498,240,o),
(418,211,o),
(418,139,cs),
(418,51,o),
(558,-15,o),
(753,-15,cs)
);
}
);
width = 1301;
},
{
associatedMasterId = "0C4B00F6-5348-41D6-8EE7-AA18FE59D1B1";
background = {
shapes = (
{
closed = 1;
nodes = (
(1000,-12,o),
(1219,86,o),
(1219,190,cs),
(1219,226,o),
(1196,255,o),
(1116,255,cs),
(1062,255,o),
(980,241,o),
(866,202,c),
(878,163,l),
(924,180,o),
(993,195,o),
(1042,195,cs),
(1085,195,o),
(1103,185,o),
(1102,166,cs),
(1099,100,o),
(944,46,o),
(766,46,cs),
(620,46,o),
(537,86,o),
(537,139,cs),
(537,193,o),
(614,209,o),
(699,229,cs),
(807,255,o),
(927,283,o),
(927,385,cs),
(927,519,o),
(675,618,o),
(436,618,cs),
(271,618,o),
(79,563,o),
(79,478,cs),
(79,408,o),
(183,375,o),
(334,375,cs),
(350,375,o),
(366,375,o),
(383,376,c),
(386,416,l),
(260,420,o),
(196,445,o),
(196,485,cs),
(196,529,o),
(284,563,o),
(419,563,cs),
(626,563,o),
(807,488,o),
(807,386,cs),
(807,307,o),
(701,285,o),
(602,261,cs),
(498,237,o),
(418,209,o),
(418,139,cs),
(418,53,o),
(558,-12,o),
(742,-12,cs)
);
}
);
};
layerId = "2A3B43B1-3B09-477E-938C-3644085E0428";
name = "Apr 10, 24 at 19:39";
shapes = (
{
closed = 1;
nodes = (
(1000,-12,o),
(1219,86,o),
(1219,190,cs),
(1219,226,o),
(1196,255,o),
(1116,255,cs),
(1062,255,o),
(980,241,o),
(866,202,c),
(878,163,l),
(924,180,o),
(993,195,o),
(1042,195,cs),
(1085,195,o),
(1103,185,o),
(1102,166,cs),
(1099,100,o),
(944,46,o),
(766,46,cs),
(620,46,o),
(537,86,o),
(537,139,cs),
(537,193,o),
(614,209,o),
(699,229,cs),
(807,255,o),
(927,283,o),
(927,385,cs),
(927,519,o),
(675,618,o),
(436,618,cs),
(271,618,o),
(79,563,o),
(79,478,cs),
(79,408,o),
(183,375,o),
(334,375,cs),
(350,375,o),
(366,375,o),
(383,376,c),
(386,416,l),
(260,420,o),
(196,445,o),
(196,485,cs),
(196,529,o),
(284,563,o),
(419,563,cs),
(626,563,o),
(807,488,o),
(807,386,cs),
(807,307,o),
(701,285,o),
(602,261,cs),
(498,237,o),
(418,209,o),
(418,139,cs),
(418,53,o),
(558,-12,o),
(742,-12,cs)
);
},
{
closed = 1;
nodes = (
(1095,626,o),
(1121,652,o),
(1121,685,cs),
(1121,718,o),
(1095,744,o),
(1062,744,cs),
(1029,744,o),
(1003,718,o),
(1003,685,cs),
(1003,652,o),
(1029,626,o),
(1062,626,cs)
);
},
{
closed = 1;
nodes = (
(881,683,o),
(894,696,o),
(894,712,cs),
(894,728,o),
(881,741,o),
(865,741,cs),
(849,741,o),
(836,728,o),
(836,712,cs),
(836,696,o),
(849,683,o),
(865,683,cs)
);
}
);
width = 1301;
}
);
unicode = 71958;
},
{
color = 0;
glyphname = "dda-divesakuru";
lastChange = "2024-05-14 13:37:23 +0000";
layers = (
{
background = {
shapes = (
{
closed = 1;
nodes = (
(642,472,o),
(731,388,o),
(731,273,cs),
(731,115,o),
(558,34,o),
(402,-16,cs),
(284,-56,o),
(182,-98,o),
(182,-197,cs),
(182,-295,o),
(295,-367,o),
(429,-367,cs),
(591,-367,o),
(706,-236,o),
(703,-144,c),
(642,-128,l),
(669,-181,o),
(744,-213,o),
(828,-213,cs),
(1044,-213,o),
(1254,-21,o),
(1254,142,cs),
(1254,203,o),
(1224,233,o),
(1153,233,cs),
(1095,233,o),
(1018,215,o),
(961,198,c),
(969,160,l,{
"Letterink-NibData" = {
AngleInDegrees = "360";
};
}),
(1012,169,o),
(1050,174,o),
(1073,174,cs),
(1120,174,o),
(1143,156,o),
(1143,110,cs),
(1143,-17,o),
(997,-146,o),
(864,-146,cs),
(789,-146,o),
(743,-116,o),
(705,-46,c),
(601,-81,l),
(640,-209,o),
(567,-304,o),
(447,-304,cs),
(352,-304,o),
(300,-242,o),
(300,-186,cs),
(300,-121,o),
(364,-92,o),
(458,-59,cs),
(630,0,o),
(849,105,o),
(849,292,cs),
(849,410,o),
(758,507,o),
(599,507,cs),
(536,507,o),
(469,491,o),
(417,467,c),
(417,455,l),
(457,425,o),
(486,369,o),
(486,313,cs),
(486,217,o),
(399,152,o),
(308,152,cs),
(235,152,o),
(194,193,o),
(194,238,cs),
(194,288,o),
(234,321,o),
(294,338,c,{
"Letterink-NibData" = {
AngleInDegrees = "360";
};
}),
(288,377,l),
(177,362,o),
(78,304,o),
(78,218,cs),
(78,146,o),
(153,87,o),
(270,87,cs),
(436,87,o),
(600,200,o),
(600,343,cs),
(600,409,o),
(565,452,o),
(524,480,c),
(518,457,l)
);
}
);
};
layerId = "0C4B00F6-5348-41D6-8EE7-AA18FE59D1B1";
name = Regular;
shapes = (
{
closed = 1;
nodes = (
(284,-56,o),
(182,-98,o),
(182,-197,cs),
(182,-295,o),
(295,-367,o),
(429,-367,cs),
(591,-367,o),
(706,-236,o),
(703,-144,c),
(642,-128,l),
(669,-181,o),
(744,-213,o),
(828,-213,cs),
(1044,-213,o),
(1254,-21,o),
(1254,142,cs),
(1254,203,o),
(1224,233,o),
(1153,233,cs),
(1095,233,o),
(1018,215,o),
(961,198,c),
(969,160,l,{
"Letterink-NibData" = {
AngleInDegrees = "360";
};
}),
(1012,169,o),
(1050,174,o),
(1073,174,cs),
(1120,174,o),
(1143,156,o),
(1143,110,cs),
(1143,-17,o),
(997,-146,o),
(864,-146,cs),
(789,-146,o),
(743,-116,o),
(705,-46,c),
(601,-81,l),
(640,-209,o),
(567,-304,o),
(447,-304,cs),
(352,-304,o),
(300,-242,o),
(300,-186,cs),
(300,-121,o),
(364,-92,o),
(458,-59,cs),
(630,0,o),
(849,106,o),
(849,292,cs),
(849,401,o),
(758,507,o),
(599,507,cs),
(536,507,o),
(469,495,o),
(417,477,c),
(417,465,l),
(457,435,o),
(486,379,o),
(486,323,cs),
(486,227,o),
(399,162,o),
(308,162,cs),
(235,162,o),
(194,203,o),
(194,248,cs),
(194,298,o),
(234,331,o),
(294,348,c,{
"Letterink-NibData" = {
AngleInDegrees = "360";
};
}),
(288,387,l),
(177,372,o),
(78,314,o),
(78,228,cs),
(78,156,o),
(153,97,o),
(270,97,cs),
(436,97,o),
(600,210,o),
(600,353,cs),
(600,419,o),
(565,462,o),
(524,490,c),
(518,463,l),
(652,478,o),
(731,382,o),
(731,273,cs),
(731,115,o),
(558,34,o),
(402,-16,cs)
);
}
);
width = 1327;
},
{
associatedMasterId = "0C4B00F6-5348-41D6-8EE7-AA18FE59D1B1";
layerId = "5E51D2E2-E922-4ECA-8391-CD0F76E05E1D";
name = "Apr 15, 24 at 17:11";
shapes = (
{
closed = 1;
nodes = (
(593,-367,o),
(710,-249,o),
(707,-166,c),
(633,-150,l),
(658,-189,o),
(730,-213,o),
(811,-213,cs),
(1036,-213,o),
(1255,-27,o),
(1255,140,cs),
(1255,208,o),
(1221,232,o),
(1147,232,cs),
(1090,232,o),
(1015,215,o),
(963,200,c),
(968,160,l,{
"Letterink-NibData" = {
AngleInDegrees = 360;
};
}),
(1060,183,o),
(1110,165,o),
(1111,92,cs),
(1112,-21,o),
(999,-146,o),
(857,-146,cs),
(789,-146,o),
(741,-117,o),
(714,-47,c),
(584,-96,l),
(617,-215,o),
(553,-304,o),
(457,-304,cs),
(376,-304,o),
(323,-244,o),
(323,-190,cs),
(323,-127,o),
(359,-96,o),
(501,-48,cs,{
"Letterink-NibData" = {
AngleInDegrees = 0;
};
}),
(650,1,o),
(860,111,o),
(860,293,cs),
(860,410,o),
(770,505,o),
(607,505,cs),
(545,505,o),
(453,491,o),
(387,459,c),
(385,442,l),
(431,415,o),
(460,356,o),
(460,298,cs),
(460,223,o),
(397,150,o),
(313,150,cs),
(252,150,o),
(221,189,o),
(221,231,cs),
(221,263,o),
(238,298,o),
(298,327,c,{
"Letterink-NibData" = {
AngleInDegrees = 360;
};
}),
(286,365,l),
(125,325,o),
(73,260,o),
(73,200,cs),
(73,134,o),
(133,79,o),
(248,77,cs),
(427,75,o),
(605,208,o),
(605,350,cs),
(605,408,o),
(575,450,o),
(540,476,c),
(517,459,l),
(615,462,o),
(710,386,o),
(710,265,cs),
(710,103,o),
(538,24,o),
(394,-19,cs,{
"Letterink-NibData" = {
AngleInDegrees = 360;
};
}),
(265,-59,o),
(172,-105,o),
(172,-196,cs),
(172,-298,o),
(290,-367,o),
(413,-367,cs)
);
}
);
width = 1327;
},
{
associatedMasterId = "0C4B00F6-5348-41D6-8EE7-AA18FE59D1B1";
background = {
shapes = (
{
closed = 1;
nodes = (
(642,472,o),
(731,388,o),
(731,273,cs),
(731,115,o),
(558,34,o),
(402,-16,cs),
(284,-56,o),
(182,-98,o),
(182,-197,cs),
(182,-295,o),
(295,-367,o),
(429,-367,cs),
(591,-367,o),
(706,-236,o),
(703,-144,c),
(642,-128,l),
(669,-181,o),
(744,-213,o),
(828,-213,cs),
(1044,-213,o),
(1254,-21,o),
(1254,142,cs),
(1254,203,o),
(1224,233,o),
(1153,233,cs),
(1095,233,o),
(1018,215,o),
(961,198,c),
(969,160,l,{
"Letterink-NibData" = {
AngleInDegrees = "360";
};
}),
(1012,169,o),
(1050,174,o),
(1073,174,cs),
(1120,174,o),
(1143,156,o),
(1143,110,cs),
(1143,-17,o),
(997,-146,o),
(864,-146,cs),
(789,-146,o),
(743,-116,o),
(705,-46,c),
(601,-81,l),
(640,-209,o),
(567,-304,o),
(447,-304,cs),
(352,-304,o),
(300,-242,o),
(300,-186,cs),
(300,-121,o),
(364,-92,o),
(458,-59,cs),
(630,0,o),
(849,105,o),
(849,292,cs),
(849,410,o),
(758,507,o),
(599,507,cs),
(536,507,o),
(469,491,o),
(417,467,c),
(417,455,l),
(457,425,o),
(486,369,o),
(486,313,cs),
(486,217,o),
(399,152,o),
(308,152,cs),
(235,152,o),
(194,193,o),
(194,238,cs),
(194,288,o),
(234,321,o),
(294,338,c,{
"Letterink-NibData" = {
AngleInDegrees = "360";
};
}),
(288,377,l),
(177,362,o),
(78,304,o),
(78,218,cs),
(78,146,o),
(153,87,o),
(270,87,cs),
(436,87,o),
(600,200,o),
(600,343,cs),
(600,409,o),
(565,452,o),
(524,480,c),
(518,457,l)
);
}
);
};
layerId = "D171BA60-6923-4A3D-9216-C1D4B9AC63BE";
name = "Apr 30, 24 at 09:43";
shapes = (
{
closed = 1;
nodes = (
(642,472,o),
(731,388,o),
(731,273,cs),
(731,115,o),
(558,34,o),
(402,-16,cs),
(284,-56,o),
(182,-98,o),
(182,-197,cs),
(182,-295,o),
(295,-367,o),
(429,-367,cs),
(591,-367,o),
(706,-236,o),
(703,-144,c),
(642,-128,l),
(669,-181,o),
(744,-213,o),
(828,-213,cs),
(1044,-213,o),
(1254,-21,o),
(1254,142,cs),
(1254,203,o),
(1224,233,o),
(1153,233,cs),
(1095,233,o),
(1018,215,o),
(961,198,c),
(969,160,l,{
"Letterink-NibData" = {
AngleInDegrees = "360";
};
}),
(1012,169,o),
(1050,174,o),
(1073,174,cs),
(1120,174,o),
(1143,156,o),
(1143,110,cs),
(1143,-17,o),
(997,-146,o),
(864,-146,cs),
(789,-146,o),
(743,-116,o),
(705,-46,c),
(601,-81,l),
(640,-209,o),
(567,-304,o),
(447,-304,cs),
(352,-304,o),
(300,-242,o),
(300,-186,cs),
(300,-121,o),
(364,-92,o),
(458,-59,cs),
(630,0,o),
(849,105,o),
(849,292,cs),
(849,410,o),
(758,507,o),
(599,507,cs),
(536,507,o),
(469,491,o),
(417,467,c),
(417,455,l),
(457,425,o),
(486,369,o),
(486,313,cs),
(486,217,o),
(399,152,o),
(308,152,cs),
(235,152,o),
(194,193,o),
(194,238,cs),
(194,288,o),
(234,321,o),
(294,338,c,{
"Letterink-NibData" = {
AngleInDegrees = "360";
};
}),
(288,377,l),
(177,362,o),
(78,304,o),
(78,218,cs),
(78,146,o),
(153,87,o),
(270,87,cs),
(436,87,o),
(600,200,o),
(600,343,cs),
(600,409,o),
(565,452,o),
(524,480,c),
(518,457,l)
);
}
);
width = 1327;
}
);
unicode = 71960;
},
{
color = 0;
glyphname = "nna-divesakuru";
lastChange = "2024-04-18 11:44:54 +0000";
layers = (
{
associatedMasterId = "0C4B00F6-5348-41D6-8EE7-AA18FE59D1B1";
background = {
shapes = (
{
closed = 1;
nodes = (
(300,109,l,{
"Letterink-NibData" = {
AngleInDegrees = "360";
};
}),
(142,78,o),
(76,23,o),
(76,-36,cs),
(76,-93,o),
(139,-147,o),
(315,-147,cs),
(421,-147,o),
(568,-124,o),
(705,-84,cs),
(954,-13,o),
(1151,117,o),
(1153,300,cs),
(1153,422,o),
(1047,488,o),
(938,488,cs),
(884,488,o),
(812,471,o),
(758,444,c,{
"Letterink-NibData" = {
AngleInDegrees = "360";
};
}),
(753,435,l),
(757,410,o),
(760,387,o),
(760,364,cs),
(760,295,o),
(725,228,o),
(657,228,cs),
(617,228,o),
(604,258,o),
(604,290,cs),
(604,319,o),
(612,353,o),
(612,390,cs),
(612,509,o),
(518,563,o),
(397,563,cs),
(241,563,o),
(82,453,o),
(82,312,cs),
(81,250,o),
(130,206,o),
(200,205,cs),
(276,205,o),
(340,260,o),
(340,322,cs),
(342,379,o),
(282,438,o),
(178,399,c,{
"Letterink-NibData" = {
AngleInDegrees = "360";
};
}),
(192,380,l),
(211,464,o),
(303,502,o),
(368,502,cs),
(453,502,o),
(497,446,o),
(497,377,cs),
(497,341,o),
(487,305,o),
(487,272,cs),
(487,193,o),
(554,165,o),
(628,165,cs),
(760,165,o),
(877,258,o),
(877,398,cs),
(877,416,o),
(873,436,o),
(867,456,c),
(855,428,l,{
"Letterink-NibData" = {
AngleInDegrees = "360";
};
}),
(973,456,o),
(1037,380,o),
(1036,287,cs),
(1035,135,o),
(890,30,o),
(688,-30,cs),
(572,-65,o),
(444,-88,o),
(361,-88,cs),
(243,-88,o),
(190,-62,o),
(190,-15,cs),
(190,23,o),
(236,51,o),
(309,72,c)
);
}
);
};
layerId = "CE7CF2FB-369A-47A7-B62E-F4E8B456E13F";
name = "Apr 18, 24 at 13:44";
shapes = (
{
closed = 1;
nodes = (
(300,109,l,{
"Letterink-NibData" = {
AngleInDegrees = "360";
};
}),
(142,78,o),
(76,23,o),
(76,-36,cs),
(76,-93,o),
(139,-147,o),
(315,-147,cs),
(421,-147,o),
(568,-124,o),
(705,-84,cs),
(954,-13,o),
(1151,117,o),
(1153,300,cs),
(1153,422,o),
(1047,488,o),
(938,488,cs),
(884,488,o),
(812,471,o),
(758,444,c,{
"Letterink-NibData" = {
AngleInDegrees = "360";
};
}),
(753,435,l),
(757,410,o),
(760,387,o),
(760,364,cs),
(760,295,o),
(725,228,o),
(657,228,cs),
(617,228,o),
(604,258,o),
(604,290,cs),
(604,319,o),
(612,353,o),
(612,390,cs),
(612,509,o),
(518,563,o),
(397,563,cs),
(241,563,o),
(82,453,o),
(82,312,cs),
(81,250,o),
(130,206,o),
(200,205,cs),
(276,205,o),
(340,260,o),
(340,322,cs),
(342,379,o),
(282,438,o),
(178,399,c,{
"Letterink-NibData" = {
AngleInDegrees = "360";
};
}),
(192,380,l),
(211,464,o),
(303,502,o),
(368,502,cs),
(453,502,o),
(497,446,o),
(497,377,cs),
(497,341,o),
(487,305,o),
(487,272,cs),
(487,193,o),
(554,165,o),
(628,165,cs),
(760,165,o),
(877,258,o),
(877,398,cs),
(877,416,o),
(873,436,o),
(867,456,c),
(855,428,l,{
"Letterink-NibData" = {
AngleInDegrees = "360";
};
}),
(973,456,o),
(1037,380,o),
(1036,287,cs),
(1035,135,o),
(890,30,o),
(688,-30,cs),
(572,-65,o),
(444,-88,o),
(361,-88,cs),
(243,-88,o),
(190,-62,o),
(190,-15,cs),
(190,23,o),
(236,51,o),
(309,72,c)
);
}
);
width = 1232;
},
{
background = {
shapes = (
{
closed = 1;
nodes = (
(300,109,l,{
"Letterink-NibData" = {
AngleInDegrees = "360";
};
}),
(142,78,o),
(76,23,o),
(76,-36,cs),
(76,-93,o),
(139,-147,o),
(315,-147,cs),
(421,-147,o),
(568,-124,o),
(705,-84,cs),
(954,-13,o),
(1151,117,o),
(1153,300,cs),
(1153,422,o),
(1047,488,o),
(938,488,cs),
(884,488,o),
(812,471,o),
(758,444,c,{
"Letterink-NibData" = {
AngleInDegrees = "360";
};
}),
(753,435,l),
(757,410,o),
(760,387,o),
(760,364,cs),
(760,295,o),
(725,228,o),
(657,228,cs),
(617,228,o),
(604,258,o),
(604,290,cs),
(604,319,o),
(612,353,o),
(612,390,cs),
(612,509,o),
(518,563,o),
(397,563,cs),
(241,563,o),
(82,453,o),
(82,312,cs),
(81,250,o),
(130,206,o),
(200,205,cs),
(276,205,o),
(340,260,o),
(340,322,cs),
(342,379,o),
(282,438,o),
(178,399,c,{
"Letterink-NibData" = {
AngleInDegrees = "360";
};
}),
(192,380,l),
(211,464,o),
(303,502,o),
(368,502,cs),
(453,502,o),
(497,446,o),
(497,377,cs),
(497,341,o),
(487,305,o),
(487,272,cs),
(487,193,o),
(554,165,o),
(628,165,cs),
(760,165,o),
(877,258,o),
(877,398,cs),
(877,416,o),
(873,436,o),
(867,456,c),
(855,428,l,{
"Letterink-NibData" = {
AngleInDegrees = "360";
};
}),
(973,456,o),
(1037,380,o),
(1036,287,cs),
(1035,135,o),
(890,30,o),
(688,-30,cs),
(572,-65,o),
(444,-88,o),
(361,-88,cs),
(243,-88,o),
(190,-62,o),
(190,-15,cs),
(190,23,o),
(236,51,o),
(309,72,c)
);
}
);
};
layerId = "0C4B00F6-5348-41D6-8EE7-AA18FE59D1B1";
name = "117";
shapes = (
{
closed = 1;
nodes = (
(300,109,l,{
"Letterink-NibData" = {
AngleInDegrees = "360";
};
}),
(142,78,o),
(76,23,o),
(76,-36,cs),
(76,-93,o),
(139,-147,o),
(315,-147,cs),
(421,-147,o),
(568,-124,o),
(705,-84,cs),
(954,-13,o),
(1151,117,o),
(1153,300,cs),
(1153,422,o),
(1047,488,o),
(938,488,cs),
(884,488,o),
(812,471,o),
(758,444,c,{
"Letterink-NibData" = {
AngleInDegrees = "360";
};
}),
(753,435,l),
(757,410,o),
(760,387,o),
(760,364,cs),
(760,295,o),
(725,228,o),
(657,228,cs),
(617,228,o),
(604,258,o),
(604,290,cs),
(604,319,o),
(612,353,o),
(612,390,cs),
(612,504,o),
(514,563,o),
(387,563,cs),
(236,563,o),
(82,453,o),
(82,312,cs),
(81,250,o),
(130,206,o),
(200,205,cs),
(276,205,o),
(340,260,o),
(340,322,cs),
(342,379,o),
(282,438,o),
(178,399,c,{
"Letterink-NibData" = {
AngleInDegrees = "360";
};
}),
(192,380,l),
(210,464,o),
(297,502,o),
(358,502,cs),
(450,502,o),
(497,446,o),
(497,377,cs),
(497,341,o),
(487,305,o),
(487,272,cs),
(487,193,o),
(554,165,o),
(628,165,cs),
(760,165,o),
(877,258,o),
(877,398,cs),
(877,416,o),
(873,436,o),
(867,456,c),
(855,428,l,{
"Letterink-NibData" = {
AngleInDegrees = "360";
};
}),
(973,456,o),
(1037,380,o),
(1036,287,cs),
(1035,135,o),
(890,30,o),
(688,-30,cs),
(572,-65,o),
(444,-88,o),
(361,-88,cs),
(243,-88,o),
(190,-62,o),
(190,-15,cs),
(190,23,o),
(236,51,o),
(309,72,c)
);
}
);
width = 1232;
}
);
unicode = 71962;
},
{
color = 0;
glyphname = "ta-divesakuru";
lastChange = "2024-04-30 12:24:24 +0000";
layers = (
{
background = {
shapes = (
{
closed = 1;
nodes = (
(680,-196,o),
(1042,-18,o),
(1042,176,cs),
(1042,283,o),
(948,354,o),
(788,354,cs),
(604,353,o),
(284,258,o),
(284,118,cs),
(284,40,o),
(348,-15,o),
(461,-15,cs),
(601,-15,o),
(749,92,o),
(749,243,cs),
(749,394,o),
(627,509,o),
(441,509,cs),
(297,509,o),
(196,427,o),
(196,349,cs),
(196,274,o),
(285,232,o),
(387,242,c),
(429,265,l),
(349,283,o),
(314,325,o),
(314,368,cs),
(314,423,o),
(373,450,o),
(432,450,cs),
(555,450,o),
(640,316,o),
(640,215,cs),
(640,124,o),
(566,44,o),
(489,44,cs),
(428,44,o),
(398,84,o),
(398,130,cs),
(399,238,o),
(614,296,o),
(758,296,cs),
(857,296,o),
(924,232,o),
(924,160,cs),
(924,-6,o),
(623,-136,o),
(389,-136,cs),
(261,-136,o),
(207,-106,o),
(207,-52,cs),
(206,2,o),
(264,42,o),
(321,69,c),
(321,108,l),
(207,74,o),
(91,4,o),
(92,-81,cs),
(92,-153,o),
(166,-196,o),
(337,-196,cs)
);
}
);
};
layerId = "0C4B00F6-5348-41D6-8EE7-AA18FE59D1B1";
name = Regular;
shapes = (
{
closed = 1;
nodes = (
(680,-196,o),
(1042,-18,o),
(1042,176,cs),
(1042,283,o),
(948,354,o),
(788,354,cs),
(604,353,o),
(284,258,o),
(284,118,cs),
(284,40,o),
(348,-15,o),
(461,-15,cs),
(601,-15,o),
(749,92,o),
(749,243,cs),
(749,394,o),
(627,509,o),
(441,509,cs),
(297,509,o),
(196,427,o),
(196,349,cs),
(196,274,o),
(285,232,o),
(387,242,c),
(429,265,l),
(349,283,o),
(314,325,o),
(314,368,cs),
(314,423,o),
(373,450,o),
(432,450,cs),
(555,450,o),
(640,316,o),
(640,215,cs),
(640,124,o),
(566,44,o),
(489,44,cs),
(428,44,o),
(398,84,o),
(398,130,cs),
(399,241,o),
(652,301,o),
(753,301,cs),
(859,301,o),
(924,235,o),
(924,160,cs),
(924,-6,o),
(623,-136,o),
(389,-136,cs),
(261,-136,o),
(207,-106,o),
(207,-52,cs),
(206,2,o),
(264,42,o),
(321,69,c),
(321,108,l),
(207,74,o),
(91,4,o),
(92,-81,cs),
(92,-153,o),
(166,-196,o),
(337,-196,cs)
);
}
);
width = 1145;
},
{
associatedMasterId = "0C4B00F6-5348-41D6-8EE7-AA18FE59D1B1";
background = {
shapes = (
{
closed = 1;
nodes = (
(721,-190,o),
(1063,-19,o),
(1063,169,cs),
(1063,277,o),
(956,344,o),
(791,345,cs),
(596,346,o),
(284,273,o),
(284,121,cs),
(284,39,o),
(369,-15,o),
(481,-15,cs),
(634,-15,o),
(772,84,o),
(772,235,cs),
(772,386,o),
(641,509,o),
(441,509,cs),
(297,509,o),
(196,444,o),
(196,363,cs),
(196,295,o),
(279,244,o),
(407,248,c),
(429,265,l),
(349,283,o),
(314,325,o),
(314,368,cs),
(314,423,o),
(373,450,o),
(432,450,cs),
(565,450,o),
(657,316,o),
(657,215,cs),
(657,124,o),
(585,44,o),
(499,44,cs),
(440,44,o),
(402,83,o),
(402,131,cs),
(402,242,o),
(625,293,o),
(768,293,cs),
(882,293,o),
(945,233,o),
(945,152,cs),
(945,-4,o),
(653,-131,o),
(400,-131,cs),
(265,-131,o),
(197,-91,o),
(197,-32,cs),
(197,25,o),
(263,71,o),
(350,82,c),
(350,123,l),
(208,98,o),
(81,31,o),
(81,-58,cs),
(81,-137,o),
(181,-190,o),
(378,-190,cs)
);
},
{
closed = 1;
nodes = (
(1095,386,o),
(1121,412,o),
(1121,445,cs),
(1121,478,o),
(1095,504,o),
(1062,504,cs),
(1029,504,o),
(1003,478,o),
(1003,445,cs),
(1003,412,o),
(1029,386,o),
(1062,386,cs)
);
},
{
closed = 1;
nodes = (
(881,443,o),
(894,456,o),
(894,472,cs),
(894,488,o),
(881,501,o),
(865,501,cs),
(849,501,o),
(836,488,o),
(836,472,cs),
(836,456,o),
(849,443,o),
(865,443,cs)
);
}
);
};
layerId = "64C3863B-FCC0-402A-AC8E-E3F31875DCE5";
name = "Apr 14, 24 at 18:55";
shapes = (
{
closed = 1;
nodes = (
(716,-190,o),
(1063,-19,o),
(1063,169,cs),
(1063,277,o),
(956,344,o),
(791,345,cs),
(596,346,o),
(284,273,o),
(284,121,cs),
(284,39,o),
(369,-15,o),
(481,-15,cs),
(634,-15,o),
(772,84,o),
(772,235,cs),
(772,386,o),
(641,509,o),
(441,509,cs),
(297,509,o),
(196,435,o),
(196,358,cs),
(196,285,o),
(300,233,o),
(397,245,c),
(429,265,l),
(349,283,o),
(314,325,o),
(314,368,cs),
(314,423,o),
(373,450,o),
(432,450,cs),
(567,450,o),
(660,316,o),
(660,215,cs),
(660,124,o),
(587,44,o),
(499,44,cs),
(438,44,o),
(399,83,o),
(399,131,cs),
(399,242,o),
(623,293,o),
(768,293,cs),
(882,293,o),
(945,233,o),
(945,152,cs),
(945,-4,o),
(648,-131,o),
(396,-131,cs),
(262,-131,o),
(197,-95,o),
(197,-39,cs),
(197,17,o),
(260,59,o),
(321,74,c),
(321,115,l),
(204,92,o),
(81,22,o),
(81,-64,cs),
(81,-141,o),
(178,-190,o),
(366,-190,cs)
);
}
);
width = 1145;
},
{
associatedMasterId = "0C4B00F6-5348-41D6-8EE7-AA18FE59D1B1";
background = {
shapes = (
{
closed = 1;
nodes = (
(690,-196,o),
(1042,-15,o),
(1042,175,cs),
(1042,284,o),
(940,351,o),
(787,349,cs),
(592,350,o),
(284,265,o),
(284,121,cs),
(284,39,o),
(369,-15,o),
(481,-15,cs),
(621,-15,o),
(749,84,o),
(749,235,cs),
(749,386,o),
(627,509,o),
(441,509,cs),
(297,509,o),
(196,431,o),
(196,349,cs),
(196,278,o),
(290,232,o),
(397,245,c),
(429,265,l),
(349,283,o),
(314,325,o),
(314,368,cs),
(314,423,o),
(373,450,o),
(432,450,cs),
(555,450,o),
(640,316,o),
(640,215,cs),
(640,124,o),
(576,44,o),
(499,44,cs),
(438,44,o),
(399,86,o),
(399,137,cs),
(399,245,o),
(626,296,o),
(770,296,cs),
(869,296,o),
(924,237,o),
(924,156,cs),
(924,-1,o),
(623,-136,o),
(370,-136,cs),
(261,-136,o),
(208,-100,o),
(207,-46,cs),
(207,8,o),
(264,45,o),
(321,69,c),
(321,111,l),
(208,79,o),
(92,11,o),
(92,-73,cs),
(93,-147,o),
(176,-196,o),
(336,-196,cs)
);
}
);
};
layerId = "B43BD5B0-6859-40E9-B129-FB8799F2CC42";
name = "Apr 18, 24 at 13:48";
shapes = (
{
closed = 1;
nodes = (
(690,-196,o),
(1042,-15,o),
(1042,175,cs),
(1042,284,o),
(940,351,o),
(787,349,cs),
(592,350,o),
(284,265,o),
(284,121,cs),
(284,39,o),
(369,-15,o),
(481,-15,cs),
(623,-15,o),
(752,84,o),
(752,235,cs),
(752,386,o),
(629,509,o),
(441,509,cs),
(297,509,o),
(196,435,o),
(196,358,cs),
(196,285,o),
(290,232,o),
(397,245,c),
(429,265,l),
(349,283,o),
(314,325,o),
(314,368,cs),
(314,423,o),
(373,450,o),
(432,450,cs),
(555,450,o),
(640,316,o),
(640,215,cs),
(640,124,o),
(576,44,o),
(499,44,cs),
(438,44,o),
(399,83,o),
(399,131,cs),
(399,243,o),
(626,296,o),
(770,296,cs),
(869,296,o),
(924,237,o),
(924,156,cs),
(924,-1,o),
(623,-136,o),
(370,-136,cs),
(261,-136,o),
(208,-99,o),
(207,-45,cs),
(207,9,o),
(264,55,o),
(321,69,c),
(321,115,l),
(208,92,o),
(92,14,o),
(92,-72,cs),
(93,-147,o),
(176,-196,o),
(336,-196,cs)
);
}
);
width = 1145;
}
);
unicode = 71963;
},
